  0
SECTION
  2
HEADER
  9
$ACADVER
  1
AC1009
  9
$DWGCODEPAGE
  3
ansi_1254
  9
$INSBASE
 10
0.0
 20
0.0
 30
0.0
  9
$EXTMIN
 10
1342.394761132738
 20
1407.536485303071
 30
0.0
  9
$EXTMAX
 10
1754.591868333582
 20
1770.429286815815
 30
0.0
  9
$LIMMIN
 10
0.0
 20
0.0
  9
$LIMMAX
 10
12.0
 20
9.0
  9
$ORTHOMODE
 70
     0
  9
$REGENMODE
 70
     1
  9
$FILLMODE
 70
     1
  9
$QTEXTMODE
 70
     0
  9
$MIRRTEXT
 70
     1
  9
$DRAGMODE
 70
     2
  9
$LTSCALE
 40
1.0
  9
$OSMODE
 70
    37
  9
$ATTMODE
 70
     1
  9
$TEXTSIZE
 40
0.2
  9
$TRACEWID
 40
0.05
  9
$TEXTSTYLE
  7
STANDARD
  9
$CLAYER
  8
0
  9
$CELTYPE
  6
BYLAYER
  9
$CECOLOR
 62
   256
  9
$DIMSCALE
 40
1.0
  9
$DIMASZ
 40
0.18
  9
$DIMEXO
 40
0.0625
  9
$DIMDLI
 40
0.38
  9
$DIMRND
 40
0.0
  9
$DIMDLE
 40
0.0
  9
$DIMEXE
 40
0.18
  9
$DIMTP
 40
0.0
  9
$DIMTM
 40
0.0
  9
$DIMTXT
 40
0.18
  9
$DIMCEN
 40
0.09
  9
$DIMTSZ
 40
0.0
  9
$DIMTOL
 70
     0
  9
$DIMLIM
 70
     0
  9
$DIMTIH
 70
     1
  9
$DIMTOH
 70
     1
  9
$DIMSE1
 70
     0
  9
$DIMSE2
 70
     0
  9
$DIMTAD
 70
     0
  9
$DIMZIN
 70
     0
  9
$DIMBLK
  1

  9
$DIMASO
 70
     1
  9
$DIMSHO
 70
     1
  9
$DIMPOST
  1

  9
$DIMAPOST
  1

  9
$DIMALT
 70
     0
  9
$DIMALTD
 70
     2
  9
$DIMALTF
 40
25.4
  9
$DIMLFAC
 40
1.0
  9
$DIMTOFL
 70
     0
  9
$DIMTVP
 40
0.0
  9
$DIMTIX
 70
     0
  9
$DIMSOXD
 70
     0
  9
$DIMSAH
 70
     0
  9
$DIMBLK1
  1

  9
$DIMBLK2
  1

  9
$DIMSTYLE
  2
STANDARD
  9
$DIMCLRD
 70
     0
  9
$DIMCLRE
 70
     0
  9
$DIMCLRT
 70
     0
  9
$DIMTFAC
 40
1.0
  9
$DIMGAP
 40
0.09
  9
$LUNITS
 70
     2
  9
$LUPREC
 70
     4
  9
$SKETCHINC
 40
0.1
  9
$FILLETRAD
 40
0.5
  9
$AUNITS
 70
     0
  9
$AUPREC
 70
     0
  9
$MENU
  1
.
  9
$ELEVATION
 40
0.0
  9
$PELEVATION
 40
0.0
  9
$THICKNESS
 40
0.0
  9
$LIMCHECK
 70
     0
  9
$CHAMFERA
 40
0.5
  9
$CHAMFERB
 40
0.5
  9
$SKPOLY
 70
     0
  9
$TDCREATE
 40
2454910.5
  9
$TDUPDATE
 40
2456011.749536123
  9
$TDINDWG
 40
0.0000000116
  9
$TDUSRTIMER
 40
0.0000000116
  9
$USRTIMER
 70
     1
  9
$ANGBASE
 50
0.0
  9
$ANGDIR
 70
     0
  9
$PDMODE
 70
     0
  9
$PDSIZE
 40
0.0
  9
$PLINEWID
 40
0.0
  9
$COORDS
 70
     1
  9
$SPLFRAME
 70
     0
  9
$SPLINETYPE
 70
     6
  9
$SPLINESEGS
 70
     8
  9
$ATTDIA
 70
     0
  9
$ATTREQ
 70
     1
  9
$HANDLING
 70
     1
  9
$HANDSEED
  5
898
  9
$SURFTAB1
 70
     6
  9
$SURFTAB2
 70
     6
  9
$SURFTYPE
 70
     6
  9
$SURFU
 70
     6
  9
$SURFV
 70
     6
  9
$UCSNAME
  2

  9
$UCSORG
 10
0.0
 20
0.0
 30
0.0
  9
$UCSXDIR
 10
1.0
 20
0.0
 30
0.0
  9
$UCSYDIR
 10
0.0
 20
1.0
 30
0.0
  9
$PUCSNAME
  2

  9
$PUCSORG
 10
0.0
 20
0.0
 30
0.0
  9
$PUCSXDIR
 10
1.0
 20
0.0
 30
0.0
  9
$PUCSYDIR
 10
0.0
 20
1.0
 30
0.0
  9
$USERI1
 70
     0
  9
$USERI2
 70
     0
  9
$USERI3
 70
     0
  9
$USERI4
 70
     0
  9
$USERI5
 70
     0
  9
$USERR1
 40
0.0
  9
$USERR2
 40
0.0
  9
$USERR3
 40
0.0
  9
$USERR4
 40
0.0
  9
$USERR5
 40
0.0
  9
$WORLDVIEW
 70
     1
  9
$SHADEDGE
 70
     3
  9
$SHADEDIF
 70
    70
  9
$TILEMODE
 70
     1
  9
$MAXACTVP
 70
    64
  9
$PLIMCHECK
 70
     0
  9
$PEXTMIN
 10
1.000000000000000E+20
 20
1.000000000000000E+20
 30
1.000000000000000E+20
  9
$PEXTMAX
 10
-1.000000000000000E+20
 20
-1.000000000000000E+20
 30
-1.000000000000000E+20
  9
$PLIMMIN
 10
0.0
 20
0.0
  9
$PLIMMAX
 10
12.0
 20
9.0
  9
$UNITMODE
 70
     0
  9
$VISRETAIN
 70
     1
  9
$PLINEGEN
 70
     0
  9
$PSLTSCALE
 70
     1
  0
ENDSEC
  0
SECTION
  2
TABLES
  0
TABLE
  2
VPORT
 70
     1
  0
VPORT
  2
*ACTIVE
 70
     0
 10
0.0
 20
0.0
 11
1.0
 21
1.0
 12
10.42990654205607
 22
4.5
 13
0.0
 23
0.0
 14
0.5
 24
0.5
 15
0.5
 25
0.5
 16
0.0
 26
0.0
 36
1.0
 17
0.0
 27
0.0
 37
0.0
 40
9.0
 41
1.972972972850329
 42
50.0
 43
0.0
 44
0.0
 50
0.0
 51
0.0
 71
     0
 72
   100
 73
     1
 74
     3
 75
     0
 76
     0
 77
     0
 78
     0
  0
ENDTAB
  0
TABLE
  2
LTYPE
 70
     2
  0
LTYPE
  2
CONTINUOUS
 70
     0
  3
Solid line
 72
    65
 73
     0
 40
0.0
  0
LTYPE
  2
CONTINUOUS2
 70
     0
  3
Solid Line
 72
    65
 73
     0
 40
0.0
  0
ENDTAB
  0
TABLE
  2
LAYER
 70
     2
  0
LAYER
  2
0
 70
     0
 62
     7
  6
CONTINUOUS
  0
LAYER
  2
PAGE_2
 70
     0
 62
    18
  6
CONTINUOUS
  0
ENDTAB
  0
TABLE
  2
STYLE
 70
     1
  0
STYLE
  2
STANDARD
 70
     0
 40
0.0
 41
1.0
 50
0.0
 71
     0
 42
0.2
  3
txt
  4

  0
ENDTAB
  0
TABLE
  2
VIEW
 70
     0
  0
ENDTAB
  0
TABLE
  2
UCS
 70
     0
  0
ENDTAB
  0
TABLE
  2
APPID
 70
     1
  0
APPID
  2
ACAD
 70
     0
  0
ENDTAB
  0
TABLE
  2
DIMSTYLE
 70
     1
  0
DIMSTYLE
  2
STANDARD
 70
     0
  3

  4

  5

  6

  7

 40
1.0
 41
0.18
 42
0.0625
 43
0.38
 44
0.18
 45
0.0
 46
0.0
 47
0.0
 48
0.0
140
0.18
141
0.09
142
0.0
143
25.4
144
1.0
145
0.0
146
1.0
147
0.09
 71
     0
 72
     0
 73
     1
 74
     1
 75
     0
 76
     0
 77
     0
 78
     0
170
     0
171
     2
172
     0
173
     0
174
     0
175
     0
176
     0
177
     0
178
     0
  0
ENDTAB
  0
ENDSEC
  0
SECTION
  2
BLOCKS
  0
BLOCK
  8
0
  2
$MODEL_SPACE
 70
     0
 10
0.0
 20
0.0
 30
0.0
  3
$MODEL_SPACE
  1

  0
ENDBLK
  5
21
  8
0
  0
BLOCK
 67
     1
  8
0
  2
$PAPER_SPACE
 70
     0
 10
0.0
 20
0.0
 30
0.0
  3
$PAPER_SPACE
  1

  0
ENDBLK
  5
1D
 67
     1
  8
0
  0
ENDSEC
  0
SECTION
  2
ENTITIES
  0
POLYLINE
  5
41
  8
PAGE_2
 66
     1
 10
0.0
 20
0.0
 30
0.0
 70
     1
  0
VERTEX
  5
5B
  8
PAGE_2
 10
1456.841162889375
 20
1496.436485303072
 30
0.0
  0
VERTEX
  5
5C
  8
PAGE_2
 10
1550.714271222708
 20
1496.436485303072
 30
0.0
  0
VERTEX
  5
5D
  8
PAGE_2
 10
1550.912328470294
 20
1496.431201657018
 30
0.0
  0
VERTEX
  5
5E
  8
PAGE_2
 10
1551.107872692977
 20
1496.415523361204
 30
0.0
  0
VERTEX
  5
5F
  8
PAGE_2
 10
1551.300656360647
 20
1496.389709379152
 30
0.0
  0
VERTEX
  5
60
  8
PAGE_2
 10
1551.490431943194
 20
1496.354018674382
 30
0.0
  0
VERTEX
  5
61
  8
PAGE_2
 10
1551.676951910506
 20
1496.308710210417
 30
0.0
  0
VERTEX
  5
62
  8
PAGE_2
 10
1551.859968732474
 20
1496.254042950777
 30
0.0
  0
VERTEX
  5
63
  8
PAGE_2
 10
1552.039234878985
 20
1496.190275858983
 30
0.0
  0
VERTEX
  5
64
  8
PAGE_2
 10
1552.21450281993
 20
1496.117667898558
 30
0.0
  0
VERTEX
  5
65
  8
PAGE_2
 10
1552.385525025198
 20
1496.036478033021
 30
0.0
  0
VERTEX
  5
66
  8
PAGE_2
 10
1552.552053964679
 20
1495.946965225896
 30
0.0
  0
VERTEX
  5
67
  8
PAGE_2
 10
1552.71384210826
 20
1495.849388440703
 30
0.0
  0
VERTEX
  5
68
  8
PAGE_2
 10
1552.870641925833
 20
1495.744006640962
 30
0.0
  0
VERTEX
  5
69
  8
PAGE_2
 10
1553.022205887286
 20
1495.631078790197
 30
0.0
  0
VERTEX
  5
6A
  8
PAGE_2
 10
1553.168286462508
 20
1495.510863851927
 30
0.0
  0
VERTEX
  5
6B
  8
PAGE_2
 10
1553.30863612139
 20
1495.383620789674
 30
0.0
  0
VERTEX
  5
6C
  8
PAGE_2
 10
1553.443007333819
 20
1495.24960856696
 30
0.0
  0
VERTEX
  5
6D
  8
PAGE_2
 10
1553.571152569686
 20
1495.109086147306
 30
0.0
  0
VERTEX
  5
6E
  8
PAGE_2
 10
1553.69282429888
 20
1494.962312494234
 30
0.0
  0
VERTEX
  5
6F
  8
PAGE_2
 10
1553.80777499129
 20
1494.809546571264
 30
0.0
  0
VERTEX
  5
70
  8
PAGE_2
 10
1553.915757116805
 20
1494.651047341917
 30
0.0
  0
VERTEX
  5
71
  8
PAGE_2
 10
1554.016523145315
 20
1494.487073769716
 30
0.0
  0
VERTEX
  5
72
  8
PAGE_2
 10
1554.10982554671
 20
1494.317884818181
 30
0.0
  0
VERTEX
  5
73
  8
PAGE_2
 10
1554.195416790878
 20
1494.143739450834
 30
0.0
  0
VERTEX
  5
74
  8
PAGE_2
 10
1554.273049347708
 20
1493.964896631197
 30
0.0
  0
VERTEX
  5
75
  8
PAGE_2
 10
1554.342475687091
 20
1493.781615322789
 30
0.0
  0
VERTEX
  5
76
  8
PAGE_2
 10
1554.403448278915
 20
1493.594154489134
 30
0.0
  0
VERTEX
  5
77
  8
PAGE_2
 10
1554.455719593069
 20
1493.402773093751
 30
0.0
  0
VERTEX
  5
78
  8
PAGE_2
 10
1554.499042099444
 20
1493.207730100163
 30
0.0
  0
VERTEX
  5
79
  8
PAGE_2
 10
1554.533168267928
 20
1493.009284471891
 30
0.0
  0
VERTEX
  5
7A
  8
PAGE_2
 10
1554.557850568411
 20
1492.807695172456
 30
0.0
  0
VERTEX
  5
7B
  8
PAGE_2
 10
1554.572841470782
 20
1492.603221165379
 30
0.0
  0
VERTEX
  5
7C
  8
PAGE_2
 10
1554.57789344493
 20
1492.396121414183
 30
0.0
  0
VERTEX
  5
7D
  8
PAGE_2
 10
1554.57789344493
 20
1411.57684919196
 30
0.0
  0
VERTEX
  5
7E
  8
PAGE_2
 10
1554.572841470782
 20
1411.369749440764
 30
0.0
  0
VERTEX
  5
7F
  8
PAGE_2
 10
1554.557850568411
 20
1411.165275433687
 30
0.0
  0
VERTEX
  5
80
  8
PAGE_2
 10
1554.533168267928
 20
1410.963686134252
 30
0.0
  0
VERTEX
  5
81
  8
PAGE_2
 10
1554.499042099444
 20
1410.76524050598
 30
0.0
  0
VERTEX
  5
82
  8
PAGE_2
 10
1554.455719593069
 20
1410.570197512392
 30
0.0
  0
VERTEX
  5
83
  8
PAGE_2
 10
1554.403448278915
 20
1410.378816117009
 30
0.0
  0
VERTEX
  5
84
  8
PAGE_2
 10
1554.342475687091
 20
1410.191355283354
 30
0.0
  0
VERTEX
  5
85
  8
PAGE_2
 10
1554.273049347708
 20
1410.008073974946
 30
0.0
  0
VERTEX
  5
86
  8
PAGE_2
 10
1554.195416790878
 20
1409.829231155309
 30
0.0
  0
VERTEX
  5
87
  8
PAGE_2
 10
1554.10982554671
 20
1409.655085787962
 30
0.0
  0
VERTEX
  5
88
  8
PAGE_2
 10
1554.016523145315
 20
1409.485896836427
 30
0.0
  0
VERTEX
  5
89
  8
PAGE_2
 10
1553.915757116805
 20
1409.321923264226
 30
0.0
  0
VERTEX
  5
8A
  8
PAGE_2
 10
1553.80777499129
 20
1409.163424034879
 30
0.0
  0
VERTEX
  5
8B
  8
PAGE_2
 10
1553.69282429888
 20
1409.010658111909
 30
0.0
  0
VERTEX
  5
8C
  8
PAGE_2
 10
1553.571152569686
 20
1408.863884458837
 30
0.0
  0
VERTEX
  5
8D
  8
PAGE_2
 10
1553.443007333819
 20
1408.723362039183
 30
0.0
  0
VERTEX
  5
8E
  8
PAGE_2
 10
1553.30863612139
 20
1408.589349816469
 30
0.0
  0
VERTEX
  5
8F
  8
PAGE_2
 10
1553.168286462508
 20
1408.462106754216
 30
0.0
  0
VERTEX
  5
90
  8
PAGE_2
 10
1553.022205887286
 20
1408.341891815946
 30
0.0
  0
VERTEX
  5
91
  8
PAGE_2
 10
1552.870641925833
 20
1408.228963965181
 30
0.0
  0
VERTEX
  5
92
  8
PAGE_2
 10
1552.71384210826
 20
1408.12358216544
 30
0.0
  0
VERTEX
  5
93
  8
PAGE_2
 10
1552.552053964679
 20
1408.026005380247
 30
0.0
  0
VERTEX
  5
94
  8
PAGE_2
 10
1552.385525025198
 20
1407.936492573122
 30
0.0
  0
VERTEX
  5
95
  8
PAGE_2
 10
1552.21450281993
 20
1407.855302707585
 30
0.0
  0
VERTEX
  5
96
  8
PAGE_2
 10
1552.039234878985
 20
1407.78269474716
 30
0.0
  0
VERTEX
  5
97
  8
PAGE_2
 10
1551.859968732474
 20
1407.718927655366
 30
0.0
  0
VERTEX
  5
98
  8
PAGE_2
 10
1551.676951910506
 20
1407.664260395726
 30
0.0
  0
VERTEX
  5
99
  8
PAGE_2
 10
1551.490431943194
 20
1407.618951931761
 30
0.0
  0
VERTEX
  5
9A
  8
PAGE_2
 10
1551.300656360647
 20
1407.583261226991
 30
0.0
  0
VERTEX
  5
9B
  8
PAGE_2
 10
1551.107872692977
 20
1407.557447244939
 30
0.0
  0
VERTEX
  5
9C
  8
PAGE_2
 10
1550.912328470294
 20
1407.541768949125
 30
0.0
  0
VERTEX
  5
9D
  8
PAGE_2
 10
1550.714271222708
 20
1407.536485303071
 30
0.0
  0
VERTEX
  5
9E
  8
PAGE_2
 10
1456.841162889375
 20
1407.536485303071
 30
0.0
  0
VERTEX
  5
9F
  8
PAGE_2
 10
1456.643137691943
 20
1407.541768949125
 30
0.0
  0
VERTEX
  5
A0
  8
PAGE_2
 10
1456.447623516952
 20
1407.557447244939
 30
0.0
  0
VERTEX
  5
A1
  8
PAGE_2
 10
1456.254867959107
 20
1407.583261226991
 30
0.0
  0
VERTEX
  5
A2
  8
PAGE_2
 10
1456.065118613116
 20
1407.618951931761
 30
0.0
  0
VERTEX
  5
A3
  8
PAGE_2
 10
1455.878623073684
 20
1407.664260395726
 30
0.0
  0
VERTEX
  5
A4
  8
PAGE_2
 10
1455.695628935517
 20
1407.718927655366
 30
0.0
  0
VERTEX
  5
A5
  8
PAGE_2
 10
1455.516383793322
 20
1407.78269474716
 30
0.0
  0
VERTEX
  5
A6
  8
PAGE_2
 10
1455.341135241805
 20
1407.855302707585
 30
0.0
  0
VERTEX
  5
A7
  8
PAGE_2
 10
1455.170130875672
 20
1407.936492573122
 30
0.0
  0
VERTEX
  5
A8
  8
PAGE_2
 10
1455.00361828963
 20
1408.026005380247
 30
0.0
  0
VERTEX
  5
A9
  8
PAGE_2
 10
1454.841845078383
 20
1408.12358216544
 30
0.0
  0
VERTEX
  5
AA
  8
PAGE_2
 10
1454.68505883664
 20
1408.228963965181
 30
0.0
  0
VERTEX
  5
AB
  8
PAGE_2
 10
1454.533507159106
 20
1408.341891815946
 30
0.0
  0
VERTEX
  5
AC
  8
PAGE_2
 10
1454.387437640487
 20
1408.462106754216
 30
0.0
  0
VERTEX
  5
AD
  8
PAGE_2
 10
1454.247097875489
 20
1408.589349816469
 30
0.0
  0
VERTEX
  5
AE
  8
PAGE_2
 10
1454.112735458819
 20
1408.723362039183
 30
0.0
  0
VERTEX
  5
AF
  8
PAGE_2
 10
1453.984597985183
 20
1408.863884458837
 30
0.0
  0
VERTEX
  5
B0
  8
PAGE_2
 10
1453.862933049287
 20
1409.010658111909
 30
0.0
  0
VERTEX
  5
B1
  8
PAGE_2
 10
1453.747988245837
 20
1409.163424034879
 30
0.0
  0
VERTEX
  5
B2
  8
PAGE_2
 10
1453.64001116954
 20
1409.321923264226
 30
0.0
  0
VERTEX
  5
B3
  8
PAGE_2
 10
1453.539249415101
 20
1409.485896836427
 30
0.0
  0
VERTEX
  5
B4
  8
PAGE_2
 10
1453.445950577227
 20
1409.655085787962
 30
0.0
  0
VERTEX
  5
B5
  8
PAGE_2
 10
1453.360362250625
 20
1409.829231155309
 30
0.0
  0
VERTEX
  5
B6
  8
PAGE_2
 10
1453.28273203
 20
1410.008073974946
 30
0.0
  0
VERTEX
  5
B7
  8
PAGE_2
 10
1453.213307510058
 20
1410.191355283354
 30
0.0
  0
VERTEX
  5
B8
  8
PAGE_2
 10
1453.152336285506
 20
1410.378816117009
 30
0.0
  0
VERTEX
  5
B9
  8
PAGE_2
 10
1453.100065951051
 20
1410.570197512392
 30
0.0
  0
VERTEX
  5
BA
  8
PAGE_2
 10
1453.056744101397
 20
1410.76524050598
 30
0.0
  0
VERTEX
  5
BB
  8
PAGE_2
 10
1453.022618331252
 20
1410.963686134252
 30
0.0
  0
VERTEX
  5
BC
  8
PAGE_2
 10
1452.997936235322
 20
1411.165275433687
 30
0.0
  0
VERTEX
  5
BD
  8
PAGE_2
 10
1452.982945408313
 20
1411.369749440764
 30
0.0
  0
VERTEX
  5
BE
  8
PAGE_2
 10
1452.97789344493
 20
1411.57684919196
 30
0.0
  0
VERTEX
  5
BF
  8
PAGE_2
 10
1452.97789344493
 20
1492.396121414183
 30
0.0
  0
VERTEX
  5
C0
  8
PAGE_2
 10
1452.982945408313
 20
1492.603221165379
 30
0.0
  0
VERTEX
  5
C1
  8
PAGE_2
 10
1452.997936235322
 20
1492.807695172456
 30
0.0
  0
VERTEX
  5
C2
  8
PAGE_2
 10
1453.022618331252
 20
1493.009284471891
 30
0.0
  0
VERTEX
  5
C3
  8
PAGE_2
 10
1453.056744101397
 20
1493.207730100163
 30
0.0
  0
VERTEX
  5
C4
  8
PAGE_2
 10
1453.100065951051
 20
1493.402773093751
 30
0.0
  0
VERTEX
  5
C5
  8
PAGE_2
 10
1453.152336285506
 20
1493.594154489134
 30
0.0
  0
VERTEX
  5
C6
  8
PAGE_2
 10
1453.213307510058
 20
1493.781615322789
 30
0.0
  0
VERTEX
  5
C7
  8
PAGE_2
 10
1453.28273203
 20
1493.964896631197
 30
0.0
  0
VERTEX
  5
C8
  8
PAGE_2
 10
1453.360362250625
 20
1494.143739450834
 30
0.0
  0
VERTEX
  5
C9
  8
PAGE_2
 10
1453.445950577227
 20
1494.317884818181
 30
0.0
  0
VERTEX
  5
CA
  8
PAGE_2
 10
1453.539249415101
 20
1494.487073769716
 30
0.0
  0
VERTEX
  5
CB
  8
PAGE_2
 10
1453.64001116954
 20
1494.651047341917
 30
0.0
  0
VERTEX
  5
CC
  8
PAGE_2
 10
1453.747988245837
 20
1494.809546571264
 30
0.0
  0
VERTEX
  5
CD
  8
PAGE_2
 10
1453.862933049287
 20
1494.962312494234
 30
0.0
  0
VERTEX
  5
CE
  8
PAGE_2
 10
1453.984597985183
 20
1495.109086147306
 30
0.0
  0
VERTEX
  5
CF
  8
PAGE_2
 10
1454.112735458819
 20
1495.24960856696
 30
0.0
  0
VERTEX
  5
D0
  8
PAGE_2
 10
1454.247097875489
 20
1495.383620789674
 30
0.0
  0
VERTEX
  5
D1
  8
PAGE_2
 10
1454.387437640487
 20
1495.510863851927
 30
0.0
  0
VERTEX
  5
D2
  8
PAGE_2
 10
1454.533507159106
 20
1495.631078790197
 30
0.0
  0
VERTEX
  5
D3
  8
PAGE_2
 10
1454.68505883664
 20
1495.744006640962
 30
0.0
  0
VERTEX
  5
D4
  8
PAGE_2
 10
1454.841845078383
 20
1495.849388440703
 30
0.0
  0
VERTEX
  5
D5
  8
PAGE_2
 10
1455.00361828963
 20
1495.946965225896
 30
0.0
  0
VERTEX
  5
D6
  8
PAGE_2
 10
1455.170130875672
 20
1496.036478033021
 30
0.0
  0
VERTEX
  5
D7
  8
PAGE_2
 10
1455.341135241805
 20
1496.117667898558
 30
0.0
  0
VERTEX
  5
D8
  8
PAGE_2
 10
1455.516383793322
 20
1496.190275858983
 30
0.0
  0
VERTEX
  5
D9
  8
PAGE_2
 10
1455.695628935517
 20
1496.254042950777
 30
0.0
  0
VERTEX
  5
DA
  8
PAGE_2
 10
1455.878623073684
 20
1496.308710210417
 30
0.0
  0
VERTEX
  5
DB
  8
PAGE_2
 10
1456.065118613116
 20
1496.354018674382
 30
0.0
  0
VERTEX
  5
DC
  8
PAGE_2
 10
1456.254867959107
 20
1496.389709379152
 30
0.0
  0
VERTEX
  5
DD
  8
PAGE_2
 10
1456.447623516952
 20
1496.415523361204
 30
0.0
  0
VERTEX
  5
DE
  8
PAGE_2
 10
1456.643137691943
 20
1496.431201657018
 30
0.0
  0
SEQEND
  5
DF
  8
PAGE_2
  0
POLYLINE
  5
42
  8
PAGE_2
 66
     1
 10
0.0
 20
0.0
 30
0.0
 70
     1
  0
VERTEX
  5
E0
  8
PAGE_2
 10
1519.360087889375
 20
1450.307615858627
 30
0.0
  0
VERTEX
  5
E1
  8
PAGE_2
 10
1519.523455501578
 20
1450.303484004888
 30
0.0
  0
VERTEX
  5
E2
  8
PAGE_2
 10
1519.684680479707
 20
1450.291221510483
 30
0.0
  0
VERTEX
  5
E3
  8
PAGE_2
 10
1519.843563223542
 20
1450.271027975632
 30
0.0
  0
VERTEX
  5
E4
  8
PAGE_2
 10
1519.999904132864
 20
1450.243103000554
 30
0.0
  0
VERTEX
  5
E5
  8
PAGE_2
 10
1520.153503607453
 20
1450.20764618547
 30
0.0
  0
VERTEX
  5
E6
  8
PAGE_2
 10
1520.304162047089
 20
1450.1648571306
 30
0.0
  0
VERTEX
  5
E7
  8
PAGE_2
 10
1520.451679851553
 20
1450.114935436162
 30
0.0
  0
VERTEX
  5
E8
  8
PAGE_2
 10
1520.595857420624
 20
1450.058080702377
 30
0.0
  0
VERTEX
  5
E9
  8
PAGE_2
 10
1520.873393451712
 20
1449.924370517644
 30
0.0
  0
VERTEX
  5
EA
  8
PAGE_2
 10
1521.135173338593
 20
1449.765323378158
 30
0.0
  0
VERTEX
  5
EB
  8
PAGE_2
 10
1521.379600279511
 20
1449.582536085678
 30
0.0
  0
VERTEX
  5
EC
  8
PAGE_2
 10
1521.605077472708
 20
1449.37760544196
 30
0.0
  0
VERTEX
  5
ED
  8
PAGE_2
 10
1521.810008116425
 20
1449.152128248764
 30
0.0
  0
VERTEX
  5
EE
  8
PAGE_2
 10
1521.992795408906
 20
1448.907701307846
 30
0.0
  0
VERTEX
  5
EF
  8
PAGE_2
 10
1522.151842548391
 20
1448.645921420964
 30
0.0
  0
VERTEX
  5
F0
  8
PAGE_2
 10
1522.221964560212
 20
1448.509023123337
 30
0.0
  0
VERTEX
  5
F1
  8
PAGE_2
 10
1522.285552733124
 20
1448.368385389877
 30
0.0
  0
VERTEX
  5
F2
  8
PAGE_2
 10
1522.342407466909
 20
1448.224207820806
 30
0.0
  0
VERTEX
  5
F3
  8
PAGE_2
 10
1522.392329161347
 20
1448.076690016342
 30
0.0
  0
VERTEX
  5
F4
  8
PAGE_2
 10
1522.435118216218
 20
1447.926031576706
 30
0.0
  0
VERTEX
  5
F5
  8
PAGE_2
 10
1522.470575031301
 20
1447.772432102117
 30
0.0
  0
VERTEX
  5
F6
  8
PAGE_2
 10
1522.498500006379
 20
1447.616091192795
 30
0.0
  0
VERTEX
  5
F7
  8
PAGE_2
 10
1522.51869354123
 20
1447.457208448959
 30
0.0
  0
VERTEX
  5
F8
  8
PAGE_2
 10
1522.530956035635
 20
1447.29598347083
 30
0.0
  0
VERTEX
  5
F9
  8
PAGE_2
 10
1522.535087889375
 20
1447.132615858627
 30
0.0
  0
VERTEX
  5
FA
  8
PAGE_2
 10
1522.530956035635
 20
1446.969279284581
 30
0.0
  0
VERTEX
  5
FB
  8
PAGE_2
 10
1522.51869354123
 20
1446.808081404281
 30
0.0
  0
VERTEX
  5
FC
  8
PAGE_2
 10
1522.498500006379
 20
1446.649222011734
 30
0.0
  0
VERTEX
  5
FD
  8
PAGE_2
 10
1522.470575031301
 20
1446.492900900945
 30
0.0
  0
VERTEX
  5
FE
  8
PAGE_2
 10
1522.435118216218
 20
1446.339317865921
 30
0.0
  0
VERTEX
  5
FF
  8
PAGE_2
 10
1522.392329161347
 20
1446.188672700668
 30
0.0
  0
VERTEX
  5
100
  8
PAGE_2
 10
1522.342407466909
 20
1446.041165199193
 30
0.0
  0
VERTEX
  5
101
  8
PAGE_2
 10
1522.285552733124
 20
1445.896995155502
 30
0.0
  0
VERTEX
  5
102
  8
PAGE_2
 10
1522.151842548391
 20
1445.619466617498
 30
0.0
  0
VERTEX
  5
103
  8
PAGE_2
 10
1521.992795408906
 20
1445.357685438705
 30
0.0
  0
VERTEX
  5
104
  8
PAGE_2
 10
1521.810008116425
 20
1445.113249971176
 30
0.0
  0
VERTEX
  5
105
  8
PAGE_2
 10
1521.605077472708
 20
1444.88775856696
 30
0.0
  0
VERTEX
  5
106
  8
PAGE_2
 10
1521.379600279511
 20
1444.682809578109
 30
0.0
  0
VERTEX
  5
107
  8
PAGE_2
 10
1521.135173338593
 20
1444.500001356674
 30
0.0
  0
VERTEX
  5
108
  8
PAGE_2
 10
1520.873393451712
 20
1444.340932254705
 30
0.0
  0
VERTEX
  5
109
  8
PAGE_2
 10
1520.736495154084
 20
1444.270799358535
 30
0.0
  0
VERTEX
  5
10A
  8
PAGE_2
 10
1520.595857420624
 20
1444.207200624252
 30
0.0
  0
VERTEX
  5
10B
  8
PAGE_2
 10
1520.451679851553
 20
1444.15033584586
 30
0.0
  0
VERTEX
  5
10C
  8
PAGE_2
 10
1520.304162047089
 20
1444.100404817367
 30
0.0
  0
VERTEX
  5
10D
  8
PAGE_2
 10
1520.153503607453
 20
1444.057607332778
 30
0.0
  0
VERTEX
  5
10E
  8
PAGE_2
 10
1519.999904132864
 20
1444.022143186101
 30
0.0
  0
VERTEX
  5
10F
  8
PAGE_2
 10
1519.843563223542
 20
1443.994212171341
 30
0.0
  0
VERTEX
  5
110
  8
PAGE_2
 10
1519.684680479707
 20
1443.974014082504
 30
0.0
  0
VERTEX
  5
111
  8
PAGE_2
 10
1519.523455501578
 20
1443.961748713597
 30
0.0
  0
VERTEX
  5
112
  8
PAGE_2
 10
1519.360087889375
 20
1443.957615858627
 30
0.0
  0
VERTEX
  5
113
  8
PAGE_2
 10
1519.196720277172
 20
1443.961748713597
 30
0.0
  0
VERTEX
  5
114
  8
PAGE_2
 10
1519.035495299043
 20
1443.974014082504
 30
0.0
  0
VERTEX
  5
115
  8
PAGE_2
 10
1518.876612555207
 20
1443.994212171341
 30
0.0
  0
VERTEX
  5
116
  8
PAGE_2
 10
1518.720271645885
 20
1444.022143186101
 30
0.0
  0
VERTEX
  5
117
  8
PAGE_2
 10
1518.566672171296
 20
1444.057607332778
 30
0.0
  0
VERTEX
  5
118
  8
PAGE_2
 10
1518.41601373166
 20
1444.100404817367
 30
0.0
  0
VERTEX
  5
119
  8
PAGE_2
 10
1518.268495927196
 20
1444.15033584586
 30
0.0
  0
VERTEX
  5
11A
  8
PAGE_2
 10
1518.124318358125
 20
1444.207200624252
 30
0.0
  0
VERTEX
  5
11B
  8
PAGE_2
 10
1517.846782327038
 20
1444.340932254705
 30
0.0
  0
VERTEX
  5
11C
  8
PAGE_2
 10
1517.585002440156
 20
1444.500001356674
 30
0.0
  0
VERTEX
  5
11D
  8
PAGE_2
 10
1517.340575499238
 20
1444.682809578109
 30
0.0
  0
VERTEX
  5
11E
  8
PAGE_2
 10
1517.115098306041
 20
1444.88775856696
 30
0.0
  0
VERTEX
  5
11F
  8
PAGE_2
 10
1516.910167662324
 20
1445.113249971176
 30
0.0
  0
VERTEX
  5
120
  8
PAGE_2
 10
1516.727380369844
 20
1445.357685438705
 30
0.0
  0
VERTEX
  5
121
  8
PAGE_2
 10
1516.568333230358
 20
1445.619466617498
 30
0.0
  0
VERTEX
  5
122
  8
PAGE_2
 10
1516.498211218537
 20
1445.756362363602
 30
0.0
  0
VERTEX
  5
123
  8
PAGE_2
 10
1516.434623045625
 20
1445.896995155502
 30
0.0
  0
VERTEX
  5
124
  8
PAGE_2
 10
1516.37776831184
 20
1446.041165199193
 30
0.0
  0
VERTEX
  5
125
  8
PAGE_2
 10
1516.327846617402
 20
1446.188672700668
 30
0.0
  0
VERTEX
  5
126
  8
PAGE_2
 10
1516.285057562532
 20
1446.339317865921
 30
0.0
  0
VERTEX
  5
127
  8
PAGE_2
 10
1516.249600747448
 20
1446.492900900945
 30
0.0
  0
VERTEX
  5
128
  8
PAGE_2
 10
1516.22167577237
 20
1446.649222011734
 30
0.0
  0
VERTEX
  5
129
  8
PAGE_2
 10
1516.201482237519
 20
1446.808081404281
 30
0.0
  0
VERTEX
  5
12A
  8
PAGE_2
 10
1516.189219743114
 20
1446.969279284581
 30
0.0
  0
VERTEX
  5
12B
  8
PAGE_2
 10
1516.185087889375
 20
1447.132615858627
 30
0.0
  0
VERTEX
  5
12C
  8
PAGE_2
 10
1516.189219743114
 20
1447.29598347083
 30
0.0
  0
VERTEX
  5
12D
  8
PAGE_2
 10
1516.201482237519
 20
1447.457208448959
 30
0.0
  0
VERTEX
  5
12E
  8
PAGE_2
 10
1516.22167577237
 20
1447.616091192795
 30
0.0
  0
VERTEX
  5
12F
  8
PAGE_2
 10
1516.249600747448
 20
1447.772432102117
 30
0.0
  0
VERTEX
  5
130
  8
PAGE_2
 10
1516.285057562532
 20
1447.926031576706
 30
0.0
  0
VERTEX
  5
131
  8
PAGE_2
 10
1516.327846617402
 20
1448.076690016342
 30
0.0
  0
VERTEX
  5
132
  8
PAGE_2
 10
1516.37776831184
 20
1448.224207820806
 30
0.0
  0
VERTEX
  5
133
  8
PAGE_2
 10
1516.434623045625
 20
1448.368385389877
 30
0.0
  0
VERTEX
  5
134
  8
PAGE_2
 10
1516.568333230358
 20
1448.645921420964
 30
0.0
  0
VERTEX
  5
135
  8
PAGE_2
 10
1516.727380369844
 20
1448.907701307846
 30
0.0
  0
VERTEX
  5
136
  8
PAGE_2
 10
1516.910167662324
 20
1449.152128248764
 30
0.0
  0
VERTEX
  5
137
  8
PAGE_2
 10
1517.115098306041
 20
1449.37760544196
 30
0.0
  0
VERTEX
  5
138
  8
PAGE_2
 10
1517.340575499238
 20
1449.582536085678
 30
0.0
  0
VERTEX
  5
139
  8
PAGE_2
 10
1517.585002440156
 20
1449.765323378158
 30
0.0
  0
VERTEX
  5
13A
  8
PAGE_2
 10
1517.846782327038
 20
1449.924370517644
 30
0.0
  0
VERTEX
  5
13B
  8
PAGE_2
 10
1517.983680624665
 20
1449.994492529465
 30
0.0
  0
VERTEX
  5
13C
  8
PAGE_2
 10
1518.124318358125
 20
1450.058080702377
 30
0.0
  0
VERTEX
  5
13D
  8
PAGE_2
 10
1518.268495927196
 20
1450.114935436162
 30
0.0
  0
VERTEX
  5
13E
  8
PAGE_2
 10
1518.41601373166
 20
1450.1648571306
 30
0.0
  0
VERTEX
  5
13F
  8
PAGE_2
 10
1518.566672171296
 20
1450.20764618547
 30
0.0
  0
VERTEX
  5
140
  8
PAGE_2
 10
1518.720271645885
 20
1450.243103000554
 30
0.0
  0
VERTEX
  5
141
  8
PAGE_2
 10
1518.876612555207
 20
1450.271027975632
 30
0.0
  0
VERTEX
  5
142
  8
PAGE_2
 10
1519.035495299043
 20
1450.291221510483
 30
0.0
  0
VERTEX
  5
143
  8
PAGE_2
 10
1519.196720277172
 20
1450.303484004888
 30
0.0
  0
SEQEND
  5
144
  8
PAGE_2
  0
POLYLINE
  5
43
  8
PAGE_2
 66
     1
 10
0.0
 20
0.0
 30
0.0
 70
     1
  0
VERTEX
  5
145
  8
PAGE_2
 10
1499.539974000486
 20
1434.673563080849
 30
0.0
  0
VERTEX
  5
146
  8
PAGE_2
 10
1499.269283804766
 20
1434.912131292383
 30
0.0
  0
VERTEX
  5
147
  8
PAGE_2
 10
1499.011776783689
 20
1435.164686247082
 30
0.0
  0
VERTEX
  5
148
  8
PAGE_2
 10
1498.768043598874
 20
1435.430637800087
 30
0.0
  0
VERTEX
  5
149
  8
PAGE_2
 10
1498.538674911944
 20
1435.709395806544
 30
0.0
  0
VERTEX
  5
14A
  8
PAGE_2
 10
1498.324261384519
 20
1436.000370121593
 30
0.0
  0
VERTEX
  5
14B
  8
PAGE_2
 10
1498.12539367822
 20
1436.30297060038
 30
0.0
  0
VERTEX
  5
14C
  8
PAGE_2
 10
1497.942662454669
 20
1436.616607098048
 30
0.0
  0
VERTEX
  5
14D
  8
PAGE_2
 10
1497.776658375486
 20
1436.940689469738
 30
0.0
  0
VERTEX
  5
14E
  8
PAGE_2
 10
1497.627972102292
 20
1437.274627570595
 30
0.0
  0
VERTEX
  5
14F
  8
PAGE_2
 10
1497.497194296709
 20
1437.617831255763
 30
0.0
  0
VERTEX
  5
150
  8
PAGE_2
 10
1497.384915620359
 20
1437.969710380383
 30
0.0
  0
VERTEX
  5
151
  8
PAGE_2
 10
1497.291726734861
 20
1438.329674799599
 30
0.0
  0
VERTEX
  5
152
  8
PAGE_2
 10
1497.218218301837
 20
1438.697134368555
 30
0.0
  0
VERTEX
  5
153
  8
PAGE_2
 10
1497.164980982908
 20
1439.071498942395
 30
0.0
  0
VERTEX
  5
154
  8
PAGE_2
 10
1497.132605439695
 20
1439.452178376259
 30
0.0
  0
VERTEX
  5
155
  8
PAGE_2
 10
1497.121682333819
 20
1439.838582525294
 30
0.0
  0
VERTEX
  5
156
  8
PAGE_2
 10
1497.130438130125
 20
1440.18468003684
 30
0.0
  0
VERTEX
  5
157
  8
PAGE_2
 10
1497.15642336572
 20
1440.526241068181
 30
0.0
  0
VERTEX
  5
158
  8
PAGE_2
 10
1497.199214810626
 20
1440.862842583125
 30
0.0
  0
VERTEX
  5
159
  8
PAGE_2
 10
1497.258389234861
 20
1441.194061545476
 30
0.0
  0
VERTEX
  5
15A
  8
PAGE_2
 10
1497.333523408445
 20
1441.519474919042
 30
0.0
  0
VERTEX
  5
15B
  8
PAGE_2
 10
1497.424194101397
 20
1441.838659667628
 30
0.0
  0
VERTEX
  5
15C
  8
PAGE_2
 10
1497.529978083738
 20
1442.15119275504
 30
0.0
  0
VERTEX
  5
15D
  8
PAGE_2
 10
1497.650452125486
 20
1442.456651145086
 30
0.0
  0
VERTEX
  5
15E
  8
PAGE_2
 10
1497.785192996661
 20
1442.75461180157
 30
0.0
  0
VERTEX
  5
15F
  8
PAGE_2
 10
1497.933777467283
 20
1443.044651688298
 30
0.0
  0
VERTEX
  5
160
  8
PAGE_2
 10
1498.09578230737
 20
1443.326347769078
 30
0.0
  0
VERTEX
  5
161
  8
PAGE_2
 10
1498.270784286944
 20
1443.599277007716
 30
0.0
  0
VERTEX
  5
162
  8
PAGE_2
 10
1498.458360176023
 20
1443.863016368017
 30
0.0
  0
VERTEX
  5
163
  8
PAGE_2
 10
1498.658086744626
 20
1444.117142813787
 30
0.0
  0
VERTEX
  5
164
  8
PAGE_2
 10
1498.869540762774
 20
1444.361233308833
 30
0.0
  0
VERTEX
  5
165
  8
PAGE_2
 10
1499.092299000486
 20
1444.594864816961
 30
0.0
  0
VERTEX
  5
166
  8
PAGE_2
 10
1499.32593822778
 20
1444.817614301976
 30
0.0
  0
VERTEX
  5
167
  8
PAGE_2
 10
1499.570035214678
 20
1445.029058727686
 30
0.0
  0
VERTEX
  5
168
  8
PAGE_2
 10
1499.824166731198
 20
1445.228775057897
 30
0.0
  0
VERTEX
  5
169
  8
PAGE_2
 10
1500.087909547361
 20
1445.416340256414
 30
0.0
  0
VERTEX
  5
16A
  8
PAGE_2
 10
1500.360840433184
 20
1445.591331287043
 30
0.0
  0
VERTEX
  5
16B
  8
PAGE_2
 10
1500.642536158689
 20
1445.753325113591
 30
0.0
  0
VERTEX
  5
16C
  8
PAGE_2
 10
1500.932573493894
 20
1445.901898699865
 30
0.0
  0
VERTEX
  5
16D
  8
PAGE_2
 10
1501.230529208819
 20
1446.036629009669
 30
0.0
  0
VERTEX
  5
16E
  8
PAGE_2
 10
1501.535980073484
 20
1446.15709300681
 30
0.0
  0
VERTEX
  5
16F
  8
PAGE_2
 10
1501.848502857908
 20
1446.262867655095
 30
0.0
  0
VERTEX
  5
170
  8
PAGE_2
 10
1502.16767433211
 20
1446.35352991833
 30
0.0
  0
VERTEX
  5
171
  8
PAGE_2
 10
1502.493071266111
 20
1446.42865676032
 30
0.0
  0
VERTEX
  5
172
  8
PAGE_2
 10
1502.824270429929
 20
1446.487825144872
 30
0.0
  0
VERTEX
  5
173
  8
PAGE_2
 10
1503.160848593585
 20
1446.530612035792
 30
0.0
  0
VERTEX
  5
174
  8
PAGE_2
 10
1503.502382527097
 20
1446.556594396886
 30
0.0
  0
VERTEX
  5
175
  8
PAGE_2
 10
1503.848449000486
 20
1446.56534919196
 30
0.0
  0
VERTEX
  5
176
  8
PAGE_2
 10
1504.194546512032
 20
1446.556594396886
 30
0.0
  0
VERTEX
  5
177
  8
PAGE_2
 10
1504.536107543373
 20
1446.530612035792
 30
0.0
  0
VERTEX
  5
178
  8
PAGE_2
 10
1504.872709058317
 20
1446.487825144872
 30
0.0
  0
VERTEX
  5
179
  8
PAGE_2
 10
1505.203928020668
 20
1446.42865676032
 30
0.0
  0
VERTEX
  5
17A
  8
PAGE_2
 10
1505.529341394234
 20
1446.35352991833
 30
0.0
  0
VERTEX
  5
17B
  8
PAGE_2
 10
1505.84852614282
 20
1446.262867655095
 30
0.0
  0
VERTEX
  5
17C
  8
PAGE_2
 10
1506.161059230232
 20
1446.15709300681
 30
0.0
  0
VERTEX
  5
17D
  8
PAGE_2
 10
1506.466517620277
 20
1446.036629009669
 30
0.0
  0
VERTEX
  5
17E
  8
PAGE_2
 10
1506.764478276761
 20
1445.901898699865
 30
0.0
  0
VERTEX
  5
17F
  8
PAGE_2
 10
1507.05451816349
 20
1445.753325113591
 30
0.0
  0
VERTEX
  5
180
  8
PAGE_2
 10
1507.33621424427
 20
1445.591331287043
 30
0.0
  0
VERTEX
  5
181
  8
PAGE_2
 10
1507.609143482908
 20
1445.416340256414
 30
0.0
  0
VERTEX
  5
182
  8
PAGE_2
 10
1507.872882843208
 20
1445.228775057897
 30
0.0
  0
VERTEX
  5
183
  8
PAGE_2
 10
1508.127009288979
 20
1445.029058727686
 30
0.0
  0
VERTEX
  5
184
  8
PAGE_2
 10
1508.371099784024
 20
1444.817614301976
 30
0.0
  0
VERTEX
  5
185
  8
PAGE_2
 10
1508.604731292152
 20
1444.594864816961
 30
0.0
  0
VERTEX
  5
186
  8
PAGE_2
 10
1508.827480777168
 20
1444.361233308833
 30
0.0
  0
VERTEX
  5
187
  8
PAGE_2
 10
1509.038925202878
 20
1444.117142813787
 30
0.0
  0
VERTEX
  5
188
  8
PAGE_2
 10
1509.238641533088
 20
1443.863016368017
 30
0.0
  0
VERTEX
  5
189
  8
PAGE_2
 10
1509.426206731605
 20
1443.599277007716
 30
0.0
  0
VERTEX
  5
18A
  8
PAGE_2
 10
1509.601197762235
 20
1443.326347769078
 30
0.0
  0
VERTEX
  5
18B
  8
PAGE_2
 10
1509.763191588783
 20
1443.044651688298
 30
0.0
  0
VERTEX
  5
18C
  8
PAGE_2
 10
1509.911765175056
 20
1442.75461180157
 30
0.0
  0
VERTEX
  5
18D
  8
PAGE_2
 10
1510.046495484861
 20
1442.456651145086
 30
0.0
  0
VERTEX
  5
18E
  8
PAGE_2
 10
1510.166959482002
 20
1442.15119275504
 30
0.0
  0
VERTEX
  5
18F
  8
PAGE_2
 10
1510.272734130287
 20
1441.838659667628
 30
0.0
  0
VERTEX
  5
190
  8
PAGE_2
 10
1510.363396393522
 20
1441.519474919042
 30
0.0
  0
VERTEX
  5
191
  8
PAGE_2
 10
1510.438523235512
 20
1441.194061545476
 30
0.0
  0
VERTEX
  5
192
  8
PAGE_2
 10
1510.497691620064
 20
1440.862842583125
 30
0.0
  0
VERTEX
  5
193
  8
PAGE_2
 10
1510.540478510984
 20
1440.526241068181
 30
0.0
  0
VERTEX
  5
194
  8
PAGE_2
 10
1510.566460872078
 20
1440.18468003684
 30
0.0
  0
VERTEX
  5
195
  8
PAGE_2
 10
1510.575215667152
 20
1439.838582525294
 30
0.0
  0
VERTEX
  5
196
  8
PAGE_2
 10
1510.564590475909
 20
1439.457465822684
 30
0.0
  0
VERTEX
  5
197
  8
PAGE_2
 10
1510.533093173663
 20
1439.081916222125
 30
0.0
  0
VERTEX
  5
198
  8
PAGE_2
 10
1510.481291167641
 20
1438.712498547022
 30
0.0
  0
VERTEX
  5
199
  8
PAGE_2
 10
1510.409751865069
 20
1438.34977762078
 30
0.0
  0
VERTEX
  5
19A
  8
PAGE_2
 10
1510.319042673174
 20
1437.994318266803
 30
0.0
  0
VERTEX
  5
19B
  8
PAGE_2
 10
1510.209730999184
 20
1437.646685308497
 30
0.0
  0
VERTEX
  5
19C
  8
PAGE_2
 10
1510.082384250323
 20
1437.307443569266
 30
0.0
  0
VERTEX
  5
19D
  8
PAGE_2
 10
1509.937569833819
 20
1436.977157872516
 30
0.0
  0
VERTEX
  5
19E
  8
PAGE_2
 10
1509.775855156899
 20
1436.656393041651
 30
0.0
  0
VERTEX
  5
19F
  8
PAGE_2
 10
1509.597807626788
 20
1436.345713900077
 30
0.0
  0
VERTEX
  5
1A0
  8
PAGE_2
 10
1509.403994650714
 20
1436.045685271198
 30
0.0
  0
VERTEX
  5
1A1
  8
PAGE_2
 10
1509.194983635902
 20
1435.756871978419
 30
0.0
  0
VERTEX
  5
1A2
  8
PAGE_2
 10
1508.971341989581
 20
1435.479838845145
 30
0.0
  0
VERTEX
  5
1A3
  8
PAGE_2
 10
1508.733637118975
 20
1435.215150694782
 30
0.0
  0
VERTEX
  5
1A4
  8
PAGE_2
 10
1508.482436431313
 20
1434.963372350733
 30
0.0
  0
VERTEX
  5
1A5
  8
PAGE_2
 10
1508.218307333819
 20
1434.725068636405
 30
0.0
  0
VERTEX
  5
1A6
  8
PAGE_2
 10
1508.218307333819
 20
1419.70167419196
 30
0.0
  0
VERTEX
  5
1A7
  8
PAGE_2
 10
1499.539974000486
 20
1419.70167419196
 30
0.0
  0
SEQEND
  5
1A8
  8
PAGE_2
  0
POLYLINE
  5
44
  8
PAGE_2
 66
     1
 10
0.0
 20
0.0
 30
0.0
 70
     1
  0
VERTEX
  5
1A9
  8
PAGE_2
 10
1538.527210111597
 20
1491.883535303072
 30
0.0
  0
VERTEX
  5
1AA
  8
PAGE_2
 10
1538.690546685643
 20
1491.879402448101
 30
0.0
  0
VERTEX
  5
1AB
  8
PAGE_2
 10
1538.851744565943
 20
1491.867137079194
 30
0.0
  0
VERTEX
  5
1AC
  8
PAGE_2
 10
1539.01060395849
 20
1491.846938990358
 30
0.0
  0
VERTEX
  5
1AD
  8
PAGE_2
 10
1539.166925069279
 20
1491.819007975598
 30
0.0
  0
VERTEX
  5
1AE
  8
PAGE_2
 10
1539.320508104303
 20
1491.78354382892
 30
0.0
  0
VERTEX
  5
1AF
  8
PAGE_2
 10
1539.471153269556
 20
1491.740746344331
 30
0.0
  0
VERTEX
  5
1B0
  8
PAGE_2
 10
1539.618660771031
 20
1491.690815315838
 30
0.0
  0
VERTEX
  5
1B1
  8
PAGE_2
 10
1539.762830814722
 20
1491.633950537447
 30
0.0
  0
VERTEX
  5
1B2
  8
PAGE_2
 10
1540.040359352726
 20
1491.500218906994
 30
0.0
  0
VERTEX
  5
1B3
  8
PAGE_2
 10
1540.302140531519
 20
1491.341149805025
 30
0.0
  0
VERTEX
  5
1B4
  8
PAGE_2
 10
1540.546575999048
 20
1491.158341583589
 30
0.0
  0
VERTEX
  5
1B5
  8
PAGE_2
 10
1540.772067403263
 20
1490.953392594738
 30
0.0
  0
VERTEX
  5
1B6
  8
PAGE_2
 10
1540.977016392114
 20
1490.727901190523
 30
0.0
  0
VERTEX
  5
1B7
  8
PAGE_2
 10
1541.15982461355
 20
1490.483465722993
 30
0.0
  0
VERTEX
  5
1B8
  8
PAGE_2
 10
1541.31889371552
 20
1490.221684544201
 30
0.0
  0
VERTEX
  5
1B9
  8
PAGE_2
 10
1541.389026611689
 20
1490.084788798097
 30
0.0
  0
VERTEX
  5
1BA
  8
PAGE_2
 10
1541.452625345972
 20
1489.944156006196
 30
0.0
  0
VERTEX
  5
1BB
  8
PAGE_2
 10
1541.509490124364
 20
1489.799985962505
 30
0.0
  0
VERTEX
  5
1BC
  8
PAGE_2
 10
1541.559421152857
 20
1489.652478461031
 30
0.0
  0
VERTEX
  5
1BD
  8
PAGE_2
 10
1541.602218637445
 20
1489.501833295778
 30
0.0
  0
VERTEX
  5
1BE
  8
PAGE_2
 10
1541.637682784123
 20
1489.348250260754
 30
0.0
  0
VERTEX
  5
1BF
  8
PAGE_2
 10
1541.665613798883
 20
1489.191929149965
 30
0.0
  0
VERTEX
  5
1C0
  8
PAGE_2
 10
1541.68581188772
 20
1489.033069757417
 30
0.0
  0
VERTEX
  5
1C1
  8
PAGE_2
 10
1541.698077256627
 20
1488.871871877117
 30
0.0
  0
VERTEX
  5
1C2
  8
PAGE_2
 10
1541.702210111597
 20
1488.708535303072
 30
0.0
  0
VERTEX
  5
1C3
  8
PAGE_2
 10
1541.698077256627
 20
1488.545167690869
 30
0.0
  0
VERTEX
  5
1C4
  8
PAGE_2
 10
1541.68581188772
 20
1488.38394271274
 30
0.0
  0
VERTEX
  5
1C5
  8
PAGE_2
 10
1541.665613798883
 20
1488.225059968904
 30
0.0
  0
VERTEX
  5
1C6
  8
PAGE_2
 10
1541.637682784123
 20
1488.068719059582
 30
0.0
  0
VERTEX
  5
1C7
  8
PAGE_2
 10
1541.602218637445
 20
1487.915119584993
 30
0.0
  0
VERTEX
  5
1C8
  8
PAGE_2
 10
1541.559421152857
 20
1487.764461145357
 30
0.0
  0
VERTEX
  5
1C9
  8
PAGE_2
 10
1541.509490124364
 20
1487.616943340893
 30
0.0
  0
VERTEX
  5
1CA
  8
PAGE_2
 10
1541.452625345972
 20
1487.472765771822
 30
0.0
  0
VERTEX
  5
1CB
  8
PAGE_2
 10
1541.31889371552
 20
1487.195229740734
 30
0.0
  0
VERTEX
  5
1CC
  8
PAGE_2
 10
1541.15982461355
 20
1486.933449853853
 30
0.0
  0
VERTEX
  5
1CD
  8
PAGE_2
 10
1540.977016392114
 20
1486.689022912935
 30
0.0
  0
VERTEX
  5
1CE
  8
PAGE_2
 10
1540.772067403263
 20
1486.463545719738
 30
0.0
  0
VERTEX
  5
1CF
  8
PAGE_2
 10
1540.546575999048
 20
1486.258615076021
 30
0.0
  0
VERTEX
  5
1D0
  8
PAGE_2
 10
1540.302140531519
 20
1486.07582778354
 30
0.0
  0
VERTEX
  5
1D1
  8
PAGE_2
 10
1540.040359352726
 20
1485.916780644055
 30
0.0
  0
VERTEX
  5
1D2
  8
PAGE_2
 10
1539.903463606623
 20
1485.846658632234
 30
0.0
  0
VERTEX
  5
1D3
  8
PAGE_2
 10
1539.762830814722
 20
1485.783070459322
 30
0.0
  0
VERTEX
  5
1D4
  8
PAGE_2
 10
1539.618660771031
 20
1485.726215725537
 30
0.0
  0
VERTEX
  5
1D5
  8
PAGE_2
 10
1539.471153269556
 20
1485.676294031099
 30
0.0
  0
VERTEX
  5
1D6
  8
PAGE_2
 10
1539.320508104303
 20
1485.633504976228
 30
0.0
  0
VERTEX
  5
1D7
  8
PAGE_2
 10
1539.166925069279
 20
1485.598048161145
 30
0.0
  0
VERTEX
  5
1D8
  8
PAGE_2
 10
1539.01060395849
 20
1485.570123186067
 30
0.0
  0
VERTEX
  5
1D9
  8
PAGE_2
 10
1538.851744565943
 20
1485.549929651216
 30
0.0
  0
VERTEX
  5
1DA
  8
PAGE_2
 10
1538.690546685643
 20
1485.537667156811
 30
0.0
  0
VERTEX
  5
1DB
  8
PAGE_2
 10
1538.527210111597
 20
1485.533535303071
 30
0.0
  0
VERTEX
  5
1DC
  8
PAGE_2
 10
1538.363842499394
 20
1485.537667156811
 30
0.0
  0
VERTEX
  5
1DD
  8
PAGE_2
 10
1538.202617521265
 20
1485.549929651216
 30
0.0
  0
VERTEX
  5
1DE
  8
PAGE_2
 10
1538.043734777429
 20
1485.570123186067
 30
0.0
  0
VERTEX
  5
1DF
  8
PAGE_2
 10
1537.887393868107
 20
1485.598048161145
 30
0.0
  0
VERTEX
  5
1E0
  8
PAGE_2
 10
1537.733794393518
 20
1485.633504976228
 30
0.0
  0
VERTEX
  5
1E1
  8
PAGE_2
 10
1537.583135953882
 20
1485.676294031099
 30
0.0
  0
VERTEX
  5
1E2
  8
PAGE_2
 10
1537.435618149418
 20
1485.726215725537
 30
0.0
  0
VERTEX
  5
1E3
  8
PAGE_2
 10
1537.291440580347
 20
1485.783070459322
 30
0.0
  0
VERTEX
  5
1E4
  8
PAGE_2
 10
1537.01390454926
 20
1485.916780644055
 30
0.0
  0
VERTEX
  5
1E5
  8
PAGE_2
 10
1536.752124662378
 20
1486.07582778354
 30
0.0
  0
VERTEX
  5
1E6
  8
PAGE_2
 10
1536.50769772146
 20
1486.258615076021
 30
0.0
  0
VERTEX
  5
1E7
  8
PAGE_2
 10
1536.282220528263
 20
1486.463545719738
 30
0.0
  0
VERTEX
  5
1E8
  8
PAGE_2
 10
1536.077289884546
 20
1486.689022912935
 30
0.0
  0
VERTEX
  5
1E9
  8
PAGE_2
 10
1535.894502592066
 20
1486.933449853853
 30
0.0
  0
VERTEX
  5
1EA
  8
PAGE_2
 10
1535.73545545258
 20
1487.195229740734
 30
0.0
  0
VERTEX
  5
1EB
  8
PAGE_2
 10
1535.665333440759
 20
1487.332128038362
 30
0.0
  0
VERTEX
  5
1EC
  8
PAGE_2
 10
1535.601745267847
 20
1487.472765771822
 30
0.0
  0
VERTEX
  5
1ED
  8
PAGE_2
 10
1535.544890534062
 20
1487.616943340893
 30
0.0
  0
VERTEX
  5
1EE
  8
PAGE_2
 10
1535.494968839624
 20
1487.764461145357
 30
0.0
  0
VERTEX
  5
1EF
  8
PAGE_2
 10
1535.452179784754
 20
1487.915119584993
 30
0.0
  0
VERTEX
  5
1F0
  8
PAGE_2
 10
1535.41672296967
 20
1488.068719059582
 30
0.0
  0
VERTEX
  5
1F1
  8
PAGE_2
 10
1535.388797994593
 20
1488.225059968904
 30
0.0
  0
VERTEX
  5
1F2
  8
PAGE_2
 10
1535.368604459741
 20
1488.38394271274
 30
0.0
  0
VERTEX
  5
1F3
  8
PAGE_2
 10
1535.356341965336
 20
1488.545167690869
 30
0.0
  0
VERTEX
  5
1F4
  8
PAGE_2
 10
1535.352210111597
 20
1488.708535303072
 30
0.0
  0
VERTEX
  5
1F5
  8
PAGE_2
 10
1535.356341965336
 20
1488.871871877117
 30
0.0
  0
VERTEX
  5
1F6
  8
PAGE_2
 10
1535.368604459741
 20
1489.033069757417
 30
0.0
  0
VERTEX
  5
1F7
  8
PAGE_2
 10
1535.388797994593
 20
1489.191929149965
 30
0.0
  0
VERTEX
  5
1F8
  8
PAGE_2
 10
1535.41672296967
 20
1489.348250260754
 30
0.0
  0
VERTEX
  5
1F9
  8
PAGE_2
 10
1535.452179784754
 20
1489.501833295778
 30
0.0
  0
VERTEX
  5
1FA
  8
PAGE_2
 10
1535.494968839624
 20
1489.652478461031
 30
0.0
  0
VERTEX
  5
1FB
  8
PAGE_2
 10
1535.544890534062
 20
1489.799985962505
 30
0.0
  0
VERTEX
  5
1FC
  8
PAGE_2
 10
1535.601745267847
 20
1489.944156006196
 30
0.0
  0
VERTEX
  5
1FD
  8
PAGE_2
 10
1535.73545545258
 20
1490.221684544201
 30
0.0
  0
VERTEX
  5
1FE
  8
PAGE_2
 10
1535.894502592066
 20
1490.483465722993
 30
0.0
  0
VERTEX
  5
1FF
  8
PAGE_2
 10
1536.077289884546
 20
1490.727901190523
 30
0.0
  0
VERTEX
  5
200
  8
PAGE_2
 10
1536.282220528263
 20
1490.953392594738
 30
0.0
  0
VERTEX
  5
201
  8
PAGE_2
 10
1536.50769772146
 20
1491.158341583589
 30
0.0
  0
VERTEX
  5
202
  8
PAGE_2
 10
1536.752124662378
 20
1491.341149805025
 30
0.0
  0
VERTEX
  5
203
  8
PAGE_2
 10
1537.01390454926
 20
1491.500218906994
 30
0.0
  0
VERTEX
  5
204
  8
PAGE_2
 10
1537.150802846887
 20
1491.570351803163
 30
0.0
  0
VERTEX
  5
205
  8
PAGE_2
 10
1537.291440580347
 20
1491.633950537447
 30
0.0
  0
VERTEX
  5
206
  8
PAGE_2
 10
1537.435618149418
 20
1491.690815315838
 30
0.0
  0
VERTEX
  5
207
  8
PAGE_2
 10
1537.583135953882
 20
1491.740746344331
 30
0.0
  0
VERTEX
  5
208
  8
PAGE_2
 10
1537.733794393518
 20
1491.78354382892
 30
0.0
  0
VERTEX
  5
209
  8
PAGE_2
 10
1537.887393868107
 20
1491.819007975598
 30
0.0
  0
VERTEX
  5
20A
  8
PAGE_2
 10
1538.043734777429
 20
1491.846938990358
 30
0.0
  0
VERTEX
  5
20B
  8
PAGE_2
 10
1538.202617521265
 20
1491.867137079194
 30
0.0
  0
VERTEX
  5
20C
  8
PAGE_2
 10
1538.363842499394
 20
1491.879402448101
 30
0.0
  0
SEQEND
  5
20D
  8
PAGE_2
  0
POLYLINE
  5
45
  8
PAGE_2
 66
     1
 10
0.0
 20
0.0
 30
0.0
 70
     1
  0
VERTEX
  5
20E
  8
PAGE_2
 10
1656.855137778027
 20
1717.968945129945
 30
0.0
  0
VERTEX
  5
20F
  8
PAGE_2
 10
1750.728598889138
 20
1717.968945129945
 30
0.0
  0
VERTEX
  5
210
  8
PAGE_2
 10
1750.92662408657
 20
1717.963661473126
 30
0.0
  0
VERTEX
  5
211
  8
PAGE_2
 10
1751.122138261561
 20
1717.947983101951
 30
0.0
  0
VERTEX
  5
212
  8
PAGE_2
 10
1751.314893819405
 20
1717.922168915346
 30
0.0
  0
VERTEX
  5
213
  8
PAGE_2
 10
1751.504643165396
 20
1717.886477812237
 30
0.0
  0
VERTEX
  5
214
  8
PAGE_2
 10
1751.691138704829
 20
1717.84116869155
 30
0.0
  0
VERTEX
  5
215
  8
PAGE_2
 10
1751.874132842995
 20
1717.786500452211
 30
0.0
  0
VERTEX
  5
216
  8
PAGE_2
 10
1752.05337798519
 20
1717.722731993145
 30
0.0
  0
VERTEX
  5
217
  8
PAGE_2
 10
1752.228626536707
 20
1717.650122213279
 30
0.0
  0
VERTEX
  5
218
  8
PAGE_2
 10
1752.39963090284
 20
1717.568930011537
 30
0.0
  0
VERTEX
  5
219
  8
PAGE_2
 10
1752.566143488883
 20
1717.479414286846
 30
0.0
  0
VERTEX
  5
21A
  8
PAGE_2
 10
1752.727916700129
 20
1717.381833938132
 30
0.0
  0
VERTEX
  5
21B
  8
PAGE_2
 10
1752.884702941872
 20
1717.276447864321
 30
0.0
  0
VERTEX
  5
21C
  8
PAGE_2
 10
1753.036254619406
 20
1717.163514964337
 30
0.0
  0
VERTEX
  5
21D
  8
PAGE_2
 10
1753.182324138026
 20
1717.043294137107
 30
0.0
  0
VERTEX
  5
21E
  8
PAGE_2
 10
1753.322663903023
 20
1716.916044281557
 30
0.0
  0
VERTEX
  5
21F
  8
PAGE_2
 10
1753.457026319693
 20
1716.782024296612
 30
0.0
  0
VERTEX
  5
220
  8
PAGE_2
 10
1753.58516379333
 20
1716.641493081199
 30
0.0
  0
VERTEX
  5
221
  8
PAGE_2
 10
1753.706828729226
 20
1716.494709534242
 30
0.0
  0
VERTEX
  5
222
  8
PAGE_2
 10
1753.821773532675
 20
1716.341932554669
 30
0.0
  0
VERTEX
  5
223
  8
PAGE_2
 10
1753.929750608973
 20
1716.183421041404
 30
0.0
  0
VERTEX
  5
224
  8
PAGE_2
 10
1754.030512363411
 20
1716.019433893373
 30
0.0
  0
VERTEX
  5
225
  8
PAGE_2
 10
1754.123811201285
 20
1715.850230009503
 30
0.0
  0
VERTEX
  5
226
  8
PAGE_2
 10
1754.209399527888
 20
1715.676068288718
 30
0.0
  0
VERTEX
  5
227
  8
PAGE_2
 10
1754.287029748513
 20
1715.497207629945
 30
0.0
  0
VERTEX
  5
228
  8
PAGE_2
 10
1754.356454268454
 20
1715.31390693211
 30
0.0
  0
VERTEX
  5
229
  8
PAGE_2
 10
1754.417425493006
 20
1715.126425094138
 30
0.0
  0
VERTEX
  5
22A
  8
PAGE_2
 10
1754.469695827462
 20
1714.935021014955
 30
0.0
  0
VERTEX
  5
22B
  8
PAGE_2
 10
1754.513017677115
 20
1714.739953593487
 30
0.0
  0
VERTEX
  5
22C
  8
PAGE_2
 10
1754.54714344726
 20
1714.54148172866
 30
0.0
  0
VERTEX
  5
22D
  8
PAGE_2
 10
1754.57182554319
 20
1714.339864319399
 30
0.0
  0
VERTEX
  5
22E
  8
PAGE_2
 10
1754.5868163702
 20
1714.13536026463
 30
0.0
  0
VERTEX
  5
22F
  8
PAGE_2
 10
1754.591868333582
 20
1713.928228463279
 30
0.0
  0
VERTEX
  5
230
  8
PAGE_2
 10
1754.591868333582
 20
1633.109309018834
 30
0.0
  0
VERTEX
  5
231
  8
PAGE_2
 10
1754.5868163702
 20
1632.90217822948
 30
0.0
  0
VERTEX
  5
232
  8
PAGE_2
 10
1754.57182554319
 20
1632.697677124574
 30
0.0
  0
VERTEX
  5
233
  8
PAGE_2
 10
1754.54714344726
 20
1632.496064473851
 30
0.0
  0
VERTEX
  5
234
  8
PAGE_2
 10
1754.513017677115
 20
1632.297599047046
 30
0.0
  0
VERTEX
  5
235
  8
PAGE_2
 10
1754.469695827462
 20
1632.102539613893
 30
0.0
  0
VERTEX
  5
236
  8
PAGE_2
 10
1754.417425493006
 20
1631.911144944127
 30
0.0
  0
VERTEX
  5
237
  8
PAGE_2
 10
1754.356454268454
 20
1631.723673807483
 30
0.0
  0
VERTEX
  5
238
  8
PAGE_2
 10
1754.287029748513
 20
1631.540384973695
 30
0.0
  0
VERTEX
  5
239
  8
PAGE_2
 10
1754.209399527888
 20
1631.361537212499
 30
0.0
  0
VERTEX
  5
23A
  8
PAGE_2
 10
1754.123811201285
 20
1631.187389293628
 30
0.0
  0
VERTEX
  5
23B
  8
PAGE_2
 10
1754.030512363411
 20
1631.018199986818
 30
0.0
  0
VERTEX
  5
23C
  8
PAGE_2
 10
1753.929750608973
 20
1630.854228061803
 30
0.0
  0
VERTEX
  5
23D
  8
PAGE_2
 10
1753.821773532675
 20
1630.695732288318
 30
0.0
  0
VERTEX
  5
23E
  8
PAGE_2
 10
1753.706828729226
 20
1630.542971436098
 30
0.0
  0
VERTEX
  5
23F
  8
PAGE_2
 10
1753.58516379333
 20
1630.396204274877
 30
0.0
  0
VERTEX
  5
240
  8
PAGE_2
 10
1753.457026319693
 20
1630.25568957439
 30
0.0
  0
VERTEX
  5
241
  8
PAGE_2
 10
1753.322663903023
 20
1630.121686104372
 30
0.0
  0
VERTEX
  5
242
  8
PAGE_2
 10
1753.182324138026
 20
1629.994452634557
 30
0.0
  0
VERTEX
  5
243
  8
PAGE_2
 10
1753.036254619406
 20
1629.87424793468
 30
0.0
  0
VERTEX
  5
244
  8
PAGE_2
 10
1752.884702941872
 20
1629.761330774477
 30
0.0
  0
VERTEX
  5
245
  8
PAGE_2
 10
1752.727916700129
 20
1629.65595992368
 30
0.0
  0
VERTEX
  5
246
  8
PAGE_2
 10
1752.566143488883
 20
1629.558394152027
 30
0.0
  0
VERTEX
  5
247
  8
PAGE_2
 10
1752.39963090284
 20
1629.46889222925
 30
0.0
  0
VERTEX
  5
248
  8
PAGE_2
 10
1752.228626536707
 20
1629.387712925084
 30
0.0
  0
VERTEX
  5
249
  8
PAGE_2
 10
1752.05337798519
 20
1629.315115009265
 30
0.0
  0
VERTEX
  5
24A
  8
PAGE_2
 10
1751.874132842995
 20
1629.251357251528
 30
0.0
  0
VERTEX
  5
24B
  8
PAGE_2
 10
1751.691138704829
 20
1629.196698421606
 30
0.0
  0
VERTEX
  5
24C
  8
PAGE_2
 10
1751.504643165396
 20
1629.151397289234
 30
0.0
  0
VERTEX
  5
24D
  8
PAGE_2
 10
1751.314893819405
 20
1629.115712624147
 30
0.0
  0
VERTEX
  5
24E
  8
PAGE_2
 10
1751.122138261561
 20
1629.089903196081
 30
0.0
  0
VERTEX
  5
24F
  8
PAGE_2
 10
1750.92662408657
 20
1629.074227774768
 30
0.0
  0
VERTEX
  5
250
  8
PAGE_2
 10
1750.728598889138
 20
1629.068945129945
 30
0.0
  0
VERTEX
  5
251
  8
PAGE_2
 10
1656.855137778027
 20
1629.068945129945
 30
0.0
  0
VERTEX
  5
252
  8
PAGE_2
 10
1656.657112580595
 20
1629.074227774768
 30
0.0
  0
VERTEX
  5
253
  8
PAGE_2
 10
1656.461598405604
 20
1629.089903196081
 30
0.0
  0
VERTEX
  5
254
  8
PAGE_2
 10
1656.268842847759
 20
1629.115712624147
 30
0.0
  0
VERTEX
  5
255
  8
PAGE_2
 10
1656.079093501768
 20
1629.151397289234
 30
0.0
  0
VERTEX
  5
256
  8
PAGE_2
 10
1655.892597962336
 20
1629.196698421606
 30
0.0
  0
VERTEX
  5
257
  8
PAGE_2
 10
1655.709603824169
 20
1629.251357251528
 30
0.0
  0
VERTEX
  5
258
  8
PAGE_2
 10
1655.530358681974
 20
1629.315115009265
 30
0.0
  0
VERTEX
  5
259
  8
PAGE_2
 10
1655.355110130457
 20
1629.387712925084
 30
0.0
  0
VERTEX
  5
25A
  8
PAGE_2
 10
1655.184105764324
 20
1629.46889222925
 30
0.0
  0
VERTEX
  5
25B
  8
PAGE_2
 10
1655.017593178281
 20
1629.558394152027
 30
0.0
  0
VERTEX
  5
25C
  8
PAGE_2
 10
1654.855819967035
 20
1629.65595992368
 30
0.0
  0
VERTEX
  5
25D
  8
PAGE_2
 10
1654.699033725292
 20
1629.761330774477
 30
0.0
  0
VERTEX
  5
25E
  8
PAGE_2
 10
1654.547482047758
 20
1629.87424793468
 30
0.0
  0
VERTEX
  5
25F
  8
PAGE_2
 10
1654.401412529139
 20
1629.994452634557
 30
0.0
  0
VERTEX
  5
260
  8
PAGE_2
 10
1654.261072764141
 20
1630.121686104372
 30
0.0
  0
VERTEX
  5
261
  8
PAGE_2
 10
1654.126710347471
 20
1630.25568957439
 30
0.0
  0
VERTEX
  5
262
  8
PAGE_2
 10
1653.998572873835
 20
1630.396204274877
 30
0.0
  0
VERTEX
  5
263
  8
PAGE_2
 10
1653.876907937939
 20
1630.542971436098
 30
0.0
  0
VERTEX
  5
264
  8
PAGE_2
 10
1653.761963134489
 20
1630.695732288318
 30
0.0
  0
VERTEX
  5
265
  8
PAGE_2
 10
1653.653986058192
 20
1630.854228061803
 30
0.0
  0
VERTEX
  5
266
  8
PAGE_2
 10
1653.553224303753
 20
1631.018199986818
 30
0.0
  0
VERTEX
  5
267
  8
PAGE_2
 10
1653.459925465879
 20
1631.187389293628
 30
0.0
  0
VERTEX
  5
268
  8
PAGE_2
 10
1653.374337139277
 20
1631.361537212499
 30
0.0
  0
VERTEX
  5
269
  8
PAGE_2
 10
1653.296706918652
 20
1631.540384973695
 30
0.0
  0
VERTEX
  5
26A
  8
PAGE_2
 10
1653.22728239871
 20
1631.723673807483
 30
0.0
  0
VERTEX
  5
26B
  8
PAGE_2
 10
1653.166311174158
 20
1631.911144944127
 30
0.0
  0
VERTEX
  5
26C
  8
PAGE_2
 10
1653.114040839702
 20
1632.102539613893
 30
0.0
  0
VERTEX
  5
26D
  8
PAGE_2
 10
1653.070718990049
 20
1632.297599047046
 30
0.0
  0
VERTEX
  5
26E
  8
PAGE_2
 10
1653.036593219904
 20
1632.496064473851
 30
0.0
  0
VERTEX
  5
26F
  8
PAGE_2
 10
1653.011911123974
 20
1632.697677124574
 30
0.0
  0
VERTEX
  5
270
  8
PAGE_2
 10
1652.996920296964
 20
1632.90217822948
 30
0.0
  0
VERTEX
  5
271
  8
PAGE_2
 10
1652.991868333582
 20
1633.109309018834
 30
0.0
  0
VERTEX
  5
272
  8
PAGE_2
 10
1652.991868333582
 20
1713.928228463279
 30
0.0
  0
VERTEX
  5
273
  8
PAGE_2
 10
1652.996920296964
 20
1714.13536026463
 30
0.0
  0
VERTEX
  5
274
  8
PAGE_2
 10
1653.011911123974
 20
1714.339864319399
 30
0.0
  0
VERTEX
  5
275
  8
PAGE_2
 10
1653.036593219904
 20
1714.54148172866
 30
0.0
  0
VERTEX
  5
276
  8
PAGE_2
 10
1653.070718990049
 20
1714.739953593487
 30
0.0
  0
VERTEX
  5
277
  8
PAGE_2
 10
1653.114040839702
 20
1714.935021014955
 30
0.0
  0
VERTEX
  5
278
  8
PAGE_2
 10
1653.166311174158
 20
1715.126425094138
 30
0.0
  0
VERTEX
  5
279
  8
PAGE_2
 10
1653.22728239871
 20
1715.31390693211
 30
0.0
  0
VERTEX
  5
27A
  8
PAGE_2
 10
1653.296706918652
 20
1715.497207629945
 30
0.0
  0
VERTEX
  5
27B
  8
PAGE_2
 10
1653.374337139277
 20
1715.676068288718
 30
0.0
  0
VERTEX
  5
27C
  8
PAGE_2
 10
1653.459925465879
 20
1715.850230009503
 30
0.0
  0
VERTEX
  5
27D
  8
PAGE_2
 10
1653.553224303753
 20
1716.019433893373
 30
0.0
  0
VERTEX
  5
27E
  8
PAGE_2
 10
1653.653986058192
 20
1716.183421041404
 30
0.0
  0
VERTEX
  5
27F
  8
PAGE_2
 10
1653.761963134489
 20
1716.341932554669
 30
0.0
  0
VERTEX
  5
280
  8
PAGE_2
 10
1653.876907937939
 20
1716.494709534242
 30
0.0
  0
VERTEX
  5
281
  8
PAGE_2
 10
1653.998572873835
 20
1716.641493081199
 30
0.0
  0
VERTEX
  5
282
  8
PAGE_2
 10
1654.126710347471
 20
1716.782024296612
 30
0.0
  0
VERTEX
  5
283
  8
PAGE_2
 10
1654.261072764141
 20
1716.916044281557
 30
0.0
  0
VERTEX
  5
284
  8
PAGE_2
 10
1654.401412529139
 20
1717.043294137107
 30
0.0
  0
VERTEX
  5
285
  8
PAGE_2
 10
1654.547482047758
 20
1717.163514964337
 30
0.0
  0
VERTEX
  5
286
  8
PAGE_2
 10
1654.699033725292
 20
1717.276447864321
 30
0.0
  0
VERTEX
  5
287
  8
PAGE_2
 10
1654.855819967035
 20
1717.381833938132
 30
0.0
  0
VERTEX
  5
288
  8
PAGE_2
 10
1655.017593178281
 20
1717.479414286846
 30
0.0
  0
VERTEX
  5
289
  8
PAGE_2
 10
1655.184105764324
 20
1717.568930011537
 30
0.0
  0
VERTEX
  5
28A
  8
PAGE_2
 10
1655.355110130457
 20
1717.650122213279
 30
0.0
  0
VERTEX
  5
28B
  8
PAGE_2
 10
1655.530358681974
 20
1717.722731993145
 30
0.0
  0
VERTEX
  5
28C
  8
PAGE_2
 10
1655.709603824169
 20
1717.786500452211
 30
0.0
  0
VERTEX
  5
28D
  8
PAGE_2
 10
1655.892597962336
 20
1717.84116869155
 30
0.0
  0
VERTEX
  5
28E
  8
PAGE_2
 10
1656.079093501768
 20
1717.886477812237
 30
0.0
  0
VERTEX
  5
28F
  8
PAGE_2
 10
1656.268842847759
 20
1717.922168915346
 30
0.0
  0
VERTEX
  5
290
  8
PAGE_2
 10
1656.461598405604
 20
1717.947983101951
 30
0.0
  0
VERTEX
  5
291
  8
PAGE_2
 10
1656.657112580595
 20
1717.963661473126
 30
0.0
  0
SEQEND
  5
292
  8
PAGE_2
  0
POLYLINE
  5
46
  8
PAGE_2
 66
     1
 10
0.0
 20
0.0
 30
0.0
 70
     1
  0
VERTEX
  5
293
  8
PAGE_2
 10
1719.230835000249
 20
1671.840075685501
 30
0.0
  0
VERTEX
  5
294
  8
PAGE_2
 10
1719.394202612452
 20
1671.835943831762
 30
0.0
  0
VERTEX
  5
295
  8
PAGE_2
 10
1719.555427590581
 20
1671.823681337356
 30
0.0
  0
VERTEX
  5
296
  8
PAGE_2
 10
1719.714310334416
 20
1671.803487802506
 30
0.0
  0
VERTEX
  5
297
  8
PAGE_2
 10
1719.870651243738
 20
1671.775562827428
 30
0.0
  0
VERTEX
  5
298
  8
PAGE_2
 10
1720.024250718327
 20
1671.740106012344
 30
0.0
  0
VERTEX
  5
299
  8
PAGE_2
 10
1720.174909157964
 20
1671.697316957474
 30
0.0
  0
VERTEX
  5
29A
  8
PAGE_2
 10
1720.322426962427
 20
1671.647395263036
 30
0.0
  0
VERTEX
  5
29B
  8
PAGE_2
 10
1720.466604531499
 20
1671.590540529251
 30
0.0
  0
VERTEX
  5
29C
  8
PAGE_2
 10
1720.744140562586
 20
1671.456830344518
 30
0.0
  0
VERTEX
  5
29D
  8
PAGE_2
 10
1721.005920449468
 20
1671.297783205032
 30
0.0
  0
VERTEX
  5
29E
  8
PAGE_2
 10
1721.250347390386
 20
1671.114995912552
 30
0.0
  0
VERTEX
  5
29F
  8
PAGE_2
 10
1721.475824583582
 20
1670.910065268834
 30
0.0
  0
VERTEX
  5
2A0
  8
PAGE_2
 10
1721.6807552273
 20
1670.684588075638
 30
0.0
  0
VERTEX
  5
2A1
  8
PAGE_2
 10
1721.86354251978
 20
1670.44016113472
 30
0.0
  0
VERTEX
  5
2A2
  8
PAGE_2
 10
1722.022589659266
 20
1670.178381247838
 30
0.0
  0
VERTEX
  5
2A3
  8
PAGE_2
 10
1722.092711671086
 20
1670.041482950211
 30
0.0
  0
VERTEX
  5
2A4
  8
PAGE_2
 10
1722.156299843999
 20
1669.900845216751
 30
0.0
  0
VERTEX
  5
2A5
  8
PAGE_2
 10
1722.213154577784
 20
1669.75666764768
 30
0.0
  0
VERTEX
  5
2A6
  8
PAGE_2
 10
1722.263076272221
 20
1669.609149843216
 30
0.0
  0
VERTEX
  5
2A7
  8
PAGE_2
 10
1722.305865327092
 20
1669.45849140358
 30
0.0
  0
VERTEX
  5
2A8
  8
PAGE_2
 10
1722.341322142176
 20
1669.304891928991
 30
0.0
  0
VERTEX
  5
2A9
  8
PAGE_2
 10
1722.369247117253
 20
1669.148551019669
 30
0.0
  0
VERTEX
  5
2AA
  8
PAGE_2
 10
1722.389440652104
 20
1668.989668275833
 30
0.0
  0
VERTEX
  5
2AB
  8
PAGE_2
 10
1722.401703146509
 20
1668.828443297704
 30
0.0
  0
VERTEX
  5
2AC
  8
PAGE_2
 10
1722.405835000249
 20
1668.665075685501
 30
0.0
  0
VERTEX
  5
2AD
  8
PAGE_2
 10
1722.401703146509
 20
1668.501739111455
 30
0.0
  0
VERTEX
  5
2AE
  8
PAGE_2
 10
1722.389440652104
 20
1668.340541231155
 30
0.0
  0
VERTEX
  5
2AF
  8
PAGE_2
 10
1722.369247117253
 20
1668.181681838608
 30
0.0
  0
VERTEX
  5
2B0
  8
PAGE_2
 10
1722.341322142176
 20
1668.025360727819
 30
0.0
  0
VERTEX
  5
2B1
  8
PAGE_2
 10
1722.305865327092
 20
1667.871777692795
 30
0.0
  0
VERTEX
  5
2B2
  8
PAGE_2
 10
1722.263076272221
 20
1667.721132527542
 30
0.0
  0
VERTEX
  5
2B3
  8
PAGE_2
 10
1722.213154577784
 20
1667.573625026067
 30
0.0
  0
VERTEX
  5
2B4
  8
PAGE_2
 10
1722.156299843999
 20
1667.429454982376
 30
0.0
  0
VERTEX
  5
2B5
  8
PAGE_2
 10
1722.022589659266
 20
1667.151926444372
 30
0.0
  0
VERTEX
  5
2B6
  8
PAGE_2
 10
1721.86354251978
 20
1666.890145265579
 30
0.0
  0
VERTEX
  5
2B7
  8
PAGE_2
 10
1721.6807552273
 20
1666.64570979805
 30
0.0
  0
VERTEX
  5
2B8
  8
PAGE_2
 10
1721.475824583582
 20
1666.420218393834
 30
0.0
  0
VERTEX
  5
2B9
  8
PAGE_2
 10
1721.250347390386
 20
1666.215269404983
 30
0.0
  0
VERTEX
  5
2BA
  8
PAGE_2
 10
1721.005920449468
 20
1666.032461183548
 30
0.0
  0
VERTEX
  5
2BB
  8
PAGE_2
 10
1720.744140562586
 20
1665.873392081578
 30
0.0
  0
VERTEX
  5
2BC
  8
PAGE_2
 10
1720.607242264958
 20
1665.803259185409
 30
0.0
  0
VERTEX
  5
2BD
  8
PAGE_2
 10
1720.466604531499
 20
1665.739660451126
 30
0.0
  0
VERTEX
  5
2BE
  8
PAGE_2
 10
1720.322426962427
 20
1665.682795672734
 30
0.0
  0
VERTEX
  5
2BF
  8
PAGE_2
 10
1720.174909157964
 20
1665.632864644241
 30
0.0
  0
VERTEX
  5
2C0
  8
PAGE_2
 10
1720.024250718327
 20
1665.590067159652
 30
0.0
  0
VERTEX
  5
2C1
  8
PAGE_2
 10
1719.870651243738
 20
1665.554603012975
 30
0.0
  0
VERTEX
  5
2C2
  8
PAGE_2
 10
1719.714310334416
 20
1665.526671998215
 30
0.0
  0
VERTEX
  5
2C3
  8
PAGE_2
 10
1719.555427590581
 20
1665.506473909378
 30
0.0
  0
VERTEX
  5
2C4
  8
PAGE_2
 10
1719.394202612452
 20
1665.494208540471
 30
0.0
  0
VERTEX
  5
2C5
  8
PAGE_2
 10
1719.230835000249
 20
1665.490075685501
 30
0.0
  0
VERTEX
  5
2C6
  8
PAGE_2
 10
1719.067467388046
 20
1665.494208540471
 30
0.0
  0
VERTEX
  5
2C7
  8
PAGE_2
 10
1718.906242409917
 20
1665.506473909378
 30
0.0
  0
VERTEX
  5
2C8
  8
PAGE_2
 10
1718.747359666081
 20
1665.526671998215
 30
0.0
  0
VERTEX
  5
2C9
  8
PAGE_2
 10
1718.591018756759
 20
1665.554603012975
 30
0.0
  0
VERTEX
  5
2CA
  8
PAGE_2
 10
1718.43741928217
 20
1665.590067159652
 30
0.0
  0
VERTEX
  5
2CB
  8
PAGE_2
 10
1718.286760842534
 20
1665.632864644241
 30
0.0
  0
VERTEX
  5
2CC
  8
PAGE_2
 10
1718.13924303807
 20
1665.682795672734
 30
0.0
  0
VERTEX
  5
2CD
  8
PAGE_2
 10
1717.995065468999
 20
1665.739660451126
 30
0.0
  0
VERTEX
  5
2CE
  8
PAGE_2
 10
1717.717529437912
 20
1665.873392081578
 30
0.0
  0
VERTEX
  5
2CF
  8
PAGE_2
 10
1717.45574955103
 20
1666.032461183548
 30
0.0
  0
VERTEX
  5
2D0
  8
PAGE_2
 10
1717.211322610112
 20
1666.215269404983
 30
0.0
  0
VERTEX
  5
2D1
  8
PAGE_2
 10
1716.985845416915
 20
1666.420218393834
 30
0.0
  0
VERTEX
  5
2D2
  8
PAGE_2
 10
1716.780914773198
 20
1666.64570979805
 30
0.0
  0
VERTEX
  5
2D3
  8
PAGE_2
 10
1716.598127480718
 20
1666.890145265579
 30
0.0
  0
VERTEX
  5
2D4
  8
PAGE_2
 10
1716.439080341232
 20
1667.151926444372
 30
0.0
  0
VERTEX
  5
2D5
  8
PAGE_2
 10
1716.368958329411
 20
1667.288822190475
 30
0.0
  0
VERTEX
  5
2D6
  8
PAGE_2
 10
1716.305370156499
 20
1667.429454982376
 30
0.0
  0
VERTEX
  5
2D7
  8
PAGE_2
 10
1716.248515422714
 20
1667.573625026067
 30
0.0
  0
VERTEX
  5
2D8
  8
PAGE_2
 10
1716.198593728276
 20
1667.721132527542
 30
0.0
  0
VERTEX
  5
2D9
  8
PAGE_2
 10
1716.155804673406
 20
1667.871777692795
 30
0.0
  0
VERTEX
  5
2DA
  8
PAGE_2
 10
1716.120347858322
 20
1668.025360727819
 30
0.0
  0
VERTEX
  5
2DB
  8
PAGE_2
 10
1716.092422883245
 20
1668.181681838608
 30
0.0
  0
VERTEX
  5
2DC
  8
PAGE_2
 10
1716.072229348393
 20
1668.340541231155
 30
0.0
  0
VERTEX
  5
2DD
  8
PAGE_2
 10
1716.059966853988
 20
1668.501739111455
 30
0.0
  0
VERTEX
  5
2DE
  8
PAGE_2
 10
1716.055835000249
 20
1668.665075685501
 30
0.0
  0
VERTEX
  5
2DF
  8
PAGE_2
 10
1716.059966853988
 20
1668.828443297704
 30
0.0
  0
VERTEX
  5
2E0
  8
PAGE_2
 10
1716.072229348393
 20
1668.989668275833
 30
0.0
  0
VERTEX
  5
2E1
  8
PAGE_2
 10
1716.092422883245
 20
1669.148551019669
 30
0.0
  0
VERTEX
  5
2E2
  8
PAGE_2
 10
1716.120347858322
 20
1669.304891928991
 30
0.0
  0
VERTEX
  5
2E3
  8
PAGE_2
 10
1716.155804673406
 20
1669.45849140358
 30
0.0
  0
VERTEX
  5
2E4
  8
PAGE_2
 10
1716.198593728276
 20
1669.609149843216
 30
0.0
  0
VERTEX
  5
2E5
  8
PAGE_2
 10
1716.248515422714
 20
1669.75666764768
 30
0.0
  0
VERTEX
  5
2E6
  8
PAGE_2
 10
1716.305370156499
 20
1669.900845216751
 30
0.0
  0
VERTEX
  5
2E7
  8
PAGE_2
 10
1716.439080341232
 20
1670.178381247838
 30
0.0
  0
VERTEX
  5
2E8
  8
PAGE_2
 10
1716.598127480718
 20
1670.44016113472
 30
0.0
  0
VERTEX
  5
2E9
  8
PAGE_2
 10
1716.780914773198
 20
1670.684588075638
 30
0.0
  0
VERTEX
  5
2EA
  8
PAGE_2
 10
1716.985845416915
 20
1670.910065268834
 30
0.0
  0
VERTEX
  5
2EB
  8
PAGE_2
 10
1717.211322610112
 20
1671.114995912552
 30
0.0
  0
VERTEX
  5
2EC
  8
PAGE_2
 10
1717.45574955103
 20
1671.297783205032
 30
0.0
  0
VERTEX
  5
2ED
  8
PAGE_2
 10
1717.717529437912
 20
1671.456830344518
 30
0.0
  0
VERTEX
  5
2EE
  8
PAGE_2
 10
1717.85442773554
 20
1671.526952356339
 30
0.0
  0
VERTEX
  5
2EF
  8
PAGE_2
 10
1717.995065468999
 20
1671.590540529251
 30
0.0
  0
VERTEX
  5
2F0
  8
PAGE_2
 10
1718.13924303807
 20
1671.647395263036
 30
0.0
  0
VERTEX
  5
2F1
  8
PAGE_2
 10
1718.286760842534
 20
1671.697316957474
 30
0.0
  0
VERTEX
  5
2F2
  8
PAGE_2
 10
1718.43741928217
 20
1671.740106012344
 30
0.0
  0
VERTEX
  5
2F3
  8
PAGE_2
 10
1718.591018756759
 20
1671.775562827428
 30
0.0
  0
VERTEX
  5
2F4
  8
PAGE_2
 10
1718.747359666081
 20
1671.803487802506
 30
0.0
  0
VERTEX
  5
2F5
  8
PAGE_2
 10
1718.906242409917
 20
1671.823681337356
 30
0.0
  0
VERTEX
  5
2F6
  8
PAGE_2
 10
1719.067467388046
 20
1671.835943831762
 30
0.0
  0
SEQEND
  5
2F7
  8
PAGE_2
  0
POLYLINE
  5
47
  8
PAGE_2
 66
     1
 10
0.0
 20
0.0
 30
0.0
 70
     1
  0
VERTEX
  5
2F8
  8
PAGE_2
 10
1738.541185000249
 20
1713.415642352168
 30
0.0
  0
VERTEX
  5
2F9
  8
PAGE_2
 10
1738.704552612452
 20
1713.411510498428
 30
0.0
  0
VERTEX
  5
2FA
  8
PAGE_2
 10
1738.865777590581
 20
1713.399248004023
 30
0.0
  0
VERTEX
  5
2FB
  8
PAGE_2
 10
1739.024660334416
 20
1713.379054469172
 30
0.0
  0
VERTEX
  5
2FC
  8
PAGE_2
 10
1739.181001243738
 20
1713.351129494094
 30
0.0
  0
VERTEX
  5
2FD
  8
PAGE_2
 10
1739.334600718327
 20
1713.315672679011
 30
0.0
  0
VERTEX
  5
2FE
  8
PAGE_2
 10
1739.485259157964
 20
1713.27288362414
 30
0.0
  0
VERTEX
  5
2FF
  8
PAGE_2
 10
1739.632776962427
 20
1713.222961929702
 30
0.0
  0
VERTEX
  5
300
  8
PAGE_2
 10
1739.776954531499
 20
1713.166107195917
 30
0.0
  0
VERTEX
  5
301
  8
PAGE_2
 10
1740.054490562586
 20
1713.032397011184
 30
0.0
  0
VERTEX
  5
302
  8
PAGE_2
 10
1740.316270449468
 20
1712.873349871699
 30
0.0
  0
VERTEX
  5
303
  8
PAGE_2
 10
1740.560697390385
 20
1712.690562579219
 30
0.0
  0
VERTEX
  5
304
  8
PAGE_2
 10
1740.786174583582
 20
1712.485631935501
 30
0.0
  0
VERTEX
  5
305
  8
PAGE_2
 10
1740.9911052273
 20
1712.260154742304
 30
0.0
  0
VERTEX
  5
306
  8
PAGE_2
 10
1741.17389251978
 20
1712.015727801386
 30
0.0
  0
VERTEX
  5
307
  8
PAGE_2
 10
1741.332939659266
 20
1711.753947914505
 30
0.0
  0
VERTEX
  5
308
  8
PAGE_2
 10
1741.403061671086
 20
1711.617049616877
 30
0.0
  0
VERTEX
  5
309
  8
PAGE_2
 10
1741.466649843999
 20
1711.476411883418
 30
0.0
  0
VERTEX
  5
30A
  8
PAGE_2
 10
1741.523504577784
 20
1711.332234314346
 30
0.0
  0
VERTEX
  5
30B
  8
PAGE_2
 10
1741.573426272221
 20
1711.184716509882
 30
0.0
  0
VERTEX
  5
30C
  8
PAGE_2
 10
1741.616215327092
 20
1711.034058070246
 30
0.0
  0
VERTEX
  5
30D
  8
PAGE_2
 10
1741.651672142176
 20
1710.880458595657
 30
0.0
  0
VERTEX
  5
30E
  8
PAGE_2
 10
1741.679597117253
 20
1710.724117686335
 30
0.0
  0
VERTEX
  5
30F
  8
PAGE_2
 10
1741.699790652104
 20
1710.5652349425
 30
0.0
  0
VERTEX
  5
310
  8
PAGE_2
 10
1741.712053146509
 20
1710.404009964371
 30
0.0
  0
VERTEX
  5
311
  8
PAGE_2
 10
1741.716185000249
 20
1710.240642352168
 30
0.0
  0
VERTEX
  5
312
  8
PAGE_2
 10
1741.712053146509
 20
1710.077305778122
 30
0.0
  0
VERTEX
  5
313
  8
PAGE_2
 10
1741.699790652104
 20
1709.916107897822
 30
0.0
  0
VERTEX
  5
314
  8
PAGE_2
 10
1741.679597117253
 20
1709.757248505274
 30
0.0
  0
VERTEX
  5
315
  8
PAGE_2
 10
1741.651672142176
 20
1709.600927394485
 30
0.0
  0
VERTEX
  5
316
  8
PAGE_2
 10
1741.616215327092
 20
1709.447344359461
 30
0.0
  0
VERTEX
  5
317
  8
PAGE_2
 10
1741.573426272221
 20
1709.296699194208
 30
0.0
  0
VERTEX
  5
318
  8
PAGE_2
 10
1741.523504577784
 20
1709.149191692734
 30
0.0
  0
VERTEX
  5
319
  8
PAGE_2
 10
1741.466649843999
 20
1709.005021649043
 30
0.0
  0
VERTEX
  5
31A
  8
PAGE_2
 10
1741.332939659266
 20
1708.727493111038
 30
0.0
  0
VERTEX
  5
31B
  8
PAGE_2
 10
1741.17389251978
 20
1708.465711932246
 30
0.0
  0
VERTEX
  5
31C
  8
PAGE_2
 10
1740.9911052273
 20
1708.221276464717
 30
0.0
  0
VERTEX
  5
31D
  8
PAGE_2
 10
1740.786174583582
 20
1707.995785060501
 30
0.0
  0
VERTEX
  5
31E
  8
PAGE_2
 10
1740.560697390385
 20
1707.79083607165
 30
0.0
  0
VERTEX
  5
31F
  8
PAGE_2
 10
1740.316270449468
 20
1707.608027850214
 30
0.0
  0
VERTEX
  5
320
  8
PAGE_2
 10
1740.054490562586
 20
1707.448958748245
 30
0.0
  0
VERTEX
  5
321
  8
PAGE_2
 10
1739.917592264958
 20
1707.378825852076
 30
0.0
  0
VERTEX
  5
322
  8
PAGE_2
 10
1739.776954531499
 20
1707.315227117792
 30
0.0
  0
VERTEX
  5
323
  8
PAGE_2
 10
1739.632776962427
 20
1707.258362339401
 30
0.0
  0
VERTEX
  5
324
  8
PAGE_2
 10
1739.485259157964
 20
1707.208431310908
 30
0.0
  0
VERTEX
  5
325
  8
PAGE_2
 10
1739.334600718327
 20
1707.165633826319
 30
0.0
  0
VERTEX
  5
326
  8
PAGE_2
 10
1739.181001243738
 20
1707.130169679642
 30
0.0
  0
VERTEX
  5
327
  8
PAGE_2
 10
1739.024660334416
 20
1707.102238664881
 30
0.0
  0
VERTEX
  5
328
  8
PAGE_2
 10
1738.865777590581
 20
1707.082040576045
 30
0.0
  0
VERTEX
  5
329
  8
PAGE_2
 10
1738.704552612452
 20
1707.069775207138
 30
0.0
  0
VERTEX
  5
32A
  8
PAGE_2
 10
1738.541185000249
 20
1707.065642352168
 30
0.0
  0
VERTEX
  5
32B
  8
PAGE_2
 10
1738.377817388046
 20
1707.069775207138
 30
0.0
  0
VERTEX
  5
32C
  8
PAGE_2
 10
1738.216592409917
 20
1707.082040576045
 30
0.0
  0
VERTEX
  5
32D
  8
PAGE_2
 10
1738.057709666081
 20
1707.102238664881
 30
0.0
  0
VERTEX
  5
32E
  8
PAGE_2
 10
1737.901368756759
 20
1707.130169679642
 30
0.0
  0
VERTEX
  5
32F
  8
PAGE_2
 10
1737.74776928217
 20
1707.165633826319
 30
0.0
  0
VERTEX
  5
330
  8
PAGE_2
 10
1737.597110842534
 20
1707.208431310908
 30
0.0
  0
VERTEX
  5
331
  8
PAGE_2
 10
1737.44959303807
 20
1707.258362339401
 30
0.0
  0
VERTEX
  5
332
  8
PAGE_2
 10
1737.305415468999
 20
1707.315227117792
 30
0.0
  0
VERTEX
  5
333
  8
PAGE_2
 10
1737.027879437911
 20
1707.448958748245
 30
0.0
  0
VERTEX
  5
334
  8
PAGE_2
 10
1736.76609955103
 20
1707.608027850214
 30
0.0
  0
VERTEX
  5
335
  8
PAGE_2
 10
1736.521672610112
 20
1707.79083607165
 30
0.0
  0
VERTEX
  5
336
  8
PAGE_2
 10
1736.296195416915
 20
1707.995785060501
 30
0.0
  0
VERTEX
  5
337
  8
PAGE_2
 10
1736.091264773198
 20
1708.221276464717
 30
0.0
  0
VERTEX
  5
338
  8
PAGE_2
 10
1735.908477480717
 20
1708.465711932246
 30
0.0
  0
VERTEX
  5
339
  8
PAGE_2
 10
1735.749430341232
 20
1708.727493111038
 30
0.0
  0
VERTEX
  5
33A
  8
PAGE_2
 10
1735.679308329411
 20
1708.864388857142
 30
0.0
  0
VERTEX
  5
33B
  8
PAGE_2
 10
1735.615720156499
 20
1709.005021649043
 30
0.0
  0
VERTEX
  5
33C
  8
PAGE_2
 10
1735.558865422714
 20
1709.149191692734
 30
0.0
  0
VERTEX
  5
33D
  8
PAGE_2
 10
1735.508943728276
 20
1709.296699194208
 30
0.0
  0
VERTEX
  5
33E
  8
PAGE_2
 10
1735.466154673406
 20
1709.447344359461
 30
0.0
  0
VERTEX
  5
33F
  8
PAGE_2
 10
1735.430697858322
 20
1709.600927394485
 30
0.0
  0
VERTEX
  5
340
  8
PAGE_2
 10
1735.402772883244
 20
1709.757248505274
 30
0.0
  0
VERTEX
  5
341
  8
PAGE_2
 10
1735.382579348393
 20
1709.916107897822
 30
0.0
  0
VERTEX
  5
342
  8
PAGE_2
 10
1735.370316853988
 20
1710.077305778122
 30
0.0
  0
VERTEX
  5
343
  8
PAGE_2
 10
1735.366185000249
 20
1710.240642352168
 30
0.0
  0
VERTEX
  5
344
  8
PAGE_2
 10
1735.370316853988
 20
1710.404009964371
 30
0.0
  0
VERTEX
  5
345
  8
PAGE_2
 10
1735.382579348393
 20
1710.5652349425
 30
0.0
  0
VERTEX
  5
346
  8
PAGE_2
 10
1735.402772883244
 20
1710.724117686335
 30
0.0
  0
VERTEX
  5
347
  8
PAGE_2
 10
1735.430697858322
 20
1710.880458595657
 30
0.0
  0
VERTEX
  5
348
  8
PAGE_2
 10
1735.466154673406
 20
1711.034058070246
 30
0.0
  0
VERTEX
  5
349
  8
PAGE_2
 10
1735.508943728276
 20
1711.184716509882
 30
0.0
  0
VERTEX
  5
34A
  8
PAGE_2
 10
1735.558865422714
 20
1711.332234314346
 30
0.0
  0
VERTEX
  5
34B
  8
PAGE_2
 10
1735.615720156499
 20
1711.476411883418
 30
0.0
  0
VERTEX
  5
34C
  8
PAGE_2
 10
1735.749430341232
 20
1711.753947914505
 30
0.0
  0
VERTEX
  5
34D
  8
PAGE_2
 10
1735.908477480717
 20
1712.015727801386
 30
0.0
  0
VERTEX
  5
34E
  8
PAGE_2
 10
1736.091264773198
 20
1712.260154742304
 30
0.0
  0
VERTEX
  5
34F
  8
PAGE_2
 10
1736.296195416915
 20
1712.485631935501
 30
0.0
  0
VERTEX
  5
350
  8
PAGE_2
 10
1736.521672610112
 20
1712.690562579219
 30
0.0
  0
VERTEX
  5
351
  8
PAGE_2
 10
1736.76609955103
 20
1712.873349871699
 30
0.0
  0
VERTEX
  5
352
  8
PAGE_2
 10
1737.027879437911
 20
1713.032397011184
 30
0.0
  0
VERTEX
  5
353
  8
PAGE_2
 10
1737.164777735539
 20
1713.102519023005
 30
0.0
  0
VERTEX
  5
354
  8
PAGE_2
 10
1737.305415468999
 20
1713.166107195917
 30
0.0
  0
VERTEX
  5
355
  8
PAGE_2
 10
1737.44959303807
 20
1713.222961929702
 30
0.0
  0
VERTEX
  5
356
  8
PAGE_2
 10
1737.597110842534
 20
1713.27288362414
 30
0.0
  0
VERTEX
  5
357
  8
PAGE_2
 10
1737.74776928217
 20
1713.315672679011
 30
0.0
  0
VERTEX
  5
358
  8
PAGE_2
 10
1737.901368756759
 20
1713.351129494094
 30
0.0
  0
VERTEX
  5
359
  8
PAGE_2
 10
1738.057709666081
 20
1713.379054469172
 30
0.0
  0
VERTEX
  5
35A
  8
PAGE_2
 10
1738.216592409917
 20
1713.399248004023
 30
0.0
  0
VERTEX
  5
35B
  8
PAGE_2
 10
1738.377817388046
 20
1713.411510498428
 30
0.0
  0
SEQEND
  5
35C
  8
PAGE_2
  0
POLYLINE
  5
48
  8
PAGE_2
 66
     1
 10
0.0
 20
0.0
 30
0.0
 70
     1
  0
VERTEX
  5
35D
  8
PAGE_2
 10
1401.832518943199
 20
1627.125014641528
 30
0.0
  0
VERTEX
  5
35E
  8
PAGE_2
 10
1431.328621720977
 20
1627.125014641528
 30
0.0
  0
VERTEX
  5
35F
  8
PAGE_2
 10
1431.974992107906
 20
1627.116761118613
 30
0.0
  0
VERTEX
  5
360
  8
PAGE_2
 10
1432.617477589847
 20
1627.092134822463
 30
0.0
  0
VERTEX
  5
361
  8
PAGE_2
 10
1433.255876757904
 20
1627.051337161975
 30
0.0
  0
VERTEX
  5
362
  8
PAGE_2
 10
1433.889988203182
 20
1626.994569546042
 30
0.0
  0
VERTEX
  5
363
  8
PAGE_2
 10
1434.519610516788
 20
1626.92203338356
 30
0.0
  0
VERTEX
  5
364
  8
PAGE_2
 10
1435.144542289825
 20
1626.833930083423
 30
0.0
  0
VERTEX
  5
365
  8
PAGE_2
 10
1435.7645821134
 20
1626.730461054526
 30
0.0
  0
VERTEX
  5
366
  8
PAGE_2
 10
1436.379528578616
 20
1626.611827705764
 30
0.0
  0
VERTEX
  5
367
  8
PAGE_2
 10
1436.989180276581
 20
1626.478231446032
 30
0.0
  0
VERTEX
  5
368
  8
PAGE_2
 10
1437.593335798397
 20
1626.329873684225
 30
0.0
  0
VERTEX
  5
369
  8
PAGE_2
 10
1438.191793735172
 20
1626.166955829238
 30
0.0
  0
VERTEX
  5
36A
  8
PAGE_2
 10
1438.784352678009
 20
1625.989679289966
 30
0.0
  0
VERTEX
  5
36B
  8
PAGE_2
 10
1439.370811218014
 20
1625.798245475302
 30
0.0
  0
VERTEX
  5
36C
  8
PAGE_2
 10
1439.950967946292
 20
1625.592855794143
 30
0.0
  0
VERTEX
  5
36D
  8
PAGE_2
 10
1440.524621453949
 20
1625.373711655383
 30
0.0
  0
VERTEX
  5
36E
  8
PAGE_2
 10
1441.091570332088
 20
1625.141014467917
 30
0.0
  0
VERTEX
  5
36F
  8
PAGE_2
 10
1441.651613171817
 20
1624.89496564064
 30
0.0
  0
VERTEX
  5
370
  8
PAGE_2
 10
1442.204548564239
 20
1624.635766582446
 30
0.0
  0
VERTEX
  5
371
  8
PAGE_2
 10
1442.75017510046
 20
1624.363618702231
 30
0.0
  0
VERTEX
  5
372
  8
PAGE_2
 10
1443.288291371585
 20
1624.078723408889
 30
0.0
  0
VERTEX
  5
373
  8
PAGE_2
 10
1443.818695968719
 20
1623.781282111315
 30
0.0
  0
VERTEX
  5
374
  8
PAGE_2
 10
1444.341187482967
 20
1623.471496218405
 30
0.0
  0
VERTEX
  5
375
  8
PAGE_2
 10
1444.855564505435
 20
1623.149567139053
 30
0.0
  0
VERTEX
  5
376
  8
PAGE_2
 10
1445.361625627227
 20
1622.815696282153
 30
0.0
  0
VERTEX
  5
377
  8
PAGE_2
 10
1445.859169439449
 20
1622.470085056601
 30
0.0
  0
VERTEX
  5
378
  8
PAGE_2
 10
1446.347994533206
 20
1622.112934871291
 30
0.0
  0
VERTEX
  5
379
  8
PAGE_2
 10
1446.827899499603
 20
1621.744447135119
 30
0.0
  0
VERTEX
  5
37A
  8
PAGE_2
 10
1447.298682929745
 20
1621.364823256979
 30
0.0
  0
VERTEX
  5
37B
  8
PAGE_2
 10
1447.760143414737
 20
1620.974264645766
 30
0.0
  0
VERTEX
  5
37C
  8
PAGE_2
 10
1448.212079545684
 20
1620.572972710375
 30
0.0
  0
VERTEX
  5
37D
  8
PAGE_2
 10
1448.654289913693
 20
1620.161148859701
 30
0.0
  0
VERTEX
  5
37E
  8
PAGE_2
 10
1449.086573109866
 20
1619.738994502639
 30
0.0
  0
VERTEX
  5
37F
  8
PAGE_2
 10
1449.508727725311
 20
1619.306711048083
 30
0.0
  0
VERTEX
  5
380
  8
PAGE_2
 10
1449.920552351131
 20
1618.864499904929
 30
0.0
  0
VERTEX
  5
381
  8
PAGE_2
 10
1450.321845578433
 20
1618.41256248207
 30
0.0
  0
VERTEX
  5
382
  8
PAGE_2
 10
1450.712405998321
 20
1617.951100188403
 30
0.0
  0
VERTEX
  5
383
  8
PAGE_2
 10
1451.0920322019
 20
1617.480314432822
 30
0.0
  0
VERTEX
  5
384
  8
PAGE_2
 10
1451.460522780276
 20
1617.000406624221
 30
0.0
  0
VERTEX
  5
385
  8
PAGE_2
 10
1451.817676324554
 20
1616.511578171496
 30
0.0
  0
VERTEX
  5
386
  8
PAGE_2
 10
1452.163291425838
 20
1616.014030483542
 30
0.0
  0
VERTEX
  5
387
  8
PAGE_2
 10
1452.497166675234
 20
1615.507964969253
 30
0.0
  0
VERTEX
  5
388
  8
PAGE_2
 10
1452.819100663848
 20
1614.993583037524
 30
0.0
  0
VERTEX
  5
389
  8
PAGE_2
 10
1453.128891982784
 20
1614.47108609725
 30
0.0
  0
VERTEX
  5
38A
  8
PAGE_2
 10
1453.426339223147
 20
1613.940675557326
 30
0.0
  0
VERTEX
  5
38B
  8
PAGE_2
 10
1453.711240976043
 20
1613.402552826647
 30
0.0
  0
VERTEX
  5
38C
  8
PAGE_2
 10
1453.983395832576
 20
1612.856919314108
 30
0.0
  0
VERTEX
  5
38D
  8
PAGE_2
 10
1454.242602383852
 20
1612.303976428603
 30
0.0
  0
VERTEX
  5
38E
  8
PAGE_2
 10
1454.488659220977
 20
1611.743925579028
 30
0.0
  0
VERTEX
  5
38F
  8
PAGE_2
 10
1454.721364935054
 20
1611.176968174277
 30
0.0
  0
VERTEX
  5
390
  8
PAGE_2
 10
1454.94051811719
 20
1610.603305623244
 30
0.0
  0
VERTEX
  5
391
  8
PAGE_2
 10
1455.145917358489
 20
1610.023139334826
 30
0.0
  0
VERTEX
  5
392
  8
PAGE_2
 10
1455.337361250057
 20
1609.436670717917
 30
0.0
  0
VERTEX
  5
393
  8
PAGE_2
 10
1455.514648382998
 20
1608.844101181411
 30
0.0
  0
VERTEX
  5
394
  8
PAGE_2
 10
1455.677577348418
 20
1608.245632134204
 30
0.0
  0
VERTEX
  5
395
  8
PAGE_2
 10
1455.825946737423
 20
1607.641464985189
 30
0.0
  0
VERTEX
  5
396
  8
PAGE_2
 10
1455.959555141116
 20
1607.031801143264
 30
0.0
  0
VERTEX
  5
397
  8
PAGE_2
 10
1456.078201150603
 20
1606.416842017321
 30
0.0
  0
VERTEX
  5
398
  8
PAGE_2
 10
1456.181683356991
 20
1605.796789016257
 30
0.0
  0
VERTEX
  5
399
  8
PAGE_2
 10
1456.269800351382
 20
1605.171843548965
 30
0.0
  0
VERTEX
  5
39A
  8
PAGE_2
 10
1456.342350724883
 20
1604.542207024341
 30
0.0
  0
VERTEX
  5
39B
  8
PAGE_2
 10
1456.399133068599
 20
1603.908080851279
 30
0.0
  0
VERTEX
  5
39C
  8
PAGE_2
 10
1456.439945973636
 20
1603.269666438674
 30
0.0
  0
VERTEX
  5
39D
  8
PAGE_2
 10
1456.464588031097
 20
1602.627165195422
 30
0.0
  0
VERTEX
  5
39E
  8
PAGE_2
 10
1456.472857832088
 20
1601.980778530417
 30
0.0
  0
VERTEX
  5
39F
  8
PAGE_2
 10
1456.472857832088
 20
1565.31693686375
 30
0.0
  0
VERTEX
  5
3A0
  8
PAGE_2
 10
1456.352893578345
 20
1565.102074784893
 30
0.0
  0
VERTEX
  5
3A1
  8
PAGE_2
 10
1456.223186250057
 20
1564.896962498516
 30
0.0
  0
VERTEX
  5
3A2
  8
PAGE_2
 10
1456.083931184139
 20
1564.701403117412
 30
0.0
  0
VERTEX
  5
3A3
  8
PAGE_2
 10
1455.935323717505
 20
1564.515199754375
 30
0.0
  0
VERTEX
  5
3A4
  8
PAGE_2
 10
1455.777559187069
 20
1564.338155522197
 30
0.0
  0
VERTEX
  5
3A5
  8
PAGE_2
 10
1455.610832929744
 20
1564.170073533672
 30
0.0
  0
VERTEX
  5
3A6
  8
PAGE_2
 10
1455.435340282447
 20
1564.010756901592
 30
0.0
  0
VERTEX
  5
3A7
  8
PAGE_2
 10
1455.251276582088
 20
1563.86000873875
 30
0.0
  0
VERTEX
  5
3A8
  8
PAGE_2
 10
1455.058837165584
 20
1563.717632157939
 30
0.0
  0
VERTEX
  5
3A9
  8
PAGE_2
 10
1454.858217369849
 20
1563.583430271953
 30
0.0
  0
VERTEX
  5
3AA
  8
PAGE_2
 10
1454.649612531795
 20
1563.457206193584
 30
0.0
  0
VERTEX
  5
3AB
  8
PAGE_2
 10
1454.433217988338
 20
1563.338763035625
 30
0.0
  0
VERTEX
  5
3AC
  8
PAGE_2
 10
1454.209229076392
 20
1563.227903910869
 30
0.0
  0
VERTEX
  5
3AD
  8
PAGE_2
 10
1453.97784113287
 20
1563.124431932109
 30
0.0
  0
VERTEX
  5
3AE
  8
PAGE_2
 10
1453.739249494686
 20
1563.028150212139
 30
0.0
  0
VERTEX
  5
3AF
  8
PAGE_2
 10
1453.493649498755
 20
1562.93886186375
 30
0.0
  0
VERTEX
  5
3B0
  8
PAGE_2
 10
1449.239149498755
 20
1562.93886186375
 30
0.0
  0
VERTEX
  5
3B1
  8
PAGE_2
 10
1448.998271436825
 20
1563.022825903192
 30
0.0
  0
VERTEX
  5
3B2
  8
PAGE_2
 10
1448.765927737687
 20
1563.115323788663
 30
0.0
  0
VERTEX
  5
3B3
  8
PAGE_2
 10
1448.541946318823
 20
1563.216182920879
 30
0.0
  0
VERTEX
  5
3B4
  8
PAGE_2
 10
1448.326155097713
 20
1563.325230700556
 30
0.0
  0
VERTEX
  5
3B5
  8
PAGE_2
 10
1448.118381991838
 20
1563.44229452841
 30
0.0
  0
VERTEX
  5
3B6
  8
PAGE_2
 10
1447.918454918677
 20
1563.567201805157
 30
0.0
  0
VERTEX
  5
3B7
  8
PAGE_2
 10
1447.726201795711
 20
1563.699779931513
 30
0.0
  0
VERTEX
  5
3B8
  8
PAGE_2
 10
1447.541450540422
 20
1563.839856308195
 30
0.0
  0
VERTEX
  5
3B9
  8
PAGE_2
 10
1447.364029070288
 20
1563.987258335918
 30
0.0
  0
VERTEX
  5
3BA
  8
PAGE_2
 10
1447.193765302792
 20
1564.1418134154
 30
0.0
  0
VERTEX
  5
3BB
  8
PAGE_2
 10
1447.030487155412
 20
1564.303348947355
 30
0.0
  0
VERTEX
  5
3BC
  8
PAGE_2
 10
1446.87402254563
 20
1564.4716923325
 30
0.0
  0
VERTEX
  5
3BD
  8
PAGE_2
 10
1446.724199390927
 20
1564.646670971552
 30
0.0
  0
VERTEX
  5
3BE
  8
PAGE_2
 10
1446.580845608781
 20
1564.828112265226
 30
0.0
  0
VERTEX
  5
3BF
  8
PAGE_2
 10
1446.443789116675
 20
1565.015843614238
 30
0.0
  0
VERTEX
  5
3C0
  8
PAGE_2
 10
1446.312857832088
 20
1565.209692419306
 30
0.0
  0
VERTEX
  5
3C1
  8
PAGE_2
 10
1446.312857832088
 20
1601.981131308195
 30
0.0
  0
VERTEX
  5
3C2
  8
PAGE_2
 10
1446.307939122577
 20
1602.366321899466
 30
0.0
  0
VERTEX
  5
3C3
  8
PAGE_2
 10
1446.293263022535
 20
1602.749197249306
 30
0.0
  0
VERTEX
  5
3C4
  8
PAGE_2
 10
1446.268949574699
 20
1603.129637331125
 30
0.0
  0
VERTEX
  5
3C5
  8
PAGE_2
 10
1446.235118821807
 20
1603.507522118335
 30
0.0
  0
VERTEX
  5
3C6
  8
PAGE_2
 10
1446.191890806597
 20
1603.882731584347
 30
0.0
  0
VERTEX
  5
3C7
  8
PAGE_2
 10
1446.139385571804
 20
1604.255145702573
 30
0.0
  0
VERTEX
  5
3C8
  8
PAGE_2
 10
1446.077723160167
 20
1604.624644446425
 30
0.0
  0
VERTEX
  5
3C9
  8
PAGE_2
 10
1446.007023614423
 20
1604.991107789314
 30
0.0
  0
VERTEX
  5
3CA
  8
PAGE_2
 10
1445.92740697731
 20
1605.354415704652
 30
0.0
  0
VERTEX
  5
3CB
  8
PAGE_2
 10
1445.838993291564
 20
1605.71444816585
 30
0.0
  0
VERTEX
  5
3CC
  8
PAGE_2
 10
1445.741902599924
 20
1606.07108514632
 30
0.0
  0
VERTEX
  5
3CD
  8
PAGE_2
 10
1445.636254945126
 20
1606.424206619474
 30
0.0
  0
VERTEX
  5
3CE
  8
PAGE_2
 10
1445.522170369907
 20
1606.773692558722
 30
0.0
  0
VERTEX
  5
3CF
  8
PAGE_2
 10
1445.399768917005
 20
1607.119422937477
 30
0.0
  0
VERTEX
  5
3D0
  8
PAGE_2
 10
1445.269170629158
 20
1607.46127772915
 30
0.0
  0
VERTEX
  5
3D1
  8
PAGE_2
 10
1445.130495549102
 20
1607.799136907153
 30
0.0
  0
VERTEX
  5
3D2
  8
PAGE_2
 10
1444.983863719576
 20
1608.132880444897
 30
0.0
  0
VERTEX
  5
3D3
  8
PAGE_2
 10
1444.829395183315
 20
1608.462388315793
 30
0.0
  0
VERTEX
  5
3D4
  8
PAGE_2
 10
1444.667209983058
 20
1608.787540493254
 30
0.0
  0
VERTEX
  5
3D5
  8
PAGE_2
 10
1444.497428161543
 20
1609.108216950691
 30
0.0
  0
VERTEX
  5
3D6
  8
PAGE_2
 10
1444.320169761505
 20
1609.424297661516
 30
0.0
  0
VERTEX
  5
3D7
  8
PAGE_2
 10
1444.135554825683
 20
1609.735662599139
 30
0.0
  0
VERTEX
  5
3D8
  8
PAGE_2
 10
1443.943703396814
 20
1610.042191736973
 30
0.0
  0
VERTEX
  5
3D9
  8
PAGE_2
 10
1443.744735517635
 20
1610.343765048429
 30
0.0
  0
VERTEX
  5
3DA
  8
PAGE_2
 10
1443.538771230884
 20
1610.640262506919
 30
0.0
  0
VERTEX
  5
3DB
  8
PAGE_2
 10
1443.325930579298
 20
1610.931564085854
 30
0.0
  0
VERTEX
  5
3DC
  8
PAGE_2
 10
1443.106333605614
 20
1611.217549758645
 30
0.0
  0
VERTEX
  5
3DD
  8
PAGE_2
 10
1442.880100352569
 20
1611.498099498705
 30
0.0
  0
VERTEX
  5
3DE
  8
PAGE_2
 10
1442.647350862901
 20
1611.773093279446
 30
0.0
  0
VERTEX
  5
3DF
  8
PAGE_2
 10
1442.408205179348
 20
1612.042411074277
 30
0.0
  0
VERTEX
  5
3E0
  8
PAGE_2
 10
1442.162783344646
 20
1612.305932856612
 30
0.0
  0
VERTEX
  5
3E1
  8
PAGE_2
 10
1441.911205401533
 20
1612.563538599861
 30
0.0
  0
VERTEX
  5
3E2
  8
PAGE_2
 10
1441.653591392746
 20
1612.815108277437
 30
0.0
  0
VERTEX
  5
3E3
  8
PAGE_2
 10
1441.390061361022
 20
1613.06052186275
 30
0.0
  0
VERTEX
  5
3E4
  8
PAGE_2
 10
1441.1207353491
 20
1613.299659329212
 30
0.0
  0
VERTEX
  5
3E5
  8
PAGE_2
 10
1440.845733399715
 20
1613.532400650236
 30
0.0
  0
VERTEX
  5
3E6
  8
PAGE_2
 10
1440.565175555606
 20
1613.758625799231
 30
0.0
  0
VERTEX
  5
3E7
  8
PAGE_2
 10
1440.27918185951
 20
1613.978214749611
 30
0.0
  0
VERTEX
  5
3E8
  8
PAGE_2
 10
1439.987872354164
 20
1614.191047474786
 30
0.0
  0
VERTEX
  5
3E9
  8
PAGE_2
 10
1439.691367082305
 20
1614.397003948168
 30
0.0
  0
VERTEX
  5
3EA
  8
PAGE_2
 10
1439.389786086671
 20
1614.595964143169
 30
0.0
  0
VERTEX
  5
3EB
  8
PAGE_2
 10
1439.08324941
 20
1614.7878080332
 30
0.0
  0
VERTEX
  5
3EC
  8
PAGE_2
 10
1438.771877095027
 20
1614.972415591673
 30
0.0
  0
VERTEX
  5
3ED
  8
PAGE_2
 10
1438.455789184492
 20
1615.149666792
 30
0.0
  0
VERTEX
  5
3EE
  8
PAGE_2
 10
1438.13510572113
 20
1615.319441607591
 30
0.0
  0
VERTEX
  5
3EF
  8
PAGE_2
 10
1437.80994674768
 20
1615.481620011858
 30
0.0
  0
VERTEX
  5
3F0
  8
PAGE_2
 10
1437.480432306879
 20
1615.636081978214
 30
0.0
  0
VERTEX
  5
3F1
  8
PAGE_2
 10
1437.146682441463
 20
1615.782707480069
 30
0.0
  0
VERTEX
  5
3F2
  8
PAGE_2
 10
1436.808817194171
 20
1615.921376490836
 30
0.0
  0
VERTEX
  5
3F3
  8
PAGE_2
 10
1436.46695660774
 20
1616.051968983925
 30
0.0
  0
VERTEX
  5
3F4
  8
PAGE_2
 10
1436.121220724906
 20
1616.174364932748
 30
0.0
  0
VERTEX
  5
3F5
  8
PAGE_2
 10
1435.771729588409
 20
1616.288444310717
 30
0.0
  0
VERTEX
  5
3F6
  8
PAGE_2
 10
1435.418603240983
 20
1616.394087091244
 30
0.0
  0
VERTEX
  5
3F7
  8
PAGE_2
 10
1435.061961725368
 20
1616.491173247739
 30
0.0
  0
VERTEX
  5
3F8
  8
PAGE_2
 10
1434.7019250843
 20
1616.579582753615
 30
0.0
  0
VERTEX
  5
3F9
  8
PAGE_2
 10
1434.338613360517
 20
1616.659195582283
 30
0.0
  0
VERTEX
  5
3FA
  8
PAGE_2
 10
1433.972146596755
 20
1616.729891707154
 30
0.0
  0
VERTEX
  5
3FB
  8
PAGE_2
 10
1433.602644835754
 20
1616.791551101641
 30
0.0
  0
VERTEX
  5
3FC
  8
PAGE_2
 10
1433.230228120249
 20
1616.844053739155
 30
0.0
  0
VERTEX
  5
3FD
  8
PAGE_2
 10
1432.855016492977
 20
1616.887279593107
 30
0.0
  0
VERTEX
  5
3FE
  8
PAGE_2
 10
1432.477129996677
 20
1616.921108636908
 30
0.0
  0
VERTEX
  5
3FF
  8
PAGE_2
 10
1432.096688674085
 20
1616.945420843971
 30
0.0
  0
VERTEX
  5
400
  8
PAGE_2
 10
1431.71381256794
 20
1616.960096187707
 30
0.0
  0
VERTEX
  5
401
  8
PAGE_2
 10
1431.328621720977
 20
1616.965014641528
 30
0.0
  0
VERTEX
  5
402
  8
PAGE_2
 10
1401.832518943199
 20
1616.965014641528
 30
0.0
  0
VERTEX
  5
403
  8
PAGE_2
 10
1401.447328096237
 20
1616.960096187707
 30
0.0
  0
VERTEX
  5
404
  8
PAGE_2
 10
1401.064451990091
 20
1616.945420843971
 30
0.0
  0
VERTEX
  5
405
  8
PAGE_2
 10
1400.6840106675
 20
1616.921108636908
 30
0.0
  0
VERTEX
  5
406
  8
PAGE_2
 10
1400.306124171199
 20
1616.887279593107
 30
0.0
  0
VERTEX
  5
407
  8
PAGE_2
 10
1399.930912543928
 20
1616.844053739155
 30
0.0
  0
VERTEX
  5
408
  8
PAGE_2
 10
1399.558495828423
 20
1616.791551101641
 30
0.0
  0
VERTEX
  5
409
  8
PAGE_2
 10
1399.188994067421
 20
1616.729891707154
 30
0.0
  0
VERTEX
  5
40A
  8
PAGE_2
 10
1398.822527303659
 20
1616.659195582283
 30
0.0
  0
VERTEX
  5
40B
  8
PAGE_2
 10
1398.459215579876
 20
1616.579582753615
 30
0.0
  0
VERTEX
  5
40C
  8
PAGE_2
 10
1398.099178938808
 20
1616.491173247739
 30
0.0
  0
VERTEX
  5
40D
  8
PAGE_2
 10
1397.742537423193
 20
1616.394087091244
 30
0.0
  0
VERTEX
  5
40E
  8
PAGE_2
 10
1397.389411075768
 20
1616.288444310717
 30
0.0
  0
VERTEX
  5
40F
  8
PAGE_2
 10
1397.03991993927
 20
1616.174364932748
 30
0.0
  0
VERTEX
  5
410
  8
PAGE_2
 10
1396.694184056437
 20
1616.051968983925
 30
0.0
  0
VERTEX
  5
411
  8
PAGE_2
 10
1396.352323470005
 20
1615.921376490836
 30
0.0
  0
VERTEX
  5
412
  8
PAGE_2
 10
1396.014458222713
 20
1615.782707480069
 30
0.0
  0
VERTEX
  5
413
  8
PAGE_2
 10
1395.680708357298
 20
1615.636081978214
 30
0.0
  0
VERTEX
  5
414
  8
PAGE_2
 10
1395.351193916496
 20
1615.481620011858
 30
0.0
  0
VERTEX
  5
415
  8
PAGE_2
 10
1395.026034943046
 20
1615.319441607591
 30
0.0
  0
VERTEX
  5
416
  8
PAGE_2
 10
1394.705351479685
 20
1615.149666792
 30
0.0
  0
VERTEX
  5
417
  8
PAGE_2
 10
1394.389263569149
 20
1614.972415591673
 30
0.0
  0
VERTEX
  5
418
  8
PAGE_2
 10
1394.077891254177
 20
1614.7878080332
 30
0.0
  0
VERTEX
  5
419
  8
PAGE_2
 10
1393.771354577505
 20
1614.595964143169
 30
0.0
  0
VERTEX
  5
41A
  8
PAGE_2
 10
1393.469773581871
 20
1614.397003948168
 30
0.0
  0
VERTEX
  5
41B
  8
PAGE_2
 10
1393.173268310013
 20
1614.191047474786
 30
0.0
  0
VERTEX
  5
41C
  8
PAGE_2
 10
1392.881958804666
 20
1613.978214749611
 30
0.0
  0
VERTEX
  5
41D
  8
PAGE_2
 10
1392.59596510857
 20
1613.758625799231
 30
0.0
  0
VERTEX
  5
41E
  8
PAGE_2
 10
1392.315407264461
 20
1613.532400650236
 30
0.0
  0
VERTEX
  5
41F
  8
PAGE_2
 10
1392.040405315076
 20
1613.299659329212
 30
0.0
  0
VERTEX
  5
420
  8
PAGE_2
 10
1391.771079303154
 20
1613.06052186275
 30
0.0
  0
VERTEX
  5
421
  8
PAGE_2
 10
1391.507549271431
 20
1612.815108277437
 30
0.0
  0
VERTEX
  5
422
  8
PAGE_2
 10
1391.249935262644
 20
1612.563538599861
 30
0.0
  0
VERTEX
  5
423
  8
PAGE_2
 10
1390.998357319531
 20
1612.305932856612
 30
0.0
  0
VERTEX
  5
424
  8
PAGE_2
 10
1390.752935484828
 20
1612.042411074277
 30
0.0
  0
VERTEX
  5
425
  8
PAGE_2
 10
1390.513789801275
 20
1611.773093279446
 30
0.0
  0
VERTEX
  5
426
  8
PAGE_2
 10
1390.281040311607
 20
1611.498099498705
 30
0.0
  0
VERTEX
  5
427
  8
PAGE_2
 10
1390.054807058563
 20
1611.217549758645
 30
0.0
  0
VERTEX
  5
428
  8
PAGE_2
 10
1389.835210084879
 20
1610.931564085854
 30
0.0
  0
VERTEX
  5
429
  8
PAGE_2
 10
1389.622369433292
 20
1610.640262506919
 30
0.0
  0
VERTEX
  5
42A
  8
PAGE_2
 10
1389.416405146541
 20
1610.343765048429
 30
0.0
  0
VERTEX
  5
42B
  8
PAGE_2
 10
1389.217437267362
 20
1610.042191736973
 30
0.0
  0
VERTEX
  5
42C
  8
PAGE_2
 10
1389.025585838493
 20
1609.735662599139
 30
0.0
  0
VERTEX
  5
42D
  8
PAGE_2
 10
1388.840970902671
 20
1609.424297661516
 30
0.0
  0
VERTEX
  5
42E
  8
PAGE_2
 10
1388.663712502634
 20
1609.108216950691
 30
0.0
  0
VERTEX
  5
42F
  8
PAGE_2
 10
1388.493930681118
 20
1608.787540493254
 30
0.0
  0
VERTEX
  5
430
  8
PAGE_2
 10
1388.331745480861
 20
1608.462388315793
 30
0.0
  0
VERTEX
  5
431
  8
PAGE_2
 10
1388.177276944601
 20
1608.132880444897
 30
0.0
  0
VERTEX
  5
432
  8
PAGE_2
 10
1388.030645115074
 20
1607.799136907153
 30
0.0
  0
VERTEX
  5
433
  8
PAGE_2
 10
1387.891970035018
 20
1607.46127772915
 30
0.0
  0
VERTEX
  5
434
  8
PAGE_2
 10
1387.761371747171
 20
1607.119422937477
 30
0.0
  0
VERTEX
  5
435
  8
PAGE_2
 10
1387.638970294269
 20
1606.773692558722
 30
0.0
  0
VERTEX
  5
436
  8
PAGE_2
 10
1387.524885719051
 20
1606.424206619474
 30
0.0
  0
VERTEX
  5
437
  8
PAGE_2
 10
1387.419238064253
 20
1606.07108514632
 30
0.0
  0
VERTEX
  5
438
  8
PAGE_2
 10
1387.322147372612
 20
1605.71444816585
 30
0.0
  0
VERTEX
  5
439
  8
PAGE_2
 10
1387.233733686866
 20
1605.354415704652
 30
0.0
  0
VERTEX
  5
43A
  8
PAGE_2
 10
1387.154117049753
 20
1604.991107789314
 30
0.0
  0
VERTEX
  5
43B
  8
PAGE_2
 10
1387.08341750401
 20
1604.624644446425
 30
0.0
  0
VERTEX
  5
43C
  8
PAGE_2
 10
1387.021755092373
 20
1604.255145702573
 30
0.0
  0
VERTEX
  5
43D
  8
PAGE_2
 10
1386.96924985758
 20
1603.882731584347
 30
0.0
  0
VERTEX
  5
43E
  8
PAGE_2
 10
1386.926021842369
 20
1603.507522118335
 30
0.0
  0
VERTEX
  5
43F
  8
PAGE_2
 10
1386.892191089477
 20
1603.129637331125
 30
0.0
  0
VERTEX
  5
440
  8
PAGE_2
 10
1386.867877641641
 20
1602.749197249306
 30
0.0
  0
VERTEX
  5
441
  8
PAGE_2
 10
1386.853201541599
 20
1602.366321899466
 30
0.0
  0
VERTEX
  5
442
  8
PAGE_2
 10
1386.848282832088
 20
1601.981131308195
 30
0.0
  0
VERTEX
  5
443
  8
PAGE_2
 10
1386.848282832088
 20
1575.170725752639
 30
0.0
  0
VERTEX
  5
444
  8
PAGE_2
 10
1386.848282832088
 20
1569.916806308195
 30
0.0
  0
VERTEX
  5
445
  8
PAGE_2
 10
1386.848282832088
 20
1565.188878530417
 30
0.0
  0
VERTEX
  5
446
  8
PAGE_2
 10
1386.848282832088
 20
1563.731200752639
 30
0.0
  0
VERTEX
  5
447
  8
PAGE_2
 10
1386.848282832088
 20
1552.897395197084
 30
0.0
  0
VERTEX
  5
448
  8
PAGE_2
 10
1380.878577276533
 20
1547.488959085972
 30
0.0
  0
VERTEX
  5
449
  8
PAGE_2
 10
1386.848282832088
 20
1547.488959085972
 30
0.0
  0
VERTEX
  5
44A
  8
PAGE_2
 10
1386.848282832088
 20
1546.657109085972
 30
0.0
  0
VERTEX
  5
44B
  8
PAGE_2
 10
1386.72707042025
 20
1546.487491101624
 30
0.0
  0
VERTEX
  5
44C
  8
PAGE_2
 10
1386.598630542592
 20
1546.321870289314
 30
0.0
  0
VERTEX
  5
44D
  8
PAGE_2
 10
1386.463135798397
 20
1546.160151047642
 30
0.0
  0
VERTEX
  5
44E
  8
PAGE_2
 10
1386.320758786949
 20
1546.002237775208
 30
0.0
  0
VERTEX
  5
44F
  8
PAGE_2
 10
1386.016048359432
 20
1545.697446732457
 30
0.0
  0
VERTEX
  5
450
  8
PAGE_2
 10
1385.68588005431
 20
1545.406732349861
 30
0.0
  0
VERTEX
  5
451
  8
PAGE_2
 10
1385.331634665856
 20
1545.129329816224
 30
0.0
  0
VERTEX
  5
452
  8
PAGE_2
 10
1384.954692988338
 20
1544.864474320348
 30
0.0
  0
VERTEX
  5
453
  8
PAGE_2
 10
1384.556435816029
 20
1544.611401051033
 30
0.0
  0
VERTEX
  5
454
  8
PAGE_2
 10
1384.138243943199
 20
1544.369345197083
 30
0.0
  0
VERTEX
  5
455
  8
PAGE_2
 10
1376.688282832088
 20
1544.369345197083
 30
0.0
  0
VERTEX
  5
456
  8
PAGE_2
 10
1376.688282832088
 20
1562.297864641528
 30
0.0
  0
VERTEX
  5
457
  8
PAGE_2
 10
1376.688282832088
 20
1562.305978530417
 30
0.0
  0
VERTEX
  5
458
  8
PAGE_2
 10
1376.688282832088
 20
1562.314092419306
 30
0.0
  0
VERTEX
  5
459
  8
PAGE_2
 10
1376.688282832088
 20
1562.322559085972
 30
0.0
  0
VERTEX
  5
45A
  8
PAGE_2
 10
1376.688282832088
 20
1562.330320197083
 30
0.0
  0
VERTEX
  5
45B
  8
PAGE_2
 10
1376.688282832088
 20
1575.170725752639
 30
0.0
  0
VERTEX
  5
45C
  8
PAGE_2
 10
1376.688282832088
 20
1601.980778530417
 30
0.0
  0
VERTEX
  5
45D
  8
PAGE_2
 10
1376.696536609349
 20
1602.627165195422
 30
0.0
  0
VERTEX
  5
45E
  8
PAGE_2
 10
1376.721163652384
 20
1603.269666438674
 30
0.0
  0
VERTEX
  5
45F
  8
PAGE_2
 10
1376.761962528076
 20
1603.908080851279
 30
0.0
  0
VERTEX
  5
460
  8
PAGE_2
 10
1376.818731803307
 20
1604.542207024341
 30
0.0
  0
VERTEX
  5
461
  8
PAGE_2
 10
1376.891270044958
 20
1605.171843548965
 30
0.0
  0
VERTEX
  5
462
  8
PAGE_2
 10
1376.979375819912
 20
1605.796789016257
 30
0.0
  0
VERTEX
  5
463
  8
PAGE_2
 10
1377.08284769505
 20
1606.416842017321
 30
0.0
  0
VERTEX
  5
464
  8
PAGE_2
 10
1377.201484237253
 20
1607.031801143264
 30
0.0
  0
VERTEX
  5
465
  8
PAGE_2
 10
1377.335084013405
 20
1607.641464985189
 30
0.0
  0
VERTEX
  5
466
  8
PAGE_2
 10
1377.483445590386
 20
1608.245632134204
 30
0.0
  0
VERTEX
  5
467
  8
PAGE_2
 10
1377.646367535078
 20
1608.844101181411
 30
0.0
  0
VERTEX
  5
468
  8
PAGE_2
 10
1377.823648414364
 20
1609.436670717917
 30
0.0
  0
VERTEX
  5
469
  8
PAGE_2
 10
1378.015086795124
 20
1610.023139334826
 30
0.0
  0
VERTEX
  5
46A
  8
PAGE_2
 10
1378.220481244242
 20
1610.603305623244
 30
0.0
  0
VERTEX
  5
46B
  8
PAGE_2
 10
1378.439630328598
 20
1611.176968174277
 30
0.0
  0
VERTEX
  5
46C
  8
PAGE_2
 10
1378.672332615074
 20
1611.743925579028
 30
0.0
  0
VERTEX
  5
46D
  8
PAGE_2
 10
1378.918386670553
 20
1612.303976428603
 30
0.0
  0
VERTEX
  5
46E
  8
PAGE_2
 10
1379.177591061916
 20
1612.856919314108
 30
0.0
  0
VERTEX
  5
46F
  8
PAGE_2
 10
1379.449744356045
 20
1613.402552826647
 30
0.0
  0
VERTEX
  5
470
  8
PAGE_2
 10
1379.734645119821
 20
1613.940675557326
 30
0.0
  0
VERTEX
  5
471
  8
PAGE_2
 10
1380.032091920128
 20
1614.47108609725
 30
0.0
  0
VERTEX
  5
472
  8
PAGE_2
 10
1380.341883323845
 20
1614.993583037524
 30
0.0
  0
VERTEX
  5
473
  8
PAGE_2
 10
1380.663817897856
 20
1615.507964969253
 30
0.0
  0
VERTEX
  5
474
  8
PAGE_2
 10
1380.997694209041
 20
1616.014030483542
 30
0.0
  0
VERTEX
  5
475
  8
PAGE_2
 10
1381.343310824284
 20
1616.511578171496
 30
0.0
  0
VERTEX
  5
476
  8
PAGE_2
 10
1381.700466310465
 20
1617.000406624221
 30
0.0
  0
VERTEX
  5
477
  8
PAGE_2
 10
1382.068959234467
 20
1617.480314432822
 30
0.0
  0
VERTEX
  5
478
  8
PAGE_2
 10
1382.44858816317
 20
1617.951100188403
 30
0.0
  0
VERTEX
  5
479
  8
PAGE_2
 10
1382.839151663458
 20
1618.41256248207
 30
0.0
  0
VERTEX
  5
47A
  8
PAGE_2
 10
1383.240448302211
 20
1618.864499904929
 30
0.0
  0
VERTEX
  5
47B
  8
PAGE_2
 10
1383.652276646313
 20
1619.306711048083
 30
0.0
  0
VERTEX
  5
47C
  8
PAGE_2
 10
1384.074435262644
 20
1619.738994502639
 30
0.0
  0
VERTEX
  5
47D
  8
PAGE_2
 10
1384.506722718086
 20
1620.161148859701
 30
0.0
  0
VERTEX
  5
47E
  8
PAGE_2
 10
1384.948937579521
 20
1620.572972710375
 30
0.0
  0
VERTEX
  5
47F
  8
PAGE_2
 10
1385.400878413832
 20
1620.974264645766
 30
0.0
  0
VERTEX
  5
480
  8
PAGE_2
 10
1385.862343787899
 20
1621.364823256979
 30
0.0
  0
VERTEX
  5
481
  8
PAGE_2
 10
1386.333132268604
 20
1621.744447135119
 30
0.0
  0
VERTEX
  5
482
  8
PAGE_2
 10
1386.813042422831
 20
1622.112934871291
 30
0.0
  0
VERTEX
  5
483
  8
PAGE_2
 10
1387.301872817459
 20
1622.470085056601
 30
0.0
  0
VERTEX
  5
484
  8
PAGE_2
 10
1387.799422019371
 20
1622.815696282153
 30
0.0
  0
VERTEX
  5
485
  8
PAGE_2
 10
1388.30548859545
 20
1623.149567139053
 30
0.0
  0
VERTEX
  5
486
  8
PAGE_2
 10
1388.819871112576
 20
1623.471496218405
 30
0.0
  0
VERTEX
  5
487
  8
PAGE_2
 10
1389.342368137631
 20
1623.781282111315
 30
0.0
  0
VERTEX
  5
488
  8
PAGE_2
 10
1389.872778237498
 20
1624.078723408889
 30
0.0
  0
VERTEX
  5
489
  8
PAGE_2
 10
1390.410899979057
 20
1624.363618702231
 30
0.0
  0
VERTEX
  5
48A
  8
PAGE_2
 10
1390.956531929192
 20
1624.635766582446
 30
0.0
  0
VERTEX
  5
48B
  8
PAGE_2
 10
1391.509472654783
 20
1624.89496564064
 30
0.0
  0
VERTEX
  5
48C
  8
PAGE_2
 10
1392.069520722713
 20
1625.141014467917
 30
0.0
  0
VERTEX
  5
48D
  8
PAGE_2
 10
1392.636474699864
 20
1625.373711655383
 30
0.0
  0
VERTEX
  5
48E
  8
PAGE_2
 10
1393.210133153116
 20
1625.592855794143
 30
0.0
  0
VERTEX
  5
48F
  8
PAGE_2
 10
1393.790294649353
 20
1625.798245475302
 30
0.0
  0
VERTEX
  5
490
  8
PAGE_2
 10
1394.376757755455
 20
1625.989679289966
 30
0.0
  0
VERTEX
  5
491
  8
PAGE_2
 10
1394.969321038305
 20
1626.166955829238
 30
0.0
  0
VERTEX
  5
492
  8
PAGE_2
 10
1395.567783064785
 20
1626.329873684225
 30
0.0
  0
VERTEX
  5
493
  8
PAGE_2
 10
1396.171942401776
 20
1626.478231446032
 30
0.0
  0
VERTEX
  5
494
  8
PAGE_2
 10
1396.78159761616
 20
1626.611827705764
 30
0.0
  0
VERTEX
  5
495
  8
PAGE_2
 10
1397.396547274818
 20
1626.730461054526
 30
0.0
  0
VERTEX
  5
496
  8
PAGE_2
 10
1398.016589944634
 20
1626.833930083423
 30
0.0
  0
VERTEX
  5
497
  8
PAGE_2
 10
1398.641524192488
 20
1626.92203338356
 30
0.0
  0
VERTEX
  5
498
  8
PAGE_2
 10
1399.271148585262
 20
1626.994569546042
 30
0.0
  0
VERTEX
  5
499
  8
PAGE_2
 10
1399.905261689839
 20
1627.051337161975
 30
0.0
  0
VERTEX
  5
49A
  8
PAGE_2
 10
1400.543662073099
 20
1627.092134822463
 30
0.0
  0
VERTEX
  5
49B
  8
PAGE_2
 10
1401.186148301925
 20
1627.116761118613
 30
0.0
  0
SEQEND
  5
49C
  8
PAGE_2
  0
POLYLINE
  5
49
  8
PAGE_2
 66
     1
 10
0.0
 20
0.0
 30
0.0
 70
     1
  0
VERTEX
  5
49D
  8
PAGE_2
 10
1451.194243943199
 20
1572.432464641528
 30
0.0
  0
VERTEX
  5
49E
  8
PAGE_2
 10
1451.357580517245
 20
1572.428332787789
 30
0.0
  0
VERTEX
  5
49F
  8
PAGE_2
 10
1451.518778397545
 20
1572.416070293383
 30
0.0
  0
VERTEX
  5
4A0
  8
PAGE_2
 10
1451.677637790093
 20
1572.395876758532
 30
0.0
  0
VERTEX
  5
4A1
  8
PAGE_2
 10
1451.833958900882
 20
1572.367951783455
 30
0.0
  0
VERTEX
  5
4A2
  8
PAGE_2
 10
1451.987541935906
 20
1572.332494968371
 30
0.0
  0
VERTEX
  5
4A3
  8
PAGE_2
 10
1452.138187101159
 20
1572.2897059135
 30
0.0
  0
VERTEX
  5
4A4
  8
PAGE_2
 10
1452.285694602633
 20
1572.239784219063
 30
0.0
  0
VERTEX
  5
4A5
  8
PAGE_2
 10
1452.429864646324
 20
1572.182929485278
 30
0.0
  0
VERTEX
  5
4A6
  8
PAGE_2
 10
1452.707393184329
 20
1572.049219300545
 30
0.0
  0
VERTEX
  5
4A7
  8
PAGE_2
 10
1452.969174363121
 20
1571.890172161059
 30
0.0
  0
VERTEX
  5
4A8
  8
PAGE_2
 10
1453.213609830651
 20
1571.707384868579
 30
0.0
  0
VERTEX
  5
4A9
  8
PAGE_2
 10
1453.439101234866
 20
1571.502454224861
 30
0.0
  0
VERTEX
  5
4AA
  8
PAGE_2
 10
1453.644050223717
 20
1571.276977031665
 30
0.0
  0
VERTEX
  5
4AB
  8
PAGE_2
 10
1453.826858445153
 20
1571.032550090747
 30
0.0
  0
VERTEX
  5
4AC
  8
PAGE_2
 10
1453.985927547122
 20
1570.770770203865
 30
0.0
  0
VERTEX
  5
4AD
  8
PAGE_2
 10
1454.056060443291
 20
1570.633871906237
 30
0.0
  0
VERTEX
  5
4AE
  8
PAGE_2
 10
1454.119659177574
 20
1570.493234172778
 30
0.0
  0
VERTEX
  5
4AF
  8
PAGE_2
 10
1454.176523955966
 20
1570.349056603706
 30
0.0
  0
VERTEX
  5
4B0
  8
PAGE_2
 10
1454.226454984459
 20
1570.201538799243
 30
0.0
  0
VERTEX
  5
4B1
  8
PAGE_2
 10
1454.269252469048
 20
1570.050880359607
 30
0.0
  0
VERTEX
  5
4B2
  8
PAGE_2
 10
1454.304716615725
 20
1569.897280885018
 30
0.0
  0
VERTEX
  5
4B3
  8
PAGE_2
 10
1454.332647630486
 20
1569.740939975696
 30
0.0
  0
VERTEX
  5
4B4
  8
PAGE_2
 10
1454.352845719322
 20
1569.58205723186
 30
0.0
  0
VERTEX
  5
4B5
  8
PAGE_2
 10
1454.365111088229
 20
1569.420832253731
 30
0.0
  0
VERTEX
  5
4B6
  8
PAGE_2
 10
1454.369243943199
 20
1569.257464641528
 30
0.0
  0
VERTEX
  5
4B7
  8
PAGE_2
 10
1454.365080050072
 20
1569.094097029325
 30
0.0
  0
VERTEX
  5
4B8
  8
PAGE_2
 10
1454.352787583336
 20
1568.932872051196
 30
0.0
  0
VERTEX
  5
4B9
  8
PAGE_2
 10
1454.332566143212
 20
1568.77398930736
 30
0.0
  0
VERTEX
  5
4BA
  8
PAGE_2
 10
1454.304615329918
 20
1568.617648398038
 30
0.0
  0
VERTEX
  5
4BB
  8
PAGE_2
 10
1454.269134743676
 20
1568.464048923449
 30
0.0
  0
VERTEX
  5
4BC
  8
PAGE_2
 10
1454.226323984703
 20
1568.313390483813
 30
0.0
  0
VERTEX
  5
4BD
  8
PAGE_2
 10
1454.176382653222
 20
1568.16587267935
 30
0.0
  0
VERTEX
  5
4BE
  8
PAGE_2
 10
1454.11951034945
 20
1568.021695110278
 30
0.0
  0
VERTEX
  5
4BF
  8
PAGE_2
 10
1453.985771225915
 20
1567.744159079191
 30
0.0
  0
VERTEX
  5
4C0
  8
PAGE_2
 10
1453.826703415856
 20
1567.482379192309
 30
0.0
  0
VERTEX
  5
4C1
  8
PAGE_2
 10
1453.643903721032
 20
1567.237952251391
 30
0.0
  0
VERTEX
  5
4C2
  8
PAGE_2
 10
1453.4389689432
 20
1567.012475058194
 30
0.0
  0
VERTEX
  5
4C3
  8
PAGE_2
 10
1453.213495884117
 20
1566.807544414477
 30
0.0
  0
VERTEX
  5
4C4
  8
PAGE_2
 10
1452.969081345543
 20
1566.624757121996
 30
0.0
  0
VERTEX
  5
4C5
  8
PAGE_2
 10
1452.707322129235
 20
1566.465709982511
 30
0.0
  0
VERTEX
  5
4C6
  8
PAGE_2
 10
1452.570437267479
 20
1566.39558797069
 30
0.0
  0
VERTEX
  5
4C7
  8
PAGE_2
 10
1452.42981503695
 20
1566.331999797778
 30
0.0
  0
VERTEX
  5
4C8
  8
PAGE_2
 10
1452.285655037865
 20
1566.275145063993
 30
0.0
  0
VERTEX
  5
4C9
  8
PAGE_2
 10
1452.138156870446
 20
1566.225223369555
 30
0.0
  0
VERTEX
  5
4CA
  8
PAGE_2
 10
1451.987520134911
 20
1566.182434314685
 30
0.0
  0
VERTEX
  5
4CB
  8
PAGE_2
 10
1451.833944431481
 20
1566.146977499601
 30
0.0
  0
VERTEX
  5
4CC
  8
PAGE_2
 10
1451.677629360375
 20
1566.119052524523
 30
0.0
  0
VERTEX
  5
4CD
  8
PAGE_2
 10
1451.518774521813
 20
1566.098858989672
 30
0.0
  0
VERTEX
  5
4CE
  8
PAGE_2
 10
1451.357579516014
 20
1566.086596495267
 30
0.0
  0
VERTEX
  5
4CF
  8
PAGE_2
 10
1451.194243943199
 20
1566.082464641528
 30
0.0
  0
VERTEX
  5
4D0
  8
PAGE_2
 10
1451.030876330996
 20
1566.086597496498
 30
0.0
  0
VERTEX
  5
4D1
  8
PAGE_2
 10
1450.869651352867
 20
1566.098862865405
 30
0.0
  0
VERTEX
  5
4D2
  8
PAGE_2
 10
1450.710768609032
 20
1566.119060954242
 30
0.0
  0
VERTEX
  5
4D3
  8
PAGE_2
 10
1450.55442769971
 20
1566.146991969002
 30
0.0
  0
VERTEX
  5
4D4
  8
PAGE_2
 10
1450.400828225121
 20
1566.18245611568
 30
0.0
  0
VERTEX
  5
4D5
  8
PAGE_2
 10
1450.250169785485
 20
1566.225253600268
 30
0.0
  0
VERTEX
  5
4D6
  8
PAGE_2
 10
1450.102651981021
 20
1566.275184628761
 30
0.0
  0
VERTEX
  5
4D7
  8
PAGE_2
 10
1449.95847441195
 20
1566.332049407153
 30
0.0
  0
VERTEX
  5
4D8
  8
PAGE_2
 10
1449.680938380862
 20
1566.465781037605
 30
0.0
  0
VERTEX
  5
4D9
  8
PAGE_2
 10
1449.419158493981
 20
1566.624850139575
 30
0.0
  0
VERTEX
  5
4DA
  8
PAGE_2
 10
1449.174731553063
 20
1566.80765836101
 30
0.0
  0
VERTEX
  5
4DB
  8
PAGE_2
 10
1448.949254359866
 20
1567.012607349861
 30
0.0
  0
VERTEX
  5
4DC
  8
PAGE_2
 10
1448.744323716149
 20
1567.238098754077
 30
0.0
  0
VERTEX
  5
4DD
  8
PAGE_2
 10
1448.561536423668
 20
1567.482534221606
 30
0.0
  0
VERTEX
  5
4DE
  8
PAGE_2
 10
1448.402489284183
 20
1567.744315400398
 30
0.0
  0
VERTEX
  5
4DF
  8
PAGE_2
 10
1448.332367272362
 20
1567.881211146502
 30
0.0
  0
VERTEX
  5
4E0
  8
PAGE_2
 10
1448.26877909945
 20
1568.021843938403
 30
0.0
  0
VERTEX
  5
4E1
  8
PAGE_2
 10
1448.211924365665
 20
1568.166013982094
 30
0.0
  0
VERTEX
  5
4E2
  8
PAGE_2
 10
1448.162002671227
 20
1568.313521483569
 30
0.0
  0
VERTEX
  5
4E3
  8
PAGE_2
 10
1448.119213616356
 20
1568.464166648821
 30
0.0
  0
VERTEX
  5
4E4
  8
PAGE_2
 10
1448.083756801273
 20
1568.617749683846
 30
0.0
  0
VERTEX
  5
4E5
  8
PAGE_2
 10
1448.055831826195
 20
1568.774070794635
 30
0.0
  0
VERTEX
  5
4E6
  8
PAGE_2
 10
1448.035638291344
 20
1568.932930187182
 30
0.0
  0
VERTEX
  5
4E7
  8
PAGE_2
 10
1448.023375796939
 20
1569.094128067482
 30
0.0
  0
VERTEX
  5
4E8
  8
PAGE_2
 10
1448.019243943199
 20
1569.257464641528
 30
0.0
  0
VERTEX
  5
4E9
  8
PAGE_2
 10
1448.023375796939
 20
1569.420832253731
 30
0.0
  0
VERTEX
  5
4EA
  8
PAGE_2
 10
1448.035638291344
 20
1569.58205723186
 30
0.0
  0
VERTEX
  5
4EB
  8
PAGE_2
 10
1448.055831826195
 20
1569.740939975696
 30
0.0
  0
VERTEX
  5
4EC
  8
PAGE_2
 10
1448.083756801273
 20
1569.897280885018
 30
0.0
  0
VERTEX
  5
4ED
  8
PAGE_2
 10
1448.119213616356
 20
1570.050880359607
 30
0.0
  0
VERTEX
  5
4EE
  8
PAGE_2
 10
1448.162002671227
 20
1570.201538799243
 30
0.0
  0
VERTEX
  5
4EF
  8
PAGE_2
 10
1448.211924365665
 20
1570.349056603706
 30
0.0
  0
VERTEX
  5
4F0
  8
PAGE_2
 10
1448.26877909945
 20
1570.493234172778
 30
0.0
  0
VERTEX
  5
4F1
  8
PAGE_2
 10
1448.402489284183
 20
1570.770770203865
 30
0.0
  0
VERTEX
  5
4F2
  8
PAGE_2
 10
1448.561536423668
 20
1571.032550090747
 30
0.0
  0
VERTEX
  5
4F3
  8
PAGE_2
 10
1448.744323716149
 20
1571.276977031665
 30
0.0
  0
VERTEX
  5
4F4
  8
PAGE_2
 10
1448.949254359866
 20
1571.502454224861
 30
0.0
  0
VERTEX
  5
4F5
  8
PAGE_2
 10
1449.174731553063
 20
1571.707384868579
 30
0.0
  0
VERTEX
  5
4F6
  8
PAGE_2
 10
1449.419158493981
 20
1571.890172161059
 30
0.0
  0
VERTEX
  5
4F7
  8
PAGE_2
 10
1449.680938380862
 20
1572.049219300545
 30
0.0
  0
VERTEX
  5
4F8
  8
PAGE_2
 10
1449.81783667849
 20
1572.119341312365
 30
0.0
  0
VERTEX
  5
4F9
  8
PAGE_2
 10
1449.95847441195
 20
1572.182929485278
 30
0.0
  0
VERTEX
  5
4FA
  8
PAGE_2
 10
1450.102651981021
 20
1572.239784219063
 30
0.0
  0
VERTEX
  5
4FB
  8
PAGE_2
 10
1450.250169785485
 20
1572.2897059135
 30
0.0
  0
VERTEX
  5
4FC
  8
PAGE_2
 10
1450.400828225121
 20
1572.332494968371
 30
0.0
  0
VERTEX
  5
4FD
  8
PAGE_2
 10
1450.55442769971
 20
1572.367951783455
 30
0.0
  0
VERTEX
  5
4FE
  8
PAGE_2
 10
1450.710768609032
 20
1572.395876758532
 30
0.0
  0
VERTEX
  5
4FF
  8
PAGE_2
 10
1450.869651352867
 20
1572.416070293383
 30
0.0
  0
VERTEX
  5
500
  8
PAGE_2
 10
1451.030876330996
 20
1572.428332787789
 30
0.0
  0
SEQEND
  5
501
  8
PAGE_2
  0
POLYLINE
  5
4A
  8
PAGE_2
 66
     1
 10
0.0
 20
0.0
 30
0.0
 70
     1
  0
VERTEX
  5
502
  8
PAGE_2
 10
1712.618359571515
 20
1607.42670033216
 30
0.0
  0
VERTEX
  5
503
  8
PAGE_2
 10
1712.618359571515
 20
1601.484511443271
 30
0.0
  0
VERTEX
  5
504
  8
PAGE_2
 10
1697.440095682626
 20
1601.484511443271
 30
0.0
  0
VERTEX
  5
505
  8
PAGE_2
 10
1697.016056793737
 20
1601.484511443271
 30
0.0
  0
VERTEX
  5
506
  8
PAGE_2
 10
1696.715842904848
 20
1601.484511443271
 30
0.0
  0
VERTEX
  5
507
  8
PAGE_2
 10
1695.590129015959
 20
1601.484511443271
 30
0.0
  0
VERTEX
  5
508
  8
PAGE_2
 10
1684.265962349292
 20
1601.484511443271
 30
0.0
  0
VERTEX
  5
509
  8
PAGE_2
 10
1684.265962349292
 20
1585.23662533216
 30
0.0
  0
VERTEX
  5
50A
  8
PAGE_2
 10
1699.860856793737
 20
1585.23662533216
 30
0.0
  0
VERTEX
  5
50B
  8
PAGE_2
 10
1699.860856793737
 20
1581.745889221049
 30
0.0
  0
VERTEX
  5
50C
  8
PAGE_2
 10
1673.860781793737
 20
1581.745889221049
 30
0.0
  0
VERTEX
  5
50D
  8
PAGE_2
 10
1673.860781793737
 20
1575.644597554382
 30
0.0
  0
VERTEX
  5
50E
  8
PAGE_2
 10
1652.030892904848
 20
1575.644597554382
 30
0.0
  0
VERTEX
  5
50F
  8
PAGE_2
 10
1651.52940137924
 20
1575.27346775295
 30
0.0
  0
VERTEX
  5
510
  8
PAGE_2
 10
1651.03170497082
 20
1574.895545601257
 30
0.0
  0
VERTEX
  5
511
  8
PAGE_2
 10
1650.537861557192
 20
1574.51071947821
 30
0.0
  0
VERTEX
  5
512
  8
PAGE_2
 10
1650.047929015959
 20
1574.118877762716
 30
0.0
  0
VERTEX
  5
513
  8
PAGE_2
 10
1649.561965224726
 20
1573.719908833679
 30
0.0
  0
VERTEX
  5
514
  8
PAGE_2
 10
1649.080028061098
 20
1573.313701070007
 30
0.0
  0
VERTEX
  5
515
  8
PAGE_2
 10
1648.602175402678
 20
1572.900142850606
 30
0.0
  0
VERTEX
  5
516
  8
PAGE_2
 10
1648.12846512707
 20
1572.479122554382
 30
0.0
  0
VERTEX
  5
517
  8
PAGE_2
 10
1648.12846512707
 20
1551.155822554382
 30
0.0
  0
VERTEX
  5
518
  8
PAGE_2
 10
1661.556951238181
 20
1551.155822554382
 30
0.0
  0
VERTEX
  5
519
  8
PAGE_2
 10
1661.556951238181
 20
1531.71565033216
 30
0.0
  0
VERTEX
  5
51A
  8
PAGE_2
 10
1661.556951238181
 20
1530.240686443271
 30
0.0
  0
VERTEX
  5
51B
  8
PAGE_2
 10
1661.556951238181
 20
1526.63882533216
 30
0.0
  0
VERTEX
  5
51C
  8
PAGE_2
 10
1647.628226238181
 20
1526.63882533216
 30
0.0
  0
VERTEX
  5
51D
  8
PAGE_2
 10
1647.628226238181
 20
1520.172055887716
 30
0.0
  0
VERTEX
  5
51E
  8
PAGE_2
 10
1661.556951238181
 20
1520.172055887716
 30
0.0
  0
VERTEX
  5
51F
  8
PAGE_2
 10
1661.556951238181
 20
1515.498455887716
 30
0.0
  0
VERTEX
  5
520
  8
PAGE_2
 10
1661.505092904848
 20
1515.498455887716
 30
0.0
  0
VERTEX
  5
521
  8
PAGE_2
 10
1661.505092904848
 20
1511.850380887716
 30
0.0
  0
VERTEX
  5
522
  8
PAGE_2
 10
1707.422295682626
 20
1511.850380887716
 30
0.0
  0
VERTEX
  5
523
  8
PAGE_2
 10
1707.422295682626
 20
1515.498455887716
 30
0.0
  0
VERTEX
  5
524
  8
PAGE_2
 10
1707.38666512707
 20
1515.498455887716
 30
0.0
  0
VERTEX
  5
525
  8
PAGE_2
 10
1707.38666512707
 20
1576.706458665493
 30
0.0
  0
VERTEX
  5
526
  8
PAGE_2
 10
1712.618359571515
 20
1576.706458665493
 30
0.0
  0
VERTEX
  5
527
  8
PAGE_2
 10
1712.618359571515
 20
1505.82670033216
 30
0.0
  0
VERTEX
  5
528
  8
PAGE_2
 10
1640.482712349292
 20
1505.82670033216
 30
0.0
  0
VERTEX
  5
529
  8
PAGE_2
 10
1640.482712349292
 20
1607.42670033216
 30
0.0
  0
SEQEND
  5
52A
  8
PAGE_2
  0
POLYLINE
  5
4B
  8
PAGE_2
 66
     1
 10
0.0
 20
0.0
 30
0.0
 70
     1
  0
VERTEX
  5
52B
  8
PAGE_2
 10
1381.05170293436
 20
1480.035634373584
 30
0.0
  0
VERTEX
  5
52C
  8
PAGE_2
 10
1381.215070557329
 20
1480.031502519845
 30
0.0
  0
VERTEX
  5
52D
  8
PAGE_2
 10
1381.376295610819
 20
1480.01924002544
 30
0.0
  0
VERTEX
  5
52E
  8
PAGE_2
 10
1381.535178559207
 20
1479.999046490589
 30
0.0
  0
VERTEX
  5
52F
  8
PAGE_2
 10
1381.691519866868
 20
1479.971121515511
 30
0.0
  0
VERTEX
  5
530
  8
PAGE_2
 10
1381.845119998179
 20
1479.935664700427
 30
0.0
  0
VERTEX
  5
531
  8
PAGE_2
 10
1381.995779417514
 20
1479.892875645557
 30
0.0
  0
VERTEX
  5
532
  8
PAGE_2
 10
1382.14329858925
 20
1479.842953951119
 30
0.0
  0
VERTEX
  5
533
  8
PAGE_2
 10
1382.287477977763
 20
1479.786099217334
 30
0.0
  0
VERTEX
  5
534
  8
PAGE_2
 10
1382.56501926262
 20
1479.652389032601
 30
0.0
  0
VERTEX
  5
535
  8
PAGE_2
 10
1382.826806987094
 20
1479.493341893115
 30
0.0
  0
VERTEX
  5
536
  8
PAGE_2
 10
1383.07124486619
 20
1479.310554600635
 30
0.0
  0
VERTEX
  5
537
  8
PAGE_2
 10
1383.296736614916
 20
1479.105623956917
 30
0.0
  0
VERTEX
  5
538
  8
PAGE_2
 10
1383.501685948276
 20
1478.880146763721
 30
0.0
  0
VERTEX
  5
539
  8
PAGE_2
 10
1383.684496581278
 20
1478.635719822803
 30
0.0
  0
VERTEX
  5
53A
  8
PAGE_2
 10
1383.843572228929
 20
1478.373939935921
 30
0.0
  0
VERTEX
  5
53B
  8
PAGE_2
 10
1383.913710594187
 20
1478.237041638294
 30
0.0
  0
VERTEX
  5
53C
  8
PAGE_2
 10
1383.977316606235
 20
1478.096403904834
 30
0.0
  0
VERTEX
  5
53D
  8
PAGE_2
 10
1384.034190729448
 20
1477.952226335763
 30
0.0
  0
VERTEX
  5
53E
  8
PAGE_2
 10
1384.084133428202
 20
1477.804708531299
 30
0.0
  0
VERTEX
  5
53F
  8
PAGE_2
 10
1384.126945166873
 20
1477.654050091663
 30
0.0
  0
VERTEX
  5
540
  8
PAGE_2
 10
1384.162426409837
 20
1477.500450617074
 30
0.0
  0
VERTEX
  5
541
  8
PAGE_2
 10
1384.19037762147
 20
1477.344109707752
 30
0.0
  0
VERTEX
  5
542
  8
PAGE_2
 10
1384.210599266147
 20
1477.185226963916
 30
0.0
  0
VERTEX
  5
543
  8
PAGE_2
 10
1384.222891808244
 20
1477.024001985787
 30
0.0
  0
VERTEX
  5
544
  8
PAGE_2
 10
1384.227055712138
 20
1476.860634373584
 30
0.0
  0
VERTEX
  5
545
  8
PAGE_2
 10
1384.222891808244
 20
1476.697297799538
 30
0.0
  0
VERTEX
  5
546
  8
PAGE_2
 10
1384.210599266147
 20
1476.536099919238
 30
0.0
  0
VERTEX
  5
547
  8
PAGE_2
 10
1384.19037762147
 20
1476.377240526691
 30
0.0
  0
VERTEX
  5
548
  8
PAGE_2
 10
1384.162426409837
 20
1476.220919415902
 30
0.0
  0
VERTEX
  5
549
  8
PAGE_2
 10
1384.126945166873
 20
1476.067336380878
 30
0.0
  0
VERTEX
  5
54A
  8
PAGE_2
 10
1384.084133428202
 20
1475.916691215625
 30
0.0
  0
VERTEX
  5
54B
  8
PAGE_2
 10
1384.034190729448
 20
1475.76918371415
 30
0.0
  0
VERTEX
  5
54C
  8
PAGE_2
 10
1383.977316606235
 20
1475.625013670459
 30
0.0
  0
VERTEX
  5
54D
  8
PAGE_2
 10
1383.843572228929
 20
1475.347485132455
 30
0.0
  0
VERTEX
  5
54E
  8
PAGE_2
 10
1383.684496581278
 20
1475.085703953662
 30
0.0
  0
VERTEX
  5
54F
  8
PAGE_2
 10
1383.501685948276
 20
1474.841268486133
 30
0.0
  0
VERTEX
  5
550
  8
PAGE_2
 10
1383.296736614916
 20
1474.615777081917
 30
0.0
  0
VERTEX
  5
551
  8
PAGE_2
 10
1383.07124486619
 20
1474.410828093066
 30
0.0
  0
VERTEX
  5
552
  8
PAGE_2
 10
1382.826806987094
 20
1474.228019871631
 30
0.0
  0
VERTEX
  5
553
  8
PAGE_2
 10
1382.56501926262
 20
1474.068950769662
 30
0.0
  0
VERTEX
  5
554
  8
PAGE_2
 10
1382.428118047427
 20
1473.998817873492
 30
0.0
  0
VERTEX
  5
555
  8
PAGE_2
 10
1382.287477977763
 20
1473.935219139209
 30
0.0
  0
VERTEX
  5
556
  8
PAGE_2
 10
1382.14329858925
 20
1473.878354360817
 30
0.0
  0
VERTEX
  5
557
  8
PAGE_2
 10
1381.995779417514
 20
1473.828423332324
 30
0.0
  0
VERTEX
  5
558
  8
PAGE_2
 10
1381.845119998179
 20
1473.785625847735
 30
0.0
  0
VERTEX
  5
559
  8
PAGE_2
 10
1381.691519866868
 20
1473.750161701058
 30
0.0
  0
VERTEX
  5
55A
  8
PAGE_2
 10
1381.535178559207
 20
1473.722230686298
 30
0.0
  0
VERTEX
  5
55B
  8
PAGE_2
 10
1381.376295610819
 20
1473.702032597461
 30
0.0
  0
VERTEX
  5
55C
  8
PAGE_2
 10
1381.215070557329
 20
1473.689767228554
 30
0.0
  0
VERTEX
  5
55D
  8
PAGE_2
 10
1381.05170293436
 20
1473.685634373584
 30
0.0
  0
VERTEX
  5
55E
  8
PAGE_2
 10
1380.888366360314
 20
1473.689766227323
 30
0.0
  0
VERTEX
  5
55F
  8
PAGE_2
 10
1380.727168480014
 20
1473.702028721729
 30
0.0
  0
VERTEX
  5
560
  8
PAGE_2
 10
1380.568309087466
 20
1473.72222225658
 30
0.0
  0
VERTEX
  5
561
  8
PAGE_2
 10
1380.411987976678
 20
1473.750147231657
 30
0.0
  0
VERTEX
  5
562
  8
PAGE_2
 10
1380.258404941654
 20
1473.785604046741
 30
0.0
  0
VERTEX
  5
563
  8
PAGE_2
 10
1380.107759776401
 20
1473.828393101611
 30
0.0
  0
VERTEX
  5
564
  8
PAGE_2
 10
1379.960252274926
 20
1473.878314796049
 30
0.0
  0
VERTEX
  5
565
  8
PAGE_2
 10
1379.816082231235
 20
1473.935169529834
 30
0.0
  0
VERTEX
  5
566
  8
PAGE_2
 10
1379.53855369323
 20
1474.068879714567
 30
0.0
  0
VERTEX
  5
567
  8
PAGE_2
 10
1379.276772514438
 20
1474.227926854053
 30
0.0
  0
VERTEX
  5
568
  8
PAGE_2
 10
1379.032337046909
 20
1474.410714146533
 30
0.0
  0
VERTEX
  5
569
  8
PAGE_2
 10
1378.806845642693
 20
1474.615644790251
 30
0.0
  0
VERTEX
  5
56A
  8
PAGE_2
 10
1378.601896653842
 20
1474.841121983447
 30
0.0
  0
VERTEX
  5
56B
  8
PAGE_2
 10
1378.419088432407
 20
1475.085548924365
 30
0.0
  0
VERTEX
  5
56C
  8
PAGE_2
 10
1378.260019330437
 20
1475.347328811247
 30
0.0
  0
VERTEX
  5
56D
  8
PAGE_2
 10
1378.189886434268
 20
1475.484227108875
 30
0.0
  0
VERTEX
  5
56E
  8
PAGE_2
 10
1378.126287699985
 20
1475.624864842334
 30
0.0
  0
VERTEX
  5
56F
  8
PAGE_2
 10
1378.069422921593
 20
1475.769042411406
 30
0.0
  0
VERTEX
  5
570
  8
PAGE_2
 10
1378.0194918931
 20
1475.916560215869
 30
0.0
  0
VERTEX
  5
571
  8
PAGE_2
 10
1377.976694408511
 20
1476.067218655505
 30
0.0
  0
VERTEX
  5
572
  8
PAGE_2
 10
1377.941230261834
 20
1476.220818130095
 30
0.0
  0
VERTEX
  5
573
  8
PAGE_2
 10
1377.913299247073
 20
1476.377159039417
 30
0.0
  0
VERTEX
  5
574
  8
PAGE_2
 10
1377.893101158237
 20
1476.536041783252
 30
0.0
  0
VERTEX
  5
575
  8
PAGE_2
 10
1377.88083578933
 20
1476.697266761381
 30
0.0
  0
VERTEX
  5
576
  8
PAGE_2
 10
1377.87670293436
 20
1476.860634373584
 30
0.0
  0
VERTEX
  5
577
  8
PAGE_2
 10
1377.88083578933
 20
1477.024001985787
 30
0.0
  0
VERTEX
  5
578
  8
PAGE_2
 10
1377.893101158237
 20
1477.185226963916
 30
0.0
  0
VERTEX
  5
579
  8
PAGE_2
 10
1377.913299247073
 20
1477.344109707752
 30
0.0
  0
VERTEX
  5
57A
  8
PAGE_2
 10
1377.941230261834
 20
1477.500450617074
 30
0.0
  0
VERTEX
  5
57B
  8
PAGE_2
 10
1377.976694408511
 20
1477.654050091663
 30
0.0
  0
VERTEX
  5
57C
  8
PAGE_2
 10
1378.0194918931
 20
1477.804708531299
 30
0.0
  0
VERTEX
  5
57D
  8
PAGE_2
 10
1378.069422921593
 20
1477.952226335763
 30
0.0
  0
VERTEX
  5
57E
  8
PAGE_2
 10
1378.126287699985
 20
1478.096403904834
 30
0.0
  0
VERTEX
  5
57F
  8
PAGE_2
 10
1378.260019330437
 20
1478.373939935921
 30
0.0
  0
VERTEX
  5
580
  8
PAGE_2
 10
1378.419088432407
 20
1478.635719822803
 30
0.0
  0
VERTEX
  5
581
  8
PAGE_2
 10
1378.601896653842
 20
1478.880146763721
 30
0.0
  0
VERTEX
  5
582
  8
PAGE_2
 10
1378.806845642693
 20
1479.105623956917
 30
0.0
  0
VERTEX
  5
583
  8
PAGE_2
 10
1379.032337046909
 20
1479.310554600635
 30
0.0
  0
VERTEX
  5
584
  8
PAGE_2
 10
1379.276772514438
 20
1479.493341893115
 30
0.0
  0
VERTEX
  5
585
  8
PAGE_2
 10
1379.53855369323
 20
1479.652389032601
 30
0.0
  0
VERTEX
  5
586
  8
PAGE_2
 10
1379.675449439334
 20
1479.722511044422
 30
0.0
  0
VERTEX
  5
587
  8
PAGE_2
 10
1379.816082231235
 20
1479.786099217334
 30
0.0
  0
VERTEX
  5
588
  8
PAGE_2
 10
1379.960252274926
 20
1479.842953951119
 30
0.0
  0
VERTEX
  5
589
  8
PAGE_2
 10
1380.107759776401
 20
1479.892875645557
 30
0.0
  0
VERTEX
  5
58A
  8
PAGE_2
 10
1380.258404941654
 20
1479.935664700427
 30
0.0
  0
VERTEX
  5
58B
  8
PAGE_2
 10
1380.411987976678
 20
1479.971121515511
 30
0.0
  0
VERTEX
  5
58C
  8
PAGE_2
 10
1380.568309087466
 20
1479.999046490589
 30
0.0
  0
VERTEX
  5
58D
  8
PAGE_2
 10
1380.727168480014
 20
1480.01924002544
 30
0.0
  0
VERTEX
  5
58E
  8
PAGE_2
 10
1380.888366360314
 20
1480.031502519845
 30
0.0
  0
SEQEND
  5
58F
  8
PAGE_2
  0
POLYLINE
  5
4C
  8
PAGE_2
 66
     1
 10
0.0
 20
0.0
 30
0.0
 70
     1
  0
VERTEX
  5
590
  8
PAGE_2
 10
1390.972166823249
 20
1484.17336492914
 30
0.0
  0
VERTEX
  5
591
  8
PAGE_2
 10
1391.195066585752
 20
1483.939068310339
 30
0.0
  0
VERTEX
  5
592
  8
PAGE_2
 10
1391.406652415137
 20
1483.689289545466
 30
0.0
  0
VERTEX
  5
593
  8
PAGE_2
 10
1391.606954905467
 20
1483.424642146814
 30
0.0
  0
VERTEX
  5
594
  8
PAGE_2
 10
1391.796004650804
 20
1483.145739626676
 30
0.0
  0
VERTEX
  5
595
  8
PAGE_2
 10
1391.973832245211
 20
1482.853195497347
 30
0.0
  0
VERTEX
  5
596
  8
PAGE_2
 10
1392.140468282752
 20
1482.547623271119
 30
0.0
  0
VERTEX
  5
597
  8
PAGE_2
 10
1392.295943357488
 20
1482.229636460287
 30
0.0
  0
VERTEX
  5
598
  8
PAGE_2
 10
1392.440288063483
 20
1481.899848577143
 30
0.0
  0
VERTEX
  5
599
  8
PAGE_2
 10
1392.573532994799
 20
1481.558873133981
 30
0.0
  0
VERTEX
  5
59A
  8
PAGE_2
 10
1392.6957087455
 20
1481.207323643095
 30
0.0
  0
VERTEX
  5
59B
  8
PAGE_2
 10
1392.806845909648
 20
1480.845813616778
 30
0.0
  0
VERTEX
  5
59C
  8
PAGE_2
 10
1392.906975081305
 20
1480.474956567323
 30
0.0
  0
VERTEX
  5
59D
  8
PAGE_2
 10
1392.996126854535
 20
1480.095366007025
 30
0.0
  0
VERTEX
  5
59E
  8
PAGE_2
 10
1393.074331823401
 20
1479.707655448176
 30
0.0
  0
VERTEX
  5
59F
  8
PAGE_2
 10
1393.141620581965
 20
1479.31243840307
 30
0.0
  0
VERTEX
  5
5A0
  8
PAGE_2
 10
1393.19802372429
 20
1478.910328384001
 30
0.0
  0
VERTEX
  5
5A1
  8
PAGE_2
 10
1393.243571844439
 20
1478.501938903262
 30
0.0
  0
VERTEX
  5
5A2
  8
PAGE_2
 10
1393.278295536475
 20
1478.087883473146
 30
0.0
  0
VERTEX
  5
5A3
  8
PAGE_2
 10
1393.30222539446
 20
1477.668775605947
 30
0.0
  0
VERTEX
  5
5A4
  8
PAGE_2
 10
1393.315392012458
 20
1477.24522881396
 30
0.0
  0
VERTEX
  5
5A5
  8
PAGE_2
 10
1393.31782598453
 20
1476.817856609476
 30
0.0
  0
VERTEX
  5
5A6
  8
PAGE_2
 10
1393.309557904741
 20
1476.38727250479
 30
0.0
  0
VERTEX
  5
5A7
  8
PAGE_2
 10
1393.290618367152
 20
1475.954090012194
 30
0.0
  0
VERTEX
  5
5A8
  8
PAGE_2
 10
1393.261037965827
 20
1475.518922643983
 30
0.0
  0
VERTEX
  5
5A9
  8
PAGE_2
 10
1393.220847294828
 20
1475.082383912451
 30
0.0
  0
VERTEX
  5
5AA
  8
PAGE_2
 10
1393.170076948218
 20
1474.64508732989
 30
0.0
  0
VERTEX
  5
5AB
  8
PAGE_2
 10
1393.10875752006
 20
1474.207646408594
 30
0.0
  0
VERTEX
  5
5AC
  8
PAGE_2
 10
1393.036919604417
 20
1473.770674660856
 30
0.0
  0
VERTEX
  5
5AD
  8
PAGE_2
 10
1392.954593795352
 20
1473.334785598971
 30
0.0
  0
VERTEX
  5
5AE
  8
PAGE_2
 10
1392.861810686927
 20
1472.900592735231
 30
0.0
  0
VERTEX
  5
5AF
  8
PAGE_2
 10
1392.758600873205
 20
1472.46870958193
 30
0.0
  0
VERTEX
  5
5B0
  8
PAGE_2
 10
1392.644994948249
 20
1472.039749651362
 30
0.0
  0
VERTEX
  5
5B1
  8
PAGE_2
 10
1392.521023506121
 20
1471.61432645582
 30
0.0
  0
VERTEX
  5
5B2
  8
PAGE_2
 10
1392.386717140886
 20
1471.193053507597
 30
0.0
  0
VERTEX
  5
5B3
  8
PAGE_2
 10
1392.242106446605
 20
1470.776544318987
 30
0.0
  0
VERTEX
  5
5B4
  8
PAGE_2
 10
1392.087222017341
 20
1470.365412402284
 30
0.0
  0
VERTEX
  5
5B5
  8
PAGE_2
 10
1391.922094447156
 20
1469.960271269781
 30
0.0
  0
VERTEX
  5
5B6
  8
PAGE_2
 10
1391.746754330115
 20
1469.561734433772
 30
0.0
  0
VERTEX
  5
5B7
  8
PAGE_2
 10
1391.56123226028
 20
1469.170415406549
 30
0.0
  0
VERTEX
  5
5B8
  8
PAGE_2
 10
1391.365558831712
 20
1468.786927700407
 30
0.0
  0
VERTEX
  5
5B9
  8
PAGE_2
 10
1391.159764638476
 20
1468.411884827639
 30
0.0
  0
VERTEX
  5
5BA
  8
PAGE_2
 10
1390.943880274634
 20
1468.045900300539
 30
0.0
  0
VERTEX
  5
5BB
  8
PAGE_2
 10
1390.717936334249
 20
1467.689587631399
 30
0.0
  0
VERTEX
  5
5BC
  8
PAGE_2
 10
1390.481963411383
 20
1467.343560332514
 30
0.0
  0
VERTEX
  5
5BD
  8
PAGE_2
 10
1390.2359921001
 20
1467.008431916177
 30
0.0
  0
VERTEX
  5
5BE
  8
PAGE_2
 10
1389.980052994462
 20
1466.684815894682
 30
0.0
  0
VERTEX
  5
5BF
  8
PAGE_2
 10
1389.714176688533
 20
1466.373325780321
 30
0.0
  0
VERTEX
  5
5C0
  8
PAGE_2
 10
1389.438393776374
 20
1466.07457508539
 30
0.0
  0
VERTEX
  5
5C1
  8
PAGE_2
 10
1389.152734852048
 20
1465.78917732218
 30
0.0
  0
VERTEX
  5
5C2
  8
PAGE_2
 10
1388.85723050962
 20
1465.517746002985
 30
0.0
  0
VERTEX
  5
5C3
  8
PAGE_2
 10
1388.55191134315
 20
1465.2608946401
 30
0.0
  0
VERTEX
  5
5C4
  8
PAGE_2
 10
1388.236807946702
 20
1465.019236745817
 30
0.0
  0
VERTEX
  5
5C5
  8
PAGE_2
 10
1387.91195091434
 20
1464.79338583243
 30
0.0
  0
VERTEX
  5
5C6
  8
PAGE_2
 10
1387.577370840125
 20
1464.583955412233
 30
0.0
  0
VERTEX
  5
5C7
  8
PAGE_2
 10
1387.23309831812
 20
1464.391558997519
 30
0.0
  0
VERTEX
  5
5C8
  8
PAGE_2
 10
1386.879163942389
 20
1464.216810100581
 30
0.0
  0
VERTEX
  5
5C9
  8
PAGE_2
 10
1386.515598306994
 20
1464.060322233713
 30
0.0
  0
VERTEX
  5
5CA
  8
PAGE_2
 10
1386.142432005998
 20
1463.922708909208
 30
0.0
  0
VERTEX
  5
5CB
  8
PAGE_2
 10
1385.759695633464
 20
1463.804583639361
 30
0.0
  0
VERTEX
  5
5CC
  8
PAGE_2
 10
1385.367419783454
 20
1463.706559936464
 30
0.0
  0
VERTEX
  5
5CD
  8
PAGE_2
 10
1384.965635050031
 20
1463.629251312811
 30
0.0
  0
VERTEX
  5
5CE
  8
PAGE_2
 10
1384.554372027259
 20
1463.573271280695
 30
0.0
  0
VERTEX
  5
5CF
  8
PAGE_2
 10
1384.133661309199
 20
1463.539233352411
 30
0.0
  0
VERTEX
  5
5D0
  8
PAGE_2
 10
1383.703533489915
 20
1463.527751040251
 30
0.0
  0
VERTEX
  5
5D1
  8
PAGE_2
 10
1383.246754360813
 20
1464.145974150587
 30
0.0
  0
VERTEX
  5
5D2
  8
PAGE_2
 10
1382.787240829817
 20
1464.755386647228
 30
0.0
  0
VERTEX
  5
5D3
  8
PAGE_2
 10
1382.324887275144
 20
1465.355648200495
 30
0.0
  0
VERTEX
  5
5D4
  8
PAGE_2
 10
1381.859588075012
 20
1465.946418480708
 30
0.0
  0
VERTEX
  5
5D5
  8
PAGE_2
 10
1381.391237607638
 20
1466.527357158188
 30
0.0
  0
VERTEX
  5
5D6
  8
PAGE_2
 10
1380.919730251238
 20
1467.098123903257
 30
0.0
  0
VERTEX
  5
5D7
  8
PAGE_2
 10
1380.444960384029
 20
1467.658378386237
 30
0.0
  0
VERTEX
  5
5D8
  8
PAGE_2
 10
1379.96682238423
 20
1468.207780277447
 30
0.0
  0
VERTEX
  5
5D9
  8
PAGE_2
 10
1379.485210630056
 20
1468.745989247209
 30
0.0
  0
VERTEX
  5
5DA
  8
PAGE_2
 10
1379.000019499725
 20
1469.272664965845
 30
0.0
  0
VERTEX
  5
5DB
  8
PAGE_2
 10
1378.511143371454
 20
1469.787467103676
 30
0.0
  0
VERTEX
  5
5DC
  8
PAGE_2
 10
1378.01847662346
 20
1470.290055331022
 30
0.0
  0
VERTEX
  5
5DD
  8
PAGE_2
 10
1377.521913633961
 20
1470.780089318205
 30
0.0
  0
VERTEX
  5
5DE
  8
PAGE_2
 10
1377.021348781172
 20
1471.257228735546
 30
0.0
  0
VERTEX
  5
5DF
  8
PAGE_2
 10
1376.516676443311
 20
1471.721133253366
 30
0.0
  0
VERTEX
  5
5E0
  8
PAGE_2
 10
1376.007790998596
 20
1472.171462541987
 30
0.0
  0
VERTEX
  5
5E1
  8
PAGE_2
 10
1375.494586825243
 20
1472.607876271728
 30
0.0
  0
VERTEX
  5
5E2
  8
PAGE_2
 10
1374.976958301469
 20
1473.030034112913
 30
0.0
  0
VERTEX
  5
5E3
  8
PAGE_2
 10
1374.454799805492
 20
1473.437595735861
 30
0.0
  0
VERTEX
  5
5E4
  8
PAGE_2
 10
1373.928005715528
 20
1473.830220810894
 30
0.0
  0
VERTEX
  5
5E5
  8
PAGE_2
 10
1373.396470409795
 20
1474.207569008333
 30
0.0
  0
VERTEX
  5
5E6
  8
PAGE_2
 10
1372.86008826651
 20
1474.569299998499
 30
0.0
  0
VERTEX
  5
5E7
  8
PAGE_2
 10
1372.318753663889
 20
1474.915073451713
 30
0.0
  0
VERTEX
  5
5E8
  8
PAGE_2
 10
1371.77236098015
 20
1475.244549038297
 30
0.0
  0
VERTEX
  5
5E9
  8
PAGE_2
 10
1371.220804593509
 20
1475.557386428572
 30
0.0
  0
VERTEX
  5
5EA
  8
PAGE_2
 10
1370.663978882185
 20
1475.853245292858
 30
0.0
  0
VERTEX
  5
5EB
  8
PAGE_2
 10
1370.101778224393
 20
1476.131785301477
 30
0.0
  0
VERTEX
  5
5EC
  8
PAGE_2
 10
1369.534096998352
 20
1476.39266612475
 30
0.0
  0
VERTEX
  5
5ED
  8
PAGE_2
 10
1368.960829582277
 20
1476.635547432999
 30
0.0
  0
VERTEX
  5
5EE
  8
PAGE_2
 10
1368.381870354387
 20
1476.860088896543
 30
0.0
  0
VERTEX
  5
5EF
  8
PAGE_2
 10
1367.797113692897
 20
1477.065950185706
 30
0.0
  0
VERTEX
  5
5F0
  8
PAGE_2
 10
1367.206453976026
 20
1477.252790970806
 30
0.0
  0
VERTEX
  5
5F1
  8
PAGE_2
 10
1366.609785581991
 20
1477.420270922167
 30
0.0
  0
VERTEX
  5
5F2
  8
PAGE_2
 10
1366.007002889007
 20
1477.568049710108
 30
0.0
  0
VERTEX
  5
5F3
  8
PAGE_2
 10
1365.398000275293
 20
1477.695787004952
 30
0.0
  0
VERTEX
  5
5F4
  8
PAGE_2
 10
1364.782672119066
 20
1477.803142477019
 30
0.0
  0
VERTEX
  5
5F5
  8
PAGE_2
 10
1364.160912798542
 20
1477.88977579663
 30
0.0
  0
VERTEX
  5
5F6
  8
PAGE_2
 10
1363.532616691939
 20
1477.955346634106
 30
0.0
  0
VERTEX
  5
5F7
  8
PAGE_2
 10
1362.897678177473
 20
1477.999514659769
 30
0.0
  0
VERTEX
  5
5F8
  8
PAGE_2
 10
1362.255991633362
 20
1478.02193954394
 30
0.0
  0
VERTEX
  5
5F9
  8
PAGE_2
 10
1361.607451437822
 20
1478.02228095694
 30
0.0
  0
VERTEX
  5
5FA
  8
PAGE_2
 10
1360.951951969072
 20
1478.00019856909
 30
0.0
  0
VERTEX
  5
5FB
  8
PAGE_2
 10
1360.289387605327
 20
1477.955352050711
 30
0.0
  0
VERTEX
  5
5FC
  8
PAGE_2
 10
1359.619652724806
 20
1477.887401072125
 30
0.0
  0
VERTEX
  5
5FD
  8
PAGE_2
 10
1358.942641705724
 20
1477.796005303652
 30
0.0
  0
VERTEX
  5
5FE
  8
PAGE_2
 10
1358.2582489263
 20
1477.680824415614
 30
0.0
  0
VERTEX
  5
5FF
  8
PAGE_2
 10
1357.56636876475
 20
1477.541518078331
 30
0.0
  0
VERTEX
  5
600
  8
PAGE_2
 10
1356.866895599291
 20
1477.377745962126
 30
0.0
  0
VERTEX
  5
601
  8
PAGE_2
 10
1356.15972380814
 20
1477.189167737318
 30
0.0
  0
VERTEX
  5
602
  8
PAGE_2
 10
1355.444747769514
 20
1476.97544307423
 30
0.0
  0
VERTEX
  5
603
  8
PAGE_2
 10
1354.721861861631
 20
1476.736231643183
 30
0.0
  0
VERTEX
  5
604
  8
PAGE_2
 10
1353.990960462707
 20
1476.471193114497
 30
0.0
  0
VERTEX
  5
605
  8
PAGE_2
 10
1353.25193795096
 20
1476.179987158493
 30
0.0
  0
VERTEX
  5
606
  8
PAGE_2
 10
1352.504688704607
 20
1475.862273445493
 30
0.0
  0
VERTEX
  5
607
  8
PAGE_2
 10
1351.749107101864
 20
1475.517711645819
 30
0.0
  0
VERTEX
  5
608
  8
PAGE_2
 10
1350.985087520949
 20
1475.145961429791
 30
0.0
  0
VERTEX
  5
609
  8
PAGE_2
 10
1350.212524340078
 20
1474.746682467729
 30
0.0
  0
VERTEX
  5
60A
  8
PAGE_2
 10
1349.431311937469
 20
1474.319534429957
 30
0.0
  0
VERTEX
  5
60B
  8
PAGE_2
 10
1348.64134469134
 20
1473.864176986794
 30
0.0
  0
VERTEX
  5
60C
  8
PAGE_2
 10
1347.842516979906
 20
1473.380269808561
 30
0.0
  0
VERTEX
  5
60D
  8
PAGE_2
 10
1347.034723181385
 20
1472.867472565581
 30
0.0
  0
VERTEX
  5
60E
  8
PAGE_2
 10
1346.217857673994
 20
1472.325444928173
 30
0.0
  0
VERTEX
  5
60F
  8
PAGE_2
 10
1345.39181483595
 20
1471.75384656666
 30
0.0
  0
VERTEX
  5
610
  8
PAGE_2
 10
1344.556489045471
 20
1471.152337151362
 30
0.0
  0
VERTEX
  5
611
  8
PAGE_2
 10
1344.248693890221
 20
1471.566107233369
 30
0.0
  0
VERTEX
  5
612
  8
PAGE_2
 10
1343.966803161546
 20
1471.962991459766
 30
0.0
  0
VERTEX
  5
613
  8
PAGE_2
 10
1343.710240215057
 20
1472.344068769862
 30
0.0
  0
VERTEX
  5
614
  8
PAGE_2
 10
1343.478428406365
 20
1472.710418102968
 30
0.0
  0
VERTEX
  5
615
  8
PAGE_2
 10
1343.270791091081
 20
1473.063118398395
 30
0.0
  0
VERTEX
  5
616
  8
PAGE_2
 10
1343.086751624817
 20
1473.403248595454
 30
0.0
  0
VERTEX
  5
617
  8
PAGE_2
 10
1342.925733363183
 20
1473.731887633455
 30
0.0
  0
VERTEX
  5
618
  8
PAGE_2
 10
1342.787159661791
 20
1474.050114451709
 30
0.0
  0
VERTEX
  5
619
  8
PAGE_2
 10
1342.670453876251
 20
1474.359007989527
 30
0.0
  0
VERTEX
  5
61A
  8
PAGE_2
 10
1342.575039362176
 20
1474.65964718622
 30
0.0
  0
VERTEX
  5
61B
  8
PAGE_2
 10
1342.500339475176
 20
1474.953110981098
 30
0.0
  0
VERTEX
  5
61C
  8
PAGE_2
 10
1342.445777570862
 20
1475.240478313471
 30
0.0
  0
VERTEX
  5
61D
  8
PAGE_2
 10
1342.410777004845
 20
1475.522828122651
 30
0.0
  0
VERTEX
  5
61E
  8
PAGE_2
 10
1342.394761132738
 20
1475.801239347949
 30
0.0
  0
VERTEX
  5
61F
  8
PAGE_2
 10
1342.39715331015
 20
1476.076790928675
 30
0.0
  0
VERTEX
  5
620
  8
PAGE_2
 10
1342.417376892693
 20
1476.350561804139
 30
0.0
  0
VERTEX
  5
621
  8
PAGE_2
 10
1342.454855235979
 20
1476.623630913653
 30
0.0
  0
VERTEX
  5
622
  8
PAGE_2
 10
1342.509011695617
 20
1476.897077196528
 30
0.0
  0
VERTEX
  5
623
  8
PAGE_2
 10
1342.579269627221
 20
1477.171979592073
 30
0.0
  0
VERTEX
  5
624
  8
PAGE_2
 10
1342.6650523864
 20
1477.4494170396
 30
0.0
  0
VERTEX
  5
625
  8
PAGE_2
 10
1342.765783328766
 20
1477.730468478419
 30
0.0
  0
VERTEX
  5
626
  8
PAGE_2
 10
1342.88088580993
 20
1478.016212847841
 30
0.0
  0
VERTEX
  5
627
  8
PAGE_2
 10
1343.009783185503
 20
1478.307729087177
 30
0.0
  0
VERTEX
  5
628
  8
PAGE_2
 10
1343.151898811096
 20
1478.606096135737
 30
0.0
  0
VERTEX
  5
629
  8
PAGE_2
 10
1343.473478234789
 20
1479.227698417774
 30
0.0
  0
VERTEX
  5
62A
  8
PAGE_2
 10
1343.841010925896
 20
1479.889651208437
 30
0.0
  0
VERTEX
  5
62B
  8
PAGE_2
 10
1344.695483489915
 20
1481.369134373584
 30
0.0
  0
VERTEX
  5
62C
  8
PAGE_2
 10
1345.220896820597
 20
1481.783426687658
 30
0.0
  0
VERTEX
  5
62D
  8
PAGE_2
 10
1345.766403554969
 20
1482.190183213323
 30
0.0
  0
VERTEX
  5
62E
  8
PAGE_2
 10
1346.331335056516
 20
1482.589199497619
 30
0.0
  0
VERTEX
  5
62F
  8
PAGE_2
 10
1346.915022688727
 20
1482.980271087587
 30
0.0
  0
VERTEX
  5
630
  8
PAGE_2
 10
1347.516797815089
 20
1483.363193530267
 30
0.0
  0
VERTEX
  5
631
  8
PAGE_2
 10
1348.135991799089
 20
1483.737762372699
 30
0.0
  0
VERTEX
  5
632
  8
PAGE_2
 10
1348.771936004214
 20
1484.103773161924
 30
0.0
  0
VERTEX
  5
633
  8
PAGE_2
 10
1349.423961793952
 20
1484.461021444982
 30
0.0
  0
VERTEX
  5
634
  8
PAGE_2
 10
1350.09140053179
 20
1484.809302768913
 30
0.0
  0
VERTEX
  5
635
  8
PAGE_2
 10
1350.773583581214
 20
1485.148412680757
 30
0.0
  0
VERTEX
  5
636
  8
PAGE_2
 10
1351.469842305713
 20
1485.478146727555
 30
0.0
  0
VERTEX
  5
637
  8
PAGE_2
 10
1352.179508068773
 20
1485.798300456348
 30
0.0
  0
VERTEX
  5
638
  8
PAGE_2
 10
1352.901912233882
 20
1486.108669414175
 30
0.0
  0
VERTEX
  5
639
  8
PAGE_2
 10
1353.636386164527
 20
1486.409049148076
 30
0.0
  0
VERTEX
  5
63A
  8
PAGE_2
 10
1354.382261224195
 20
1486.699235205092
 30
0.0
  0
VERTEX
  5
63B
  8
PAGE_2
 10
1355.138868776374
 20
1486.979023132265
 30
0.0
  0
VERTEX
  5
63C
  8
PAGE_2
 10
1355.90554018455
 20
1487.248208476632
 30
0.0
  0
VERTEX
  5
63D
  8
PAGE_2
 10
1356.681606812212
 20
1487.506586785235
 30
0.0
  0
VERTEX
  5
63E
  8
PAGE_2
 10
1357.466400022845
 20
1487.753953605115
 30
0.0
  0
VERTEX
  5
63F
  8
PAGE_2
 10
1358.259251179938
 20
1487.990104483312
 30
0.0
  0
VERTEX
  5
640
  8
PAGE_2
 10
1359.059491646978
 20
1488.214834966865
 30
0.0
  0
VERTEX
  5
641
  8
PAGE_2
 10
1359.866452787452
 20
1488.427940602815
 30
0.0
  0
VERTEX
  5
642
  8
PAGE_2
 10
1360.679465964846
 20
1488.629216938203
 30
0.0
  0
VERTEX
  5
643
  8
PAGE_2
 10
1361.49786254265
 20
1488.818459520068
 30
0.0
  0
VERTEX
  5
644
  8
PAGE_2
 10
1362.320973884349
 20
1488.995463895452
 30
0.0
  0
VERTEX
  5
645
  8
PAGE_2
 10
1363.14813135343
 20
1489.160025611394
 30
0.0
  0
VERTEX
  5
646
  8
PAGE_2
 10
1363.978666313383
 20
1489.311940214935
 30
0.0
  0
VERTEX
  5
647
  8
PAGE_2
 10
1364.811910127692
 20
1489.451003253114
 30
0.0
  0
VERTEX
  5
648
  8
PAGE_2
 10
1365.647194159846
 20
1489.577010272973
 30
0.0
  0
VERTEX
  5
649
  8
PAGE_2
 10
1366.483849773332
 20
1489.689756821551
 30
0.0
  0
VERTEX
  5
64A
  8
PAGE_2
 10
1367.321208331637
 20
1489.78903844589
 30
0.0
  0
VERTEX
  5
64B
  8
PAGE_2
 10
1368.158601198249
 20
1489.874650693028
 30
0.0
  0
VERTEX
  5
64C
  8
PAGE_2
 10
1368.995359736654
 20
1489.946389110007
 30
0.0
  0
VERTEX
  5
64D
  8
PAGE_2
 10
1369.83081531034
 20
1490.004049243867
 30
0.0
  0
VERTEX
  5
64E
  8
PAGE_2
 10
1370.664299282794
 20
1490.047426641648
 30
0.0
  0
VERTEX
  5
64F
  8
PAGE_2
 10
1371.495143017504
 20
1490.076316850391
 30
0.0
  0
VERTEX
  5
650
  8
PAGE_2
 10
1372.322677877956
 20
1490.090515417135
 30
0.0
  0
VERTEX
  5
651
  8
PAGE_2
 10
1373.146235227638
 20
1490.089817888921
 30
0.0
  0
VERTEX
  5
652
  8
PAGE_2
 10
1373.965146430036
 20
1490.074019812789
 30
0.0
  0
VERTEX
  5
653
  8
PAGE_2
 10
1374.778742848639
 20
1490.04291673578
 30
0.0
  0
VERTEX
  5
654
  8
PAGE_2
 10
1375.586355846934
 20
1489.996304204934
 30
0.0
  0
VERTEX
  5
655
  8
PAGE_2
 10
1376.387316788408
 20
1489.933977767291
 30
0.0
  0
VERTEX
  5
656
  8
PAGE_2
 10
1377.180957036548
 20
1489.855732969892
 30
0.0
  0
VERTEX
  5
657
  8
PAGE_2
 10
1377.966607954841
 20
1489.761365359776
 30
0.0
  0
VERTEX
  5
658
  8
PAGE_2
 10
1378.743600906774
 20
1489.650670483985
 30
0.0
  0
VERTEX
  5
659
  8
PAGE_2
 10
1379.511267255836
 20
1489.523443889558
 30
0.0
  0
VERTEX
  5
65A
  8
PAGE_2
 10
1380.268938365512
 20
1489.379481123536
 30
0.0
  0
VERTEX
  5
65B
  8
PAGE_2
 10
1381.015945599291
 20
1489.218577732959
 30
0.0
  0
VERTEX
  5
65C
  8
PAGE_2
 10
1381.751620320659
 20
1489.040529264867
 30
0.0
  0
VERTEX
  5
65D
  8
PAGE_2
 10
1382.475293893104
 20
1488.845131266301
 30
0.0
  0
VERTEX
  5
65E
  8
PAGE_2
 10
1383.186297680113
 20
1488.632179284301
 30
0.0
  0
VERTEX
  5
65F
  8
PAGE_2
 10
1383.883963045173
 20
1488.401468865907
 30
0.0
  0
VERTEX
  5
660
  8
PAGE_2
 10
1384.567621351771
 20
1488.15279555816
 30
0.0
  0
VERTEX
  5
661
  8
PAGE_2
 10
1385.236603963396
 20
1487.885954908099
 30
0.0
  0
VERTEX
  5
662
  8
PAGE_2
 10
1385.890242243533
 20
1487.600742462766
 30
0.0
  0
VERTEX
  5
663
  8
PAGE_2
 10
1386.527867555671
 20
1487.2969537692
 30
0.0
  0
VERTEX
  5
664
  8
PAGE_2
 10
1387.148811263296
 20
1486.974384374442
 30
0.0
  0
VERTEX
  5
665
  8
PAGE_2
 10
1387.752404729896
 20
1486.632829825532
 30
0.0
  0
VERTEX
  5
666
  8
PAGE_2
 10
1388.337979318957
 20
1486.27208566951
 30
0.0
  0
VERTEX
  5
667
  8
PAGE_2
 10
1388.904866393968
 20
1485.891947453418
 30
0.0
  0
VERTEX
  5
668
  8
PAGE_2
 10
1389.452397318415
 20
1485.492210724294
 30
0.0
  0
VERTEX
  5
669
  8
PAGE_2
 10
1389.979903455787
 20
1485.07267102918
 30
0.0
  0
VERTEX
  5
66A
  8
PAGE_2
 10
1390.486716169569
 20
1484.633123915115
 30
0.0
  0
SEQEND
  5
66B
  8
PAGE_2
  0
POLYLINE
  5
4D
  8
PAGE_2
 66
     1
 10
0.0
 20
0.0
 30
0.0
 70
     1
  0
VERTEX
  5
66C
  8
PAGE_2
 10
1420.265495847901
 20
1764.079286815815
 30
0.0
  0
VERTEX
  5
66D
  8
PAGE_2
 10
1448.840495847901
 20
1764.079286815815
 30
0.0
  0
VERTEX
  5
66E
  8
PAGE_2
 10
1448.840495847901
 20
1770.429286815815
 30
0.0
  0
VERTEX
  5
66F
  8
PAGE_2
 10
1420.265495847901
 20
1770.429286815815
 30
0.0
  0
SEQEND
  5
670
  8
PAGE_2
  0
POLYLINE
  5
4E
  8
PAGE_2
 66
     1
 10
0.0
 20
0.0
 30
0.0
 70
     1
  0
VERTEX
  5
671
  8
PAGE_2
 10
1422.324628801227
 20
1705.393997646023
 30
0.0
  0
VERTEX
  5
672
  8
PAGE_2
 10
1450.899628801227
 20
1705.393997646023
 30
0.0
  0
VERTEX
  5
673
  8
PAGE_2
 10
1450.899628801227
 20
1711.743997646023
 30
0.0
  0
VERTEX
  5
674
  8
PAGE_2
 10
1422.324628801227
 20
1711.743997646023
 30
0.0
  0
SEQEND
  5
675
  8
PAGE_2
  0
POLYLINE
  5
4F
  8
PAGE_2
 66
     1
 10
0.0
 20
0.0
 30
0.0
 70
     1
  0
VERTEX
  5
676
  8
PAGE_2
 10
1423.35419527789
 20
1728.044460132609
 30
0.0
  0
VERTEX
  5
677
  8
PAGE_2
 10
1436.05419527789
 20
1728.044460132609
 30
0.0
  0
VERTEX
  5
678
  8
PAGE_2
 10
1436.05419527789
 20
1734.394460132609
 30
0.0
  0
VERTEX
  5
679
  8
PAGE_2
 10
1423.35419527789
 20
1734.394460132609
 30
0.0
  0
SEQEND
  5
67A
  8
PAGE_2
  0
POLYLINE
  5
50
  8
PAGE_2
 66
     1
 10
0.0
 20
0.0
 30
0.0
 70
     1
  0
VERTEX
  5
67B
  8
PAGE_2
 10
1509.794841439885
 20
1575.656769090812
 30
0.0
  0
VERTEX
  5
67C
  8
PAGE_2
 10
1519.319841439885
 20
1575.656769090812
 30
0.0
  0
VERTEX
  5
67D
  8
PAGE_2
 10
1519.319841439885
 20
1601.014082979701
 30
0.0
  0
VERTEX
  5
67E
  8
PAGE_2
 10
1509.794841439885
 20
1601.014082979701
 30
0.0
  0
SEQEND
  5
67F
  8
PAGE_2
  0
POLYLINE
  5
51
  8
PAGE_2
 66
     1
 10
0.0
 20
0.0
 30
0.0
 70
     1
  0
VERTEX
  5
680
  8
PAGE_2
 10
1610.2854148525
 20
1621.864418269816
 30
0.0
  0
VERTEX
  5
681
  8
PAGE_2
 10
1610.28152012899
 20
1621.546851768707
 30
0.0
  0
VERTEX
  5
682
  8
PAGE_2
 10
1610.269896419883
 20
1621.231197230998
 30
0.0
  0
VERTEX
  5
683
  8
PAGE_2
 10
1610.25063441732
 20
1620.917545542613
 30
0.0
  0
VERTEX
  5
684
  8
PAGE_2
 10
1610.223824813438
 20
1620.605987589478
 30
0.0
  0
VERTEX
  5
685
  8
PAGE_2
 10
1610.189558300377
 20
1620.296614257518
 30
0.0
  0
VERTEX
  5
686
  8
PAGE_2
 10
1610.147925570274
 20
1619.989516432658
 30
0.0
  0
VERTEX
  5
687
  8
PAGE_2
 10
1610.0429242275
 20
1619.382510847941
 30
0.0
  0
VERTEX
  5
688
  8
PAGE_2
 10
1609.909546322227
 20
1618.785697922729
 30
0.0
  0
VERTEX
  5
689
  8
PAGE_2
 10
1609.748517391563
 20
1618.199804744425
 30
0.0
  0
VERTEX
  5
68A
  8
PAGE_2
 10
1609.560562972618
 20
1617.625558400431
 30
0.0
  0
VERTEX
  5
68B
  8
PAGE_2
 10
1609.346408602501
 20
1617.063685978149
 30
0.0
  0
VERTEX
  5
68C
  8
PAGE_2
 10
1609.106779818321
 20
1616.514914564982
 30
0.0
  0
VERTEX
  5
68D
  8
PAGE_2
 10
1608.842402157188
 20
1615.979971248332
 30
0.0
  0
VERTEX
  5
68E
  8
PAGE_2
 10
1608.554001156211
 20
1615.4595831156
 30
0.0
  0
VERTEX
  5
68F
  8
PAGE_2
 10
1608.2423023525
 20
1614.954477254191
 30
0.0
  0
VERTEX
  5
690
  8
PAGE_2
 10
1607.908031283164
 20
1614.465380751506
 30
0.0
  0
VERTEX
  5
691
  8
PAGE_2
 10
1607.551913485313
 20
1613.993020694946
 30
0.0
  0
VERTEX
  5
692
  8
PAGE_2
 10
1607.174674496055
 20
1613.538124171916
 30
0.0
  0
VERTEX
  5
693
  8
PAGE_2
 10
1606.7770398525
 20
1613.101418269816
 30
0.0
  0
VERTEX
  5
694
  8
PAGE_2
 10
1607.174674496055
 20
1612.664716243449
 30
0.0
  0
VERTEX
  5
695
  8
PAGE_2
 10
1607.551913485313
 20
1612.209830314087
 30
0.0
  0
VERTEX
  5
696
  8
PAGE_2
 10
1607.908031283164
 20
1611.737486018839
 30
0.0
  0
VERTEX
  5
697
  8
PAGE_2
 10
1608.2423023525
 20
1611.248408894816
 30
0.0
  0
VERTEX
  5
698
  8
PAGE_2
 10
1608.554001156211
 20
1610.743324479126
 30
0.0
  0
VERTEX
  5
699
  8
PAGE_2
 10
1608.842402157188
 20
1610.222958308879
 30
0.0
  0
VERTEX
  5
69A
  8
PAGE_2
 10
1609.106779818321
 20
1609.688035921183
 30
0.0
  0
VERTEX
  5
69B
  8
PAGE_2
 10
1609.346408602501
 20
1609.139282853149
 30
0.0
  0
VERTEX
  5
69C
  8
PAGE_2
 10
1609.560562972618
 20
1608.577424641886
 30
0.0
  0
VERTEX
  5
69D
  8
PAGE_2
 10
1609.748517391563
 20
1608.003186824503
 30
0.0
  0
VERTEX
  5
69E
  8
PAGE_2
 10
1609.909546322227
 20
1607.41729493811
 30
0.0
  0
VERTEX
  5
69F
  8
PAGE_2
 10
1610.0429242275
 20
1606.820474519816
 30
0.0
  0
VERTEX
  5
6A0
  8
PAGE_2
 10
1610.099017315269
 20
1606.518192841553
 30
0.0
  0
VERTEX
  5
6A1
  8
PAGE_2
 10
1610.147925570274
 20
1606.21345110673
 30
0.0
  0
VERTEX
  5
6A2
  8
PAGE_2
 10
1610.189558300377
 20
1605.906340007487
 30
0.0
  0
VERTEX
  5
6A3
  8
PAGE_2
 10
1610.223824813438
 20
1605.596950235962
 30
0.0
  0
VERTEX
  5
6A4
  8
PAGE_2
 10
1610.25063441732
 20
1605.285372484293
 30
0.0
  0
VERTEX
  5
6A5
  8
PAGE_2
 10
1610.269896419883
 20
1604.971697444621
 30
0.0
  0
VERTEX
  5
6A6
  8
PAGE_2
 10
1610.28152012899
 20
1604.656015809082
 30
0.0
  0
VERTEX
  5
6A7
  8
PAGE_2
 10
1610.2854148525
 20
1604.338418269816
 30
0.0
  0
VERTEX
  5
6A8
  8
PAGE_2
 10
1610.281266111064
 20
1604.01069367589
 30
0.0
  0
VERTEX
  5
6A9
  8
PAGE_2
 10
1610.268886436312
 20
1603.685009897318
 30
0.0
  0
VERTEX
  5
6AA
  8
PAGE_2
 10
1610.248375652576
 20
1603.361466782656
 30
0.0
  0
VERTEX
  5
6AB
  8
PAGE_2
 10
1610.21983358419
 20
1603.040164180461
 30
0.0
  0
VERTEX
  5
6AC
  8
PAGE_2
 10
1610.183360055487
 20
1602.721201939288
 30
0.0
  0
VERTEX
  5
6AD
  8
PAGE_2
 10
1610.1390548908
 20
1602.404679907695
 30
0.0
  0
VERTEX
  5
6AE
  8
PAGE_2
 10
1610.087017914463
 20
1602.090697934237
 30
0.0
  0
VERTEX
  5
6AF
  8
PAGE_2
 10
1610.027348950808
 20
1601.779355867472
 30
0.0
  0
VERTEX
  5
6B0
  8
PAGE_2
 10
1609.960147824168
 20
1601.470753555956
 30
0.0
  0
VERTEX
  5
6B1
  8
PAGE_2
 10
1609.885514358878
 20
1601.164990848246
 30
0.0
  0
VERTEX
  5
6B2
  8
PAGE_2
 10
1609.803548379271
 20
1600.862167592898
 30
0.0
  0
VERTEX
  5
6B3
  8
PAGE_2
 10
1609.714349709678
 20
1600.562383638468
 30
0.0
  0
VERTEX
  5
6B4
  8
PAGE_2
 10
1609.618018174434
 20
1600.265738833514
 30
0.0
  0
VERTEX
  5
6B5
  8
PAGE_2
 10
1609.514653597872
 20
1599.972333026591
 30
0.0
  0
VERTEX
  5
6B6
  8
PAGE_2
 10
1609.404355804324
 20
1599.682266066256
 30
0.0
  0
VERTEX
  5
6B7
  8
PAGE_2
 10
1609.287224618125
 20
1599.395637801066
 30
0.0
  0
VERTEX
  5
6B8
  8
PAGE_2
 10
1609.163359863608
 20
1599.112548079577
 30
0.0
  0
VERTEX
  5
6B9
  8
PAGE_2
 10
1609.032861365105
 20
1598.833096750346
 30
0.0
  0
VERTEX
  5
6BA
  8
PAGE_2
 10
1608.752362433474
 20
1598.285508662882
 30
0.0
  0
VERTEX
  5
6BB
  8
PAGE_2
 10
1608.4465264179
 20
1597.753672327128
 30
0.0
  0
VERTEX
  5
6BC
  8
PAGE_2
 10
1608.116151913047
 20
1597.238386531535
 30
0.0
  0
VERTEX
  5
6BD
  8
PAGE_2
 10
1607.762037513583
 20
1596.740450064555
 30
0.0
  0
VERTEX
  5
6BE
  8
PAGE_2
 10
1607.38498181417
 20
1596.26066171464
 30
0.0
  0
VERTEX
  5
6BF
  8
PAGE_2
 10
1606.985783409477
 20
1595.799820270243
 30
0.0
  0
VERTEX
  5
6C0
  8
PAGE_2
 10
1606.565240894167
 20
1595.358724519816
 30
0.0
  0
VERTEX
  5
6C1
  8
PAGE_2
 10
1606.124152862907
 20
1594.93817325181
 30
0.0
  0
VERTEX
  5
6C2
  8
PAGE_2
 10
1605.663317910362
 20
1594.538965254679
 30
0.0
  0
VERTEX
  5
6C3
  8
PAGE_2
 10
1605.183534631197
 20
1594.161899316874
 30
0.0
  0
VERTEX
  5
6C4
  8
PAGE_2
 10
1604.685601620079
 20
1593.807774226847
 30
0.0
  0
VERTEX
  5
6C5
  8
PAGE_2
 10
1604.170317471672
 20
1593.477388773051
 30
0.0
  0
VERTEX
  5
6C6
  8
PAGE_2
 10
1603.638480780642
 20
1593.171541743937
 30
0.0
  0
VERTEX
  5
6C7
  8
PAGE_2
 10
1603.090890141655
 20
1592.891031927958
 30
0.0
  0
VERTEX
  5
6C8
  8
PAGE_2
 10
1602.81143665251
 20
1592.760528096285
 30
0.0
  0
VERTEX
  5
6C9
  8
PAGE_2
 10
1602.528344149376
 20
1592.636658113566
 30
0.0
  0
VERTEX
  5
6CA
  8
PAGE_2
 10
1602.241712456585
 20
1592.519521828356
 30
0.0
  0
VERTEX
  5
6CB
  8
PAGE_2
 10
1601.95164139847
 20
1592.409219089213
 30
0.0
  0
VERTEX
  5
6CC
  8
PAGE_2
 10
1601.658230799366
 20
1592.305849744692
 30
0.0
  0
VERTEX
  5
6CD
  8
PAGE_2
 10
1601.361580483604
 20
1592.209513643351
 30
0.0
  0
VERTEX
  5
6CE
  8
PAGE_2
 10
1601.061790275519
 20
1592.120310633745
 30
0.0
  0
VERTEX
  5
6CF
  8
PAGE_2
 10
1600.758959999443
 20
1592.038340564432
 30
0.0
  0
VERTEX
  5
6D0
  8
PAGE_2
 10
1600.453189479709
 20
1591.963703283968
 30
0.0
  0
VERTEX
  5
6D1
  8
PAGE_2
 10
1600.144578540652
 20
1591.89649864091
 30
0.0
  0
VERTEX
  5
6D2
  8
PAGE_2
 10
1599.833227006603
 20
1591.836826483813
 30
0.0
  0
VERTEX
  5
6D3
  8
PAGE_2
 10
1599.519234701896
 20
1591.784786661234
 30
0.0
  0
VERTEX
  5
6D4
  8
PAGE_2
 10
1599.202701450865
 20
1591.740479021731
 30
0.0
  0
VERTEX
  5
6D5
  8
PAGE_2
 10
1598.883727077842
 20
1591.704003413859
 30
0.0
  0
VERTEX
  5
6D6
  8
PAGE_2
 10
1598.562411407162
 20
1591.675459686175
 30
0.0
  0
VERTEX
  5
6D7
  8
PAGE_2
 10
1598.238854263155
 20
1591.654947687235
 30
0.0
  0
VERTEX
  5
6D8
  8
PAGE_2
 10
1597.913155470157
 20
1591.642567265597
 30
0.0
  0
VERTEX
  5
6D9
  8
PAGE_2
 10
1597.5854148525
 20
1591.638418269816
 30
0.0
  0
VERTEX
  5
6DA
  8
PAGE_2
 10
1597.268194263202
 20
1591.642305270123
 30
0.0
  0
VERTEX
  5
6DB
  8
PAGE_2
 10
1596.952882682056
 20
1591.653905922658
 30
0.0
  0
VERTEX
  5
6DC
  8
PAGE_2
 10
1596.639570623565
 20
1591.673129704848
 30
0.0
  0
VERTEX
  5
6DD
  8
PAGE_2
 10
1596.328348602229
 20
1591.699886094116
 30
0.0
  0
VERTEX
  5
6DE
  8
PAGE_2
 10
1596.019307132549
 20
1591.734084567888
 30
0.0
  0
VERTEX
  5
6DF
  8
PAGE_2
 10
1595.712536729026
 20
1591.775634603587
 30
0.0
  0
VERTEX
  5
6E0
  8
PAGE_2
 10
1595.106171178455
 20
1591.880427270467
 30
0.0
  0
VERTEX
  5
6E1
  8
PAGE_2
 10
1594.509976066523
 20
1592.013539914154
 30
0.0
  0
VERTEX
  5
6E2
  8
PAGE_2
 10
1593.924675509239
 20
1592.174248354045
 30
0.0
  0
VERTEX
  5
6E3
  8
PAGE_2
 10
1593.350993622608
 20
1592.361828409536
 30
0.0
  0
VERTEX
  5
6E4
  8
PAGE_2
 10
1592.789654522639
 20
1592.575555900024
 30
0.0
  0
VERTEX
  5
6E5
  8
PAGE_2
 10
1592.24138232534
 20
1592.814706644908
 30
0.0
  0
VERTEX
  5
6E6
  8
PAGE_2
 10
1591.706901146717
 20
1593.078556463583
 30
0.0
  0
VERTEX
  5
6E7
  8
PAGE_2
 10
1591.186935102779
 20
1593.366381175446
 30
0.0
  0
VERTEX
  5
6E8
  8
PAGE_2
 10
1590.682208309531
 20
1593.677456599894
 30
0.0
  0
VERTEX
  5
6E9
  8
PAGE_2
 10
1590.193444882984
 20
1594.011058556325
 30
0.0
  0
VERTEX
  5
6EA
  8
PAGE_2
 10
1589.721368939143
 20
1594.366462864136
 30
0.0
  0
VERTEX
  5
6EB
  8
PAGE_2
 10
1589.266704594017
 20
1594.742945342723
 30
0.0
  0
VERTEX
  5
6EC
  8
PAGE_2
 10
1588.830175963612
 20
1595.139781811483
 30
0.0
  0
VERTEX
  5
6ED
  8
PAGE_2
 10
1588.412507163936
 20
1595.556248089813
 30
0.0
  0
VERTEX
  5
6EE
  8
PAGE_2
 10
1588.014422310996
 20
1595.991619997111
 30
0.0
  0
VERTEX
  5
6EF
  8
PAGE_2
 10
1587.636645520802
 20
1596.445173352773
 30
0.0
  0
VERTEX
  5
6F0
  8
PAGE_2
 10
1587.279900909358
 20
1596.916183976196
 30
0.0
  0
VERTEX
  5
6F1
  8
PAGE_2
 10
1586.944912592674
 20
1597.403927686778
 30
0.0
  0
VERTEX
  5
6F2
  8
PAGE_2
 10
1586.632404686756
 20
1597.907680303915
 30
0.0
  0
VERTEX
  5
6F3
  8
PAGE_2
 10
1586.343101307612
 20
1598.426717647003
 30
0.0
  0
VERTEX
  5
6F4
  8
PAGE_2
 10
1586.07772657125
 20
1598.960315535441
 30
0.0
  0
VERTEX
  5
6F5
  8
PAGE_2
 10
1585.837004593677
 20
1599.507749788625
 30
0.0
  0
VERTEX
  5
6F6
  8
PAGE_2
 10
1585.621659490901
 20
1600.068296225952
 30
0.0
  0
VERTEX
  5
6F7
  8
PAGE_2
 10
1585.432415378929
 20
1600.641230666819
 30
0.0
  0
VERTEX
  5
6F8
  8
PAGE_2
 10
1585.269996373768
 20
1601.225828930623
 30
0.0
  0
VERTEX
  5
6F9
  8
PAGE_2
 10
1585.135126591426
 20
1601.821366836762
 30
0.0
  0
VERTEX
  5
6FA
  8
PAGE_2
 10
1585.078248945064
 20
1602.123011849267
 30
0.0
  0
VERTEX
  5
6FB
  8
PAGE_2
 10
1585.028530147911
 20
1602.42712020463
 30
0.0
  0
VERTEX
  5
6FC
  8
PAGE_2
 10
1584.986060714465
 20
1602.733601380276
 30
0.0
  0
VERTEX
  5
6FD
  8
PAGE_2
 10
1584.950931159229
 20
1603.042364853628
 30
0.0
  0
VERTEX
  5
6FE
  8
PAGE_2
 10
1584.923231996704
 20
1603.353320102111
 30
0.0
  0
VERTEX
  5
6FF
  8
PAGE_2
 10
1584.903053741389
 20
1603.666376603149
 30
0.0
  0
VERTEX
  5
700
  8
PAGE_2
 10
1584.903053741389
 20
1603.669198825371
 30
0.0
  0
VERTEX
  5
701
  8
PAGE_2
 10
1584.889868671945
 20
1604.002882505927
 30
0.0
  0
VERTEX
  5
702
  8
PAGE_2
 10
1584.8854148525
 20
1604.338418269816
 30
0.0
  0
VERTEX
  5
703
  8
PAGE_2
 10
1584.890045060834
 20
1604.67902521426
 30
0.0
  0
VERTEX
  5
704
  8
PAGE_2
 10
1584.903406519167
 20
1605.017515492038
 30
0.0
  0
VERTEX
  5
705
  8
PAGE_2
 10
1584.909756519167
 20
1621.07313771426
 30
0.0
  0
VERTEX
  5
706
  8
PAGE_2
 10
1584.891632560834
 20
1621.467322783705
 30
0.0
  0
VERTEX
  5
707
  8
PAGE_2
 10
1584.8854148525
 20
1621.864418269816
 30
0.0
  0
VERTEX
  5
708
  8
PAGE_2
 10
1584.891985338611
 20
1622.259000214261
 30
0.0
  0
VERTEX
  5
709
  8
PAGE_2
 10
1584.910462074723
 20
1622.650407158705
 30
0.0
  0
VERTEX
  5
70A
  8
PAGE_2
 10
1584.910462074723
 20
1622.665576603149
 30
0.0
  0
VERTEX
  5
70B
  8
PAGE_2
 10
1584.911167630278
 20
1622.664518269816
 30
0.0
  0
VERTEX
  5
70C
  8
PAGE_2
 10
1584.934271330143
 20
1622.974757920828
 30
0.0
  0
VERTEX
  5
70D
  8
PAGE_2
 10
1584.964761828802
 20
1623.282886177785
 30
0.0
  0
VERTEX
  5
70E
  8
PAGE_2
 10
1585.047548366905
 20
1623.892453395548
 30
0.0
  0
VERTEX
  5
70F
  8
PAGE_2
 10
1585.158817533385
 20
1624.492509695139
 30
0.0
  0
VERTEX
  5
710
  8
PAGE_2
 10
1585.297859617041
 20
1625.082344848592
 30
0.0
  0
VERTEX
  5
711
  8
PAGE_2
 10
1585.463964906669
 20
1625.66124862794
 30
0.0
  0
VERTEX
  5
712
  8
PAGE_2
 10
1585.656423691069
 20
1626.228510805217
 30
0.0
  0
VERTEX
  5
713
  8
PAGE_2
 10
1585.874526259039
 20
1626.783421152456
 30
0.0
  0
VERTEX
  5
714
  8
PAGE_2
 10
1586.117562899376
 20
1627.325269441691
 30
0.0
  0
VERTEX
  5
715
  8
PAGE_2
 10
1586.384823900878
 20
1627.853345444956
 30
0.0
  0
VERTEX
  5
716
  8
PAGE_2
 10
1586.675599552343
 20
1628.366938934285
 30
0.0
  0
VERTEX
  5
717
  8
PAGE_2
 10
1586.98918014257
 20
1628.865339681712
 30
0.0
  0
VERTEX
  5
718
  8
PAGE_2
 10
1587.324855960356
 20
1629.347837459269
 30
0.0
  0
VERTEX
  5
719
  8
PAGE_2
 10
1587.6819172945
 20
1629.813722038991
 30
0.0
  0
VERTEX
  5
71A
  8
PAGE_2
 10
1588.059654433799
 20
1630.262283192912
 30
0.0
  0
VERTEX
  5
71B
  8
PAGE_2
 10
1588.457357667052
 20
1630.692810693064
 30
0.0
  0
VERTEX
  5
71C
  8
PAGE_2
 10
1588.874317283056
 20
1631.104594311483
 30
0.0
  0
VERTEX
  5
71D
  8
PAGE_2
 10
1589.30982357061
 20
1631.496923820201
 30
0.0
  0
VERTEX
  5
71E
  8
PAGE_2
 10
1589.76316681851
 20
1631.869088991252
 30
0.0
  0
VERTEX
  5
71F
  8
PAGE_2
 10
1590.233637315557
 20
1632.22037959667
 30
0.0
  0
VERTEX
  5
720
  8
PAGE_2
 10
1590.720525350547
 20
1632.550085408488
 30
0.0
  0
VERTEX
  5
721
  8
PAGE_2
 10
1591.223121212279
 20
1632.857496198741
 30
0.0
  0
VERTEX
  5
722
  8
PAGE_2
 10
1591.74071518955
 20
1633.141901739461
 30
0.0
  0
VERTEX
  5
723
  8
PAGE_2
 10
1592.272597571159
 20
1633.402591802683
 30
0.0
  0
VERTEX
  5
724
  8
PAGE_2
 10
1592.818058645903
 20
1633.638856160441
 30
0.0
  0
VERTEX
  5
725
  8
PAGE_2
 10
1593.376388702581
 20
1633.849984584768
 30
0.0
  0
VERTEX
  5
726
  8
PAGE_2
 10
1593.94687802999
 20
1634.035266847697
 30
0.0
  0
VERTEX
  5
727
  8
PAGE_2
 10
1594.52881691693
 20
1634.193992721262
 30
0.0
  0
VERTEX
  5
728
  8
PAGE_2
 10
1595.121495652197
 20
1634.325451977498
 30
0.0
  0
VERTEX
  5
729
  8
PAGE_2
 10
1595.724204524589
 20
1634.428934388438
 30
0.0
  0
VERTEX
  5
72A
  8
PAGE_2
 10
1596.029098477457
 20
1634.469962330682
 30
0.0
  0
VERTEX
  5
72B
  8
PAGE_2
 10
1596.336233822905
 20
1634.503729726115
 30
0.0
  0
VERTEX
  5
72C
  8
PAGE_2
 10
1596.645521847034
 20
1634.530147796241
 30
0.0
  0
VERTEX
  5
72D
  8
PAGE_2
 10
1596.956873835943
 20
1634.549127762563
 30
0.0
  0
VERTEX
  5
72E
  8
PAGE_2
 10
1597.270201075732
 20
1634.560580846587
 30
0.0
  0
VERTEX
  5
72F
  8
PAGE_2
 10
1597.5854148525
 20
1634.564418269816
 30
0.0
  0
VERTEX
  5
730
  8
PAGE_2
 10
1597.913155470157
 20
1634.56026952838
 30
0.0
  0
VERTEX
  5
731
  8
PAGE_2
 10
1598.238854263155
 20
1634.547889853628
 30
0.0
  0
VERTEX
  5
732
  8
PAGE_2
 10
1598.562411407162
 20
1634.527379069892
 30
0.0
  0
VERTEX
  5
733
  8
PAGE_2
 10
1598.883727077842
 20
1634.498837001506
 30
0.0
  0
VERTEX
  5
734
  8
PAGE_2
 10
1599.202701450865
 20
1634.462363472803
 30
0.0
  0
VERTEX
  5
735
  8
PAGE_2
 10
1599.519234701896
 20
1634.418058308116
 30
0.0
  0
VERTEX
  5
736
  8
PAGE_2
 10
1599.833227006603
 20
1634.366021331778
 30
0.0
  0
VERTEX
  5
737
  8
PAGE_2
 10
1600.144578540652
 20
1634.306352368123
 30
0.0
  0
VERTEX
  5
738
  8
PAGE_2
 10
1600.453189479709
 20
1634.239151241484
 30
0.0
  0
VERTEX
  5
739
  8
PAGE_2
 10
1600.758959999443
 20
1634.164517776194
 30
0.0
  0
VERTEX
  5
73A
  8
PAGE_2
 10
1601.061790275519
 20
1634.082551796586
 30
0.0
  0
VERTEX
  5
73B
  8
PAGE_2
 10
1601.361580483604
 20
1633.993353126994
 30
0.0
  0
VERTEX
  5
73C
  8
PAGE_2
 10
1601.658230799366
 20
1633.89702159175
 30
0.0
  0
VERTEX
  5
73D
  8
PAGE_2
 10
1601.95164139847
 20
1633.793657015188
 30
0.0
  0
VERTEX
  5
73E
  8
PAGE_2
 10
1602.241712456585
 20
1633.68335922164
 30
0.0
  0
VERTEX
  5
73F
  8
PAGE_2
 10
1602.528344149376
 20
1633.566228035441
 30
0.0
  0
VERTEX
  5
740
  8
PAGE_2
 10
1602.81143665251
 20
1633.442363280923
 30
0.0
  0
VERTEX
  5
741
  8
PAGE_2
 10
1603.090890141655
 20
1633.31186478242
 30
0.0
  0
VERTEX
  5
742
  8
PAGE_2
 10
1603.638480780642
 20
1633.031365850789
 30
0.0
  0
VERTEX
  5
743
  8
PAGE_2
 10
1604.170317471672
 20
1632.725529835215
 30
0.0
  0
VERTEX
  5
744
  8
PAGE_2
 10
1604.685601620079
 20
1632.395155330363
 30
0.0
  0
VERTEX
  5
745
  8
PAGE_2
 10
1605.183534631197
 20
1632.041040930898
 30
0.0
  0
VERTEX
  5
746
  8
PAGE_2
 10
1605.663317910362
 20
1631.663985231486
 30
0.0
  0
VERTEX
  5
747
  8
PAGE_2
 10
1606.124152862907
 20
1631.264786826792
 30
0.0
  0
VERTEX
  5
748
  8
PAGE_2
 10
1606.565240894167
 20
1630.844244311483
 30
0.0
  0
VERTEX
  5
749
  8
PAGE_2
 10
1606.985783409477
 20
1630.403156280222
 30
0.0
  0
VERTEX
  5
74A
  8
PAGE_2
 10
1607.38498181417
 20
1629.942321327678
 30
0.0
  0
VERTEX
  5
74B
  8
PAGE_2
 10
1607.762037513583
 20
1629.462538048513
 30
0.0
  0
VERTEX
  5
74C
  8
PAGE_2
 10
1608.116151913047
 20
1628.964605037394
 30
0.0
  0
VERTEX
  5
74D
  8
PAGE_2
 10
1608.4465264179
 20
1628.449320888987
 30
0.0
  0
VERTEX
  5
74E
  8
PAGE_2
 10
1608.752362433474
 20
1627.917484197957
 30
0.0
  0
VERTEX
  5
74F
  8
PAGE_2
 10
1609.032861365105
 20
1627.36989355897
 30
0.0
  0
VERTEX
  5
750
  8
PAGE_2
 10
1609.163359863608
 20
1627.090440069825
 30
0.0
  0
VERTEX
  5
751
  8
PAGE_2
 10
1609.287224618125
 20
1626.807347566691
 30
0.0
  0
VERTEX
  5
752
  8
PAGE_2
 10
1609.404355804324
 20
1626.5207158739
 30
0.0
  0
VERTEX
  5
753
  8
PAGE_2
 10
1609.514653597872
 20
1626.230644815786
 30
0.0
  0
VERTEX
  5
754
  8
PAGE_2
 10
1609.618018174434
 20
1625.937234216681
 30
0.0
  0
VERTEX
  5
755
  8
PAGE_2
 10
1609.714349709678
 20
1625.64058390092
 30
0.0
  0
VERTEX
  5
756
  8
PAGE_2
 10
1609.803548379271
 20
1625.340793692834
 30
0.0
  0
VERTEX
  5
757
  8
PAGE_2
 10
1609.885514358878
 20
1625.037963416758
 30
0.0
  0
VERTEX
  5
758
  8
PAGE_2
 10
1609.960147824168
 20
1624.732192897025
 30
0.0
  0
VERTEX
  5
759
  8
PAGE_2
 10
1610.027348950808
 20
1624.423581957967
 30
0.0
  0
VERTEX
  5
75A
  8
PAGE_2
 10
1610.087017914463
 20
1624.112230423918
 30
0.0
  0
VERTEX
  5
75B
  8
PAGE_2
 10
1610.1390548908
 20
1623.798238119212
 30
0.0
  0
VERTEX
  5
75C
  8
PAGE_2
 10
1610.183360055487
 20
1623.481704868181
 30
0.0
  0
VERTEX
  5
75D
  8
PAGE_2
 10
1610.21983358419
 20
1623.162730495158
 30
0.0
  0
VERTEX
  5
75E
  8
PAGE_2
 10
1610.248375652576
 20
1622.841414824477
 30
0.0
  0
VERTEX
  5
75F
  8
PAGE_2
 10
1610.268886436312
 20
1622.517857680471
 30
0.0
  0
VERTEX
  5
760
  8
PAGE_2
 10
1610.281266111064
 20
1622.192158887473
 30
0.0
  0
SEQEND
  5
761
  8
PAGE_2
  0
POLYLINE
  5
52
  8
PAGE_2
 66
     1
 10
0.0
 20
0.0
 30
0.0
 70
     1
  0
VERTEX
  5
762
  8
PAGE_2
 10
1603.935062074723
 20
1606.661459936483
 30
0.0
  0
VERTEX
  5
763
  8
PAGE_2
 10
1591.910278741389
 20
1606.661459936483
 30
0.0
  0
VERTEX
  5
764
  8
PAGE_2
 10
1591.748157198692
 20
1606.428876200317
 30
0.0
  0
VERTEX
  5
765
  8
PAGE_2
 10
1591.594794811268
 20
1606.189935229451
 30
0.0
  0
VERTEX
  5
766
  8
PAGE_2
 10
1591.45042619012
 20
1605.94486956783
 30
0.0
  0
VERTEX
  5
767
  8
PAGE_2
 10
1591.31528594625
 20
1605.693911759399
 30
0.0
  0
VERTEX
  5
768
  8
PAGE_2
 10
1591.189608690662
 20
1605.437294348104
 30
0.0
  0
VERTEX
  5
769
  8
PAGE_2
 10
1591.073629034358
 20
1605.175249877889
 30
0.0
  0
VERTEX
  5
76A
  8
PAGE_2
 10
1590.96758158834
 20
1604.9080108927
 30
0.0
  0
VERTEX
  5
76B
  8
PAGE_2
 10
1590.871700963612
 20
1604.635809936482
 30
0.0
  0
VERTEX
  5
76C
  8
PAGE_2
 10
1590.786221771174
 20
1604.358879553182
 30
0.0
  0
VERTEX
  5
76D
  8
PAGE_2
 10
1590.711378622032
 20
1604.077452286743
 30
0.0
  0
VERTEX
  5
76E
  8
PAGE_2
 10
1590.647406127186
 20
1603.791760681112
 30
0.0
  0
VERTEX
  5
76F
  8
PAGE_2
 10
1590.594538897639
 20
1603.502037280233
 30
0.0
  0
VERTEX
  5
770
  8
PAGE_2
 10
1590.553011544395
 20
1603.208514628052
 30
0.0
  0
VERTEX
  5
771
  8
PAGE_2
 10
1590.523058678455
 20
1602.911425268514
 30
0.0
  0
VERTEX
  5
772
  8
PAGE_2
 10
1590.504914910823
 20
1602.611001745565
 30
0.0
  0
VERTEX
  5
773
  8
PAGE_2
 10
1590.4988148525
 20
1602.307476603149
 30
0.0
  0
VERTEX
  5
774
  8
PAGE_2
 10
1590.508477010364
 20
1601.925548806637
 30
0.0
  0
VERTEX
  5
775
  8
PAGE_2
 10
1590.537152219579
 20
1601.548625162041
 30
0.0
  0
VERTEX
  5
776
  8
PAGE_2
 10
1590.584373583579
 20
1601.177172630524
 30
0.0
  0
VERTEX
  5
777
  8
PAGE_2
 10
1590.649674205799
 20
1600.811658173245
 30
0.0
  0
VERTEX
  5
778
  8
PAGE_2
 10
1590.732587189672
 20
1600.452548751367
 30
0.0
  0
VERTEX
  5
779
  8
PAGE_2
 10
1590.832645638633
 20
1600.10031132605
 30
0.0
  0
VERTEX
  5
77A
  8
PAGE_2
 10
1590.949382656116
 20
1599.755412858456
 30
0.0
  0
VERTEX
  5
77B
  8
PAGE_2
 10
1591.082331345556
 20
1599.418320309747
 30
0.0
  0
VERTEX
  5
77C
  8
PAGE_2
 10
1591.231024810386
 20
1599.089500641083
 30
0.0
  0
VERTEX
  5
77D
  8
PAGE_2
 10
1591.394996154041
 20
1598.769420813626
 30
0.0
  0
VERTEX
  5
77E
  8
PAGE_2
 10
1591.573778479955
 20
1598.458547788537
 30
0.0
  0
VERTEX
  5
77F
  8
PAGE_2
 10
1591.766904891563
 20
1598.157348526978
 30
0.0
  0
VERTEX
  5
780
  8
PAGE_2
 10
1591.973908492298
 20
1597.866289990109
 30
0.0
  0
VERTEX
  5
781
  8
PAGE_2
 10
1592.194322385595
 20
1597.585839139093
 30
0.0
  0
VERTEX
  5
782
  8
PAGE_2
 10
1592.427679674888
 20
1597.316462935089
 30
0.0
  0
VERTEX
  5
783
  8
PAGE_2
 10
1592.673513463611
 20
1597.058628339261
 30
0.0
  0
VERTEX
  5
784
  8
PAGE_2
 10
1592.931356855199
 20
1596.812802312768
 30
0.0
  0
VERTEX
  5
785
  8
PAGE_2
 10
1593.200742953086
 20
1596.579451816772
 30
0.0
  0
VERTEX
  5
786
  8
PAGE_2
 10
1593.481204860706
 20
1596.359043812436
 30
0.0
  0
VERTEX
  5
787
  8
PAGE_2
 10
1593.772275681493
 20
1596.152045260919
 30
0.0
  0
VERTEX
  5
788
  8
PAGE_2
 10
1594.073488518882
 20
1595.958923123383
 30
0.0
  0
VERTEX
  5
789
  8
PAGE_2
 10
1594.384376476307
 20
1595.780144360989
 30
0.0
  0
VERTEX
  5
78A
  8
PAGE_2
 10
1594.704472657201
 20
1595.616175934899
 30
0.0
  0
VERTEX
  5
78B
  8
PAGE_2
 10
1595.033310165
 20
1595.467484806275
 30
0.0
  0
VERTEX
  5
78C
  8
PAGE_2
 10
1595.370422103138
 20
1595.334537936276
 30
0.0
  0
VERTEX
  5
78D
  8
PAGE_2
 10
1595.715341575048
 20
1595.217802286065
 30
0.0
  0
VERTEX
  5
78E
  8
PAGE_2
 10
1596.067601684165
 20
1595.117744816803
 30
0.0
  0
VERTEX
  5
78F
  8
PAGE_2
 10
1596.426735533924
 20
1595.034832489651
 30
0.0
  0
VERTEX
  5
790
  8
PAGE_2
 10
1596.792276227758
 20
1594.969532265771
 30
0.0
  0
VERTEX
  5
791
  8
PAGE_2
 10
1597.163756869102
 20
1594.922311106323
 30
0.0
  0
VERTEX
  5
792
  8
PAGE_2
 10
1597.54071056139
 20
1594.89363597247
 30
0.0
  0
VERTEX
  5
793
  8
PAGE_2
 10
1597.922670408056
 20
1594.883973825372
 30
0.0
  0
VERTEX
  5
794
  8
PAGE_2
 10
1598.304629242725
 20
1594.89363597247
 30
0.0
  0
VERTEX
  5
795
  8
PAGE_2
 10
1598.68157998515
 20
1594.922311106323
 30
0.0
  0
VERTEX
  5
796
  8
PAGE_2
 10
1599.053055867956
 20
1594.969532265771
 30
0.0
  0
VERTEX
  5
797
  8
PAGE_2
 10
1599.418590123768
 20
1595.034832489651
 30
0.0
  0
VERTEX
  5
798
  8
PAGE_2
 10
1599.777715985211
 20
1595.117744816803
 30
0.0
  0
VERTEX
  5
799
  8
PAGE_2
 10
1600.129966684911
 20
1595.217802286065
 30
0.0
  0
VERTEX
  5
79A
  8
PAGE_2
 10
1600.474875455494
 20
1595.334537936276
 30
0.0
  0
VERTEX
  5
79B
  8
PAGE_2
 10
1600.811975529584
 20
1595.467484806275
 30
0.0
  0
VERTEX
  5
79C
  8
PAGE_2
 10
1601.140800139807
 20
1595.616175934899
 30
0.0
  0
VERTEX
  5
79D
  8
PAGE_2
 10
1601.460882518787
 20
1595.780144360989
 30
0.0
  0
VERTEX
  5
79E
  8
PAGE_2
 10
1601.771755899152
 20
1595.958923123383
 30
0.0
  0
VERTEX
  5
79F
  8
PAGE_2
 10
1602.072953513525
 20
1596.152045260919
 30
0.0
  0
VERTEX
  5
7A0
  8
PAGE_2
 10
1602.364008594532
 20
1596.359043812436
 30
0.0
  0
VERTEX
  5
7A1
  8
PAGE_2
 10
1602.644454374799
 20
1596.579451816772
 30
0.0
  0
VERTEX
  5
7A2
  8
PAGE_2
 10
1602.91382408695
 20
1596.812802312768
 30
0.0
  0
VERTEX
  5
7A3
  8
PAGE_2
 10
1603.171650963611
 20
1597.058628339261
 30
0.0
  0
VERTEX
  5
7A4
  8
PAGE_2
 10
1603.417468237408
 20
1597.316462935089
 30
0.0
  0
VERTEX
  5
7A5
  8
PAGE_2
 10
1603.650809140966
 20
1597.585839139093
 30
0.0
  0
VERTEX
  5
7A6
  8
PAGE_2
 10
1603.87120690691
 20
1597.866289990109
 30
0.0
  0
VERTEX
  5
7A7
  8
PAGE_2
 10
1604.078194767865
 20
1598.157348526978
 30
0.0
  0
VERTEX
  5
7A8
  8
PAGE_2
 10
1604.271305956457
 20
1598.458547788537
 30
0.0
  0
VERTEX
  5
7A9
  8
PAGE_2
 10
1604.450073705311
 20
1598.769420813626
 30
0.0
  0
VERTEX
  5
7AA
  8
PAGE_2
 10
1604.614031247052
 20
1599.089500641083
 30
0.0
  0
VERTEX
  5
7AB
  8
PAGE_2
 10
1604.762711814306
 20
1599.418320309747
 30
0.0
  0
VERTEX
  5
7AC
  8
PAGE_2
 10
1604.895648639698
 20
1599.755412858456
 30
0.0
  0
VERTEX
  5
7AD
  8
PAGE_2
 10
1605.012374955853
 20
1600.10031132605
 30
0.0
  0
VERTEX
  5
7AE
  8
PAGE_2
 10
1605.112423995397
 20
1600.452548751367
 30
0.0
  0
VERTEX
  5
7AF
  8
PAGE_2
 10
1605.195328990955
 20
1600.811658173245
 30
0.0
  0
VERTEX
  5
7B0
  8
PAGE_2
 10
1605.260623175152
 20
1601.177172630524
 30
0.0
  0
VERTEX
  5
7B1
  8
PAGE_2
 10
1605.307839780615
 20
1601.548625162041
 30
0.0
  0
VERTEX
  5
7B2
  8
PAGE_2
 10
1605.336512039966
 20
1601.925548806637
 30
0.0
  0
VERTEX
  5
7B3
  8
PAGE_2
 10
1605.346173185834
 20
1602.307476603149
 30
0.0
  0
VERTEX
  5
7B4
  8
PAGE_2
 10
1605.340077089371
 20
1602.611001745565
 30
0.0
  0
VERTEX
  5
7B5
  8
PAGE_2
 10
1605.321944518299
 20
1602.911425268514
 30
0.0
  0
VERTEX
  5
7B6
  8
PAGE_2
 10
1605.292009050092
 20
1603.208514628052
 30
0.0
  0
VERTEX
  5
7B7
  8
PAGE_2
 10
1605.250504262223
 20
1603.502037280233
 30
0.0
  0
VERTEX
  5
7B8
  8
PAGE_2
 10
1605.197663732166
 20
1603.791760681112
 30
0.0
  0
VERTEX
  5
7B9
  8
PAGE_2
 10
1605.133721037396
 20
1604.077452286743
 30
0.0
  0
VERTEX
  5
7BA
  8
PAGE_2
 10
1605.058909755387
 20
1604.358879553182
 30
0.0
  0
VERTEX
  5
7BB
  8
PAGE_2
 10
1604.973463463612
 20
1604.635809936482
 30
0.0
  0
VERTEX
  5
7BC
  8
PAGE_2
 10
1604.877615739545
 20
1604.9080108927
 30
0.0
  0
VERTEX
  5
7BD
  8
PAGE_2
 10
1604.77160016066
 20
1605.175249877889
 30
0.0
  0
VERTEX
  5
7BE
  8
PAGE_2
 10
1604.655650304432
 20
1605.437294348104
 30
0.0
  0
VERTEX
  5
7BF
  8
PAGE_2
 10
1604.529999748334
 20
1605.693911759399
 30
0.0
  0
VERTEX
  5
7C0
  8
PAGE_2
 10
1604.39488206984
 20
1605.94486956783
 30
0.0
  0
VERTEX
  5
7C1
  8
PAGE_2
 10
1604.250530846424
 20
1606.189935229451
 30
0.0
  0
VERTEX
  5
7C2
  8
PAGE_2
 10
1604.09717965556
 20
1606.428876200317
 30
0.0
  0
SEQEND
  5
7C3
  8
PAGE_2
  0
POLYLINE
  5
53
  8
PAGE_2
 66
     1
 10
0.0
 20
0.0
 30
0.0
 70
     1
  0
VERTEX
  5
7C4
  8
PAGE_2
 10
1591.950495408056
 20
1619.361459936483
 30
0.0
  0
VERTEX
  5
7C5
  8
PAGE_2
 10
1603.894845408056
 20
1619.361459936483
 30
0.0
  0
VERTEX
  5
7C6
  8
PAGE_2
 10
1604.061367887982
 20
1619.596080326972
 30
0.0
  0
VERTEX
  5
7C7
  8
PAGE_2
 10
1604.218929674549
 20
1619.837288945814
 30
0.0
  0
VERTEX
  5
7C8
  8
PAGE_2
 10
1604.367284787939
 20
1620.08484446407
 30
0.0
  0
VERTEX
  5
7C9
  8
PAGE_2
 10
1604.506187248334
 20
1620.338505552802
 30
0.0
  0
VERTEX
  5
7CA
  8
PAGE_2
 10
1604.635391075916
 20
1620.59803088307
 30
0.0
  0
VERTEX
  5
7CB
  8
PAGE_2
 10
1604.754650290869
 20
1620.863179125936
 30
0.0
  0
VERTEX
  5
7CC
  8
PAGE_2
 10
1604.863718913373
 20
1621.13370895246
 30
0.0
  0
VERTEX
  5
7CD
  8
PAGE_2
 10
1604.962350963612
 20
1621.409379033705
 30
0.0
  0
VERTEX
  5
7CE
  8
PAGE_2
 10
1605.050300461767
 20
1621.689948040731
 30
0.0
  0
VERTEX
  5
7CF
  8
PAGE_2
 10
1605.127321428021
 20
1621.975174644599
 30
0.0
  0
VERTEX
  5
7D0
  8
PAGE_2
 10
1605.193167882557
 20
1622.264817516371
 30
0.0
  0
VERTEX
  5
7D1
  8
PAGE_2
 10
1605.247593845556
 20
1622.558635327108
 30
0.0
  0
VERTEX
  5
7D2
  8
PAGE_2
 10
1605.290353337201
 20
1622.856386747871
 30
0.0
  0
VERTEX
  5
7D3
  8
PAGE_2
 10
1605.321200377674
 20
1623.157830449721
 30
0.0
  0
VERTEX
  5
7D4
  8
PAGE_2
 10
1605.339888987158
 20
1623.462725103719
 30
0.0
  0
VERTEX
  5
7D5
  8
PAGE_2
 10
1605.346173185834
 20
1623.770829380927
 30
0.0
  0
VERTEX
  5
7D6
  8
PAGE_2
 10
1605.336512039966
 20
1624.15275717744
 30
0.0
  0
VERTEX
  5
7D7
  8
PAGE_2
 10
1605.307839780615
 20
1624.529680822035
 30
0.0
  0
VERTEX
  5
7D8
  8
PAGE_2
 10
1605.260623175152
 20
1624.901133353553
 30
0.0
  0
VERTEX
  5
7D9
  8
PAGE_2
 10
1605.195328990955
 20
1625.266647810832
 30
0.0
  0
VERTEX
  5
7DA
  8
PAGE_2
 10
1605.112423995397
 20
1625.62575723271
 30
0.0
  0
VERTEX
  5
7DB
  8
PAGE_2
 10
1605.012374955853
 20
1625.977994658027
 30
0.0
  0
VERTEX
  5
7DC
  8
PAGE_2
 10
1604.895648639698
 20
1626.32289312562
 30
0.0
  0
VERTEX
  5
7DD
  8
PAGE_2
 10
1604.762711814306
 20
1626.65998567433
 30
0.0
  0
VERTEX
  5
7DE
  8
PAGE_2
 10
1604.614031247052
 20
1626.988805342994
 30
0.0
  0
VERTEX
  5
7DF
  8
PAGE_2
 10
1604.450073705311
 20
1627.308885170451
 30
0.0
  0
VERTEX
  5
7E0
  8
PAGE_2
 10
1604.271305956457
 20
1627.619758195539
 30
0.0
  0
VERTEX
  5
7E1
  8
PAGE_2
 10
1604.078194767865
 20
1627.920957457099
 30
0.0
  0
VERTEX
  5
7E2
  8
PAGE_2
 10
1603.87120690691
 20
1628.212015993967
 30
0.0
  0
VERTEX
  5
7E3
  8
PAGE_2
 10
1603.650809140966
 20
1628.492466844984
 30
0.0
  0
VERTEX
  5
7E4
  8
PAGE_2
 10
1603.417468237408
 20
1628.761843048987
 30
0.0
  0
VERTEX
  5
7E5
  8
PAGE_2
 10
1603.171650963611
 20
1629.019677644816
 30
0.0
  0
VERTEX
  5
7E6
  8
PAGE_2
 10
1602.91382408695
 20
1629.265503671309
 30
0.0
  0
VERTEX
  5
7E7
  8
PAGE_2
 10
1602.644454374799
 20
1629.498854167304
 30
0.0
  0
VERTEX
  5
7E8
  8
PAGE_2
 10
1602.364008594532
 20
1629.719262171641
 30
0.0
  0
VERTEX
  5
7E9
  8
PAGE_2
 10
1602.072953513525
 20
1629.926260723158
 30
0.0
  0
VERTEX
  5
7EA
  8
PAGE_2
 10
1601.771755899152
 20
1630.119382860694
 30
0.0
  0
VERTEX
  5
7EB
  8
PAGE_2
 10
1601.460882518787
 20
1630.298161623087
 30
0.0
  0
VERTEX
  5
7EC
  8
PAGE_2
 10
1601.140800139807
 20
1630.462130049177
 30
0.0
  0
VERTEX
  5
7ED
  8
PAGE_2
 10
1600.811975529584
 20
1630.610821177802
 30
0.0
  0
VERTEX
  5
7EE
  8
PAGE_2
 10
1600.474875455494
 20
1630.7437680478
 30
0.0
  0
VERTEX
  5
7EF
  8
PAGE_2
 10
1600.129966684911
 20
1630.860503698011
 30
0.0
  0
VERTEX
  5
7F0
  8
PAGE_2
 10
1599.777715985211
 20
1630.960561167273
 30
0.0
  0
VERTEX
  5
7F1
  8
PAGE_2
 10
1599.418590123768
 20
1631.043473494425
 30
0.0
  0
VERTEX
  5
7F2
  8
PAGE_2
 10
1599.053055867956
 20
1631.108773718306
 30
0.0
  0
VERTEX
  5
7F3
  8
PAGE_2
 10
1598.68157998515
 20
1631.155994877753
 30
0.0
  0
VERTEX
  5
7F4
  8
PAGE_2
 10
1598.304629242725
 20
1631.184670011607
 30
0.0
  0
VERTEX
  5
7F5
  8
PAGE_2
 10
1597.922670408056
 20
1631.194332158705
 30
0.0
  0
VERTEX
  5
7F6
  8
PAGE_2
 10
1597.54071056139
 20
1631.184670011607
 30
0.0
  0
VERTEX
  5
7F7
  8
PAGE_2
 10
1597.163756869102
 20
1631.155994877753
 30
0.0
  0
VERTEX
  5
7F8
  8
PAGE_2
 10
1596.792276227758
 20
1631.108773718306
 30
0.0
  0
VERTEX
  5
7F9
  8
PAGE_2
 10
1596.426735533924
 20
1631.043473494425
 30
0.0
  0
VERTEX
  5
7FA
  8
PAGE_2
 10
1596.067601684165
 20
1630.960561167273
 30
0.0
  0
VERTEX
  5
7FB
  8
PAGE_2
 10
1595.715341575048
 20
1630.860503698011
 30
0.0
  0
VERTEX
  5
7FC
  8
PAGE_2
 10
1595.370422103138
 20
1630.7437680478
 30
0.0
  0
VERTEX
  5
7FD
  8
PAGE_2
 10
1595.033310165
 20
1630.610821177802
 30
0.0
  0
VERTEX
  5
7FE
  8
PAGE_2
 10
1594.704472657201
 20
1630.462130049177
 30
0.0
  0
VERTEX
  5
7FF
  8
PAGE_2
 10
1594.384376476307
 20
1630.298161623087
 30
0.0
  0
VERTEX
  5
800
  8
PAGE_2
 10
1594.073488518882
 20
1630.119382860694
 30
0.0
  0
VERTEX
  5
801
  8
PAGE_2
 10
1593.772275681493
 20
1629.926260723158
 30
0.0
  0
VERTEX
  5
802
  8
PAGE_2
 10
1593.481204860706
 20
1629.719262171641
 30
0.0
  0
VERTEX
  5
803
  8
PAGE_2
 10
1593.200742953086
 20
1629.498854167304
 30
0.0
  0
VERTEX
  5
804
  8
PAGE_2
 10
1592.931356855199
 20
1629.265503671309
 30
0.0
  0
VERTEX
  5
805
  8
PAGE_2
 10
1592.673513463611
 20
1629.019677644816
 30
0.0
  0
VERTEX
  5
806
  8
PAGE_2
 10
1592.427679674888
 20
1628.761843048987
 30
0.0
  0
VERTEX
  5
807
  8
PAGE_2
 10
1592.194322385595
 20
1628.492466844984
 30
0.0
  0
VERTEX
  5
808
  8
PAGE_2
 10
1591.973908492298
 20
1628.212015993967
 30
0.0
  0
VERTEX
  5
809
  8
PAGE_2
 10
1591.766904891563
 20
1627.920957457099
 30
0.0
  0
VERTEX
  5
80A
  8
PAGE_2
 10
1591.573778479955
 20
1627.619758195539
 30
0.0
  0
VERTEX
  5
80B
  8
PAGE_2
 10
1591.394996154041
 20
1627.308885170451
 30
0.0
  0
VERTEX
  5
80C
  8
PAGE_2
 10
1591.231024810386
 20
1626.988805342994
 30
0.0
  0
VERTEX
  5
80D
  8
PAGE_2
 10
1591.082331345556
 20
1626.65998567433
 30
0.0
  0
VERTEX
  5
80E
  8
PAGE_2
 10
1590.949382656116
 20
1626.32289312562
 30
0.0
  0
VERTEX
  5
80F
  8
PAGE_2
 10
1590.832645638633
 20
1625.977994658027
 30
0.0
  0
VERTEX
  5
810
  8
PAGE_2
 10
1590.732587189672
 20
1625.62575723271
 30
0.0
  0
VERTEX
  5
811
  8
PAGE_2
 10
1590.649674205799
 20
1625.266647810832
 30
0.0
  0
VERTEX
  5
812
  8
PAGE_2
 10
1590.584373583579
 20
1624.901133353553
 30
0.0
  0
VERTEX
  5
813
  8
PAGE_2
 10
1590.537152219579
 20
1624.529680822035
 30
0.0
  0
VERTEX
  5
814
  8
PAGE_2
 10
1590.508477010364
 20
1624.15275717744
 30
0.0
  0
VERTEX
  5
815
  8
PAGE_2
 10
1590.4988148525
 20
1623.770829380927
 30
0.0
  0
VERTEX
  5
816
  8
PAGE_2
 10
1590.505099137304
 20
1623.462725103719
 30
0.0
  0
VERTEX
  5
817
  8
PAGE_2
 10
1590.523788349679
 20
1623.157830449721
 30
0.0
  0
VERTEX
  5
818
  8
PAGE_2
 10
1590.554637026572
 20
1622.856386747871
 30
0.0
  0
VERTEX
  5
819
  8
PAGE_2
 10
1590.597399704931
 20
1622.558635327108
 30
0.0
  0
VERTEX
  5
81A
  8
PAGE_2
 10
1590.651830921701
 20
1622.264817516371
 30
0.0
  0
VERTEX
  5
81B
  8
PAGE_2
 10
1590.717685213829
 20
1621.975174644599
 30
0.0
  0
VERTEX
  5
81C
  8
PAGE_2
 10
1590.794717118261
 20
1621.689948040731
 30
0.0
  0
VERTEX
  5
81D
  8
PAGE_2
 10
1590.882681171945
 20
1621.409379033705
 30
0.0
  0
VERTEX
  5
81E
  8
PAGE_2
 10
1590.981331911826
 20
1621.13370895246
 30
0.0
  0
VERTEX
  5
81F
  8
PAGE_2
 10
1591.090423874853
 20
1620.863179125936
 30
0.0
  0
VERTEX
  5
820
  8
PAGE_2
 10
1591.20971159797
 20
1620.59803088307
 30
0.0
  0
VERTEX
  5
821
  8
PAGE_2
 10
1591.338949618125
 20
1620.338505552802
 30
0.0
  0
VERTEX
  5
822
  8
PAGE_2
 10
1591.477892472265
 20
1620.08484446407
 30
0.0
  0
VERTEX
  5
823
  8
PAGE_2
 10
1591.626294697335
 20
1619.837288945814
 30
0.0
  0
VERTEX
  5
824
  8
PAGE_2
 10
1591.783910830284
 20
1619.596080326972
 30
0.0
  0
SEQEND
  5
825
  8
PAGE_2
  0
POLYLINE
  5
54
  8
PAGE_2
 66
     1
 10
0.0
 20
0.0
 30
0.0
 70
     1
  0
VERTEX
  5
826
  8
PAGE_2
 10
1467.245963148302
 20
1654.225416781871
 30
0.0
  0
VERTEX
  5
827
  8
PAGE_2
 10
1543.445963148302
 20
1654.225416781871
 30
0.0
  0
VERTEX
  5
828
  8
PAGE_2
 10
1543.445963148302
 20
1650.734327892982
 30
0.0
  0
VERTEX
  5
829
  8
PAGE_2
 10
1530.983029814969
 20
1650.734327892982
 30
0.0
  0
VERTEX
  5
82A
  8
PAGE_2
 10
1530.983029814969
 20
1644.384327892982
 30
0.0
  0
VERTEX
  5
82B
  8
PAGE_2
 10
1543.445963148302
 20
1644.384327892982
 30
0.0
  0
VERTEX
  5
82C
  8
PAGE_2
 10
1543.445963148302
 20
1641.525416781871
 30
0.0
  0
VERTEX
  5
82D
  8
PAGE_2
 10
1467.245963148302
 20
1641.525416781871
 30
0.0
  0
VERTEX
  5
82E
  8
PAGE_2
 10
1467.245963148302
 20
1644.271791781871
 30
0.0
  0
VERTEX
  5
82F
  8
PAGE_2
 10
1476.580463148302
 20
1644.271791781871
 30
0.0
  0
VERTEX
  5
830
  8
PAGE_2
 10
1476.580463148302
 20
1651.502325115204
 30
0.0
  0
VERTEX
  5
831
  8
PAGE_2
 10
1467.245963148302
 20
1651.502325115204
 30
0.0
  0
SEQEND
  5
832
  8
PAGE_2
  0
POLYLINE
  5
55
  8
PAGE_2
 66
     1
 10
0.0
 20
0.0
 30
0.0
 70
     1
  0
VERTEX
  5
833
  8
PAGE_2
 10
1703.867010000249
 20
1664.657167352168
 30
0.0
  0
VERTEX
  5
834
  8
PAGE_2
 10
1704.030346574295
 20
1664.653035498428
 30
0.0
  0
VERTEX
  5
835
  8
PAGE_2
 10
1704.191544454594
 20
1664.640773004023
 30
0.0
  0
VERTEX
  5
836
  8
PAGE_2
 10
1704.350403847142
 20
1664.620579469172
 30
0.0
  0
VERTEX
  5
837
  8
PAGE_2
 10
1704.506724957931
 20
1664.592654494094
 30
0.0
  0
VERTEX
  5
838
  8
PAGE_2
 10
1704.660307992955
 20
1664.557197679011
 30
0.0
  0
VERTEX
  5
839
  8
PAGE_2
 10
1704.810953158208
 20
1664.51440862414
 30
0.0
  0
VERTEX
  5
83A
  8
PAGE_2
 10
1704.958460659682
 20
1664.464486929702
 30
0.0
  0
VERTEX
  5
83B
  8
PAGE_2
 10
1705.102630703374
 20
1664.407632195917
 30
0.0
  0
VERTEX
  5
83C
  8
PAGE_2
 10
1705.380159241378
 20
1664.273922011184
 30
0.0
  0
VERTEX
  5
83D
  8
PAGE_2
 10
1705.641940420171
 20
1664.114874871699
 30
0.0
  0
VERTEX
  5
83E
  8
PAGE_2
 10
1705.8863758877
 20
1663.932087579218
 30
0.0
  0
VERTEX
  5
83F
  8
PAGE_2
 10
1706.111867291916
 20
1663.727156935501
 30
0.0
  0
VERTEX
  5
840
  8
PAGE_2
 10
1706.316816280766
 20
1663.501679742304
 30
0.0
  0
VERTEX
  5
841
  8
PAGE_2
 10
1706.499624502202
 20
1663.257252801386
 30
0.0
  0
VERTEX
  5
842
  8
PAGE_2
 10
1706.658693604171
 20
1662.995472914505
 30
0.0
  0
VERTEX
  5
843
  8
PAGE_2
 10
1706.72882650034
 20
1662.858574616877
 30
0.0
  0
VERTEX
  5
844
  8
PAGE_2
 10
1706.792425234624
 20
1662.717936883417
 30
0.0
  0
VERTEX
  5
845
  8
PAGE_2
 10
1706.849290013015
 20
1662.573759314346
 30
0.0
  0
VERTEX
  5
846
  8
PAGE_2
 10
1706.899221041509
 20
1662.426241509882
 30
0.0
  0
VERTEX
  5
847
  8
PAGE_2
 10
1706.942018526097
 20
1662.275583070246
 30
0.0
  0
VERTEX
  5
848
  8
PAGE_2
 10
1706.977482672775
 20
1662.121983595657
 30
0.0
  0
VERTEX
  5
849
  8
PAGE_2
 10
1707.005413687535
 20
1661.965642686335
 30
0.0
  0
VERTEX
  5
84A
  8
PAGE_2
 10
1707.025611776372
 20
1661.8067599425
 30
0.0
  0
VERTEX
  5
84B
  8
PAGE_2
 10
1707.037877145279
 20
1661.645534964371
 30
0.0
  0
VERTEX
  5
84C
  8
PAGE_2
 10
1707.042010000249
 20
1661.482167352168
 30
0.0
  0
VERTEX
  5
84D
  8
PAGE_2
 10
1707.037877145279
 20
1661.318830778122
 30
0.0
  0
VERTEX
  5
84E
  8
PAGE_2
 10
1707.025611776372
 20
1661.157632897822
 30
0.0
  0
VERTEX
  5
84F
  8
PAGE_2
 10
1707.005413687535
 20
1660.998773505274
 30
0.0
  0
VERTEX
  5
850
  8
PAGE_2
 10
1706.977482672775
 20
1660.842452394485
 30
0.0
  0
VERTEX
  5
851
  8
PAGE_2
 10
1706.942018526097
 20
1660.688869359461
 30
0.0
  0
VERTEX
  5
852
  8
PAGE_2
 10
1706.899221041509
 20
1660.538224194209
 30
0.0
  0
VERTEX
  5
853
  8
PAGE_2
 10
1706.849290013015
 20
1660.390716692734
 30
0.0
  0
VERTEX
  5
854
  8
PAGE_2
 10
1706.792425234624
 20
1660.246546649043
 30
0.0
  0
VERTEX
  5
855
  8
PAGE_2
 10
1706.658693604171
 20
1659.969018111038
 30
0.0
  0
VERTEX
  5
856
  8
PAGE_2
 10
1706.499624502202
 20
1659.707236932246
 30
0.0
  0
VERTEX
  5
857
  8
PAGE_2
 10
1706.316816280766
 20
1659.462801464716
 30
0.0
  0
VERTEX
  5
858
  8
PAGE_2
 10
1706.111867291916
 20
1659.237310060501
 30
0.0
  0
VERTEX
  5
859
  8
PAGE_2
 10
1705.8863758877
 20
1659.03236107165
 30
0.0
  0
VERTEX
  5
85A
  8
PAGE_2
 10
1705.641940420171
 20
1658.849552850214
 30
0.0
  0
VERTEX
  5
85B
  8
PAGE_2
 10
1705.380159241378
 20
1658.690483748245
 30
0.0
  0
VERTEX
  5
85C
  8
PAGE_2
 10
1705.243263495274
 20
1658.620350852076
 30
0.0
  0
VERTEX
  5
85D
  8
PAGE_2
 10
1705.102630703374
 20
1658.556752117793
 30
0.0
  0
VERTEX
  5
85E
  8
PAGE_2
 10
1704.958460659682
 20
1658.499887339401
 30
0.0
  0
VERTEX
  5
85F
  8
PAGE_2
 10
1704.810953158208
 20
1658.449956310908
 30
0.0
  0
VERTEX
  5
860
  8
PAGE_2
 10
1704.660307992955
 20
1658.407158826319
 30
0.0
  0
VERTEX
  5
861
  8
PAGE_2
 10
1704.506724957931
 20
1658.371694679642
 30
0.0
  0
VERTEX
  5
862
  8
PAGE_2
 10
1704.350403847142
 20
1658.343763664881
 30
0.0
  0
VERTEX
  5
863
  8
PAGE_2
 10
1704.191544454594
 20
1658.323565576045
 30
0.0
  0
VERTEX
  5
864
  8
PAGE_2
 10
1704.030346574295
 20
1658.311300207138
 30
0.0
  0
VERTEX
  5
865
  8
PAGE_2
 10
1703.867010000249
 20
1658.307167352168
 30
0.0
  0
VERTEX
  5
866
  8
PAGE_2
 10
1703.703642388046
 20
1658.311300207138
 30
0.0
  0
VERTEX
  5
867
  8
PAGE_2
 10
1703.542417409917
 20
1658.323565576045
 30
0.0
  0
VERTEX
  5
868
  8
PAGE_2
 10
1703.383534666081
 20
1658.343763664881
 30
0.0
  0
VERTEX
  5
869
  8
PAGE_2
 10
1703.227193756759
 20
1658.371694679642
 30
0.0
  0
VERTEX
  5
86A
  8
PAGE_2
 10
1703.07359428217
 20
1658.407158826319
 30
0.0
  0
VERTEX
  5
86B
  8
PAGE_2
 10
1702.922935842534
 20
1658.449956310908
 30
0.0
  0
VERTEX
  5
86C
  8
PAGE_2
 10
1702.77541803807
 20
1658.499887339401
 30
0.0
  0
VERTEX
  5
86D
  8
PAGE_2
 10
1702.631240468999
 20
1658.556752117793
 30
0.0
  0
VERTEX
  5
86E
  8
PAGE_2
 10
1702.353704437911
 20
1658.690483748245
 30
0.0
  0
VERTEX
  5
86F
  8
PAGE_2
 10
1702.09192455103
 20
1658.849552850214
 30
0.0
  0
VERTEX
  5
870
  8
PAGE_2
 10
1701.847497610112
 20
1659.03236107165
 30
0.0
  0
VERTEX
  5
871
  8
PAGE_2
 10
1701.622020416915
 20
1659.237310060501
 30
0.0
  0
VERTEX
  5
872
  8
PAGE_2
 10
1701.417089773198
 20
1659.462801464716
 30
0.0
  0
VERTEX
  5
873
  8
PAGE_2
 10
1701.234302480717
 20
1659.707236932246
 30
0.0
  0
VERTEX
  5
874
  8
PAGE_2
 10
1701.075255341232
 20
1659.969018111038
 30
0.0
  0
VERTEX
  5
875
  8
PAGE_2
 10
1701.005133329411
 20
1660.105913857142
 30
0.0
  0
VERTEX
  5
876
  8
PAGE_2
 10
1700.941545156499
 20
1660.246546649043
 30
0.0
  0
VERTEX
  5
877
  8
PAGE_2
 10
1700.884690422714
 20
1660.390716692734
 30
0.0
  0
VERTEX
  5
878
  8
PAGE_2
 10
1700.834768728276
 20
1660.538224194209
 30
0.0
  0
VERTEX
  5
879
  8
PAGE_2
 10
1700.791979673405
 20
1660.688869359461
 30
0.0
  0
VERTEX
  5
87A
  8
PAGE_2
 10
1700.756522858322
 20
1660.842452394485
 30
0.0
  0
VERTEX
  5
87B
  8
PAGE_2
 10
1700.728597883244
 20
1660.998773505274
 30
0.0
  0
VERTEX
  5
87C
  8
PAGE_2
 10
1700.708404348393
 20
1661.157632897822
 30
0.0
  0
VERTEX
  5
87D
  8
PAGE_2
 10
1700.696141853988
 20
1661.318830778122
 30
0.0
  0
VERTEX
  5
87E
  8
PAGE_2
 10
1700.692010000249
 20
1661.482167352168
 30
0.0
  0
VERTEX
  5
87F
  8
PAGE_2
 10
1700.696141853988
 20
1661.645534964371
 30
0.0
  0
VERTEX
  5
880
  8
PAGE_2
 10
1700.708404348393
 20
1661.8067599425
 30
0.0
  0
VERTEX
  5
881
  8
PAGE_2
 10
1700.728597883244
 20
1661.965642686335
 30
0.0
  0
VERTEX
  5
882
  8
PAGE_2
 10
1700.756522858322
 20
1662.121983595657
 30
0.0
  0
VERTEX
  5
883
  8
PAGE_2
 10
1700.791979673405
 20
1662.275583070246
 30
0.0
  0
VERTEX
  5
884
  8
PAGE_2
 10
1700.834768728276
 20
1662.426241509882
 30
0.0
  0
VERTEX
  5
885
  8
PAGE_2
 10
1700.884690422714
 20
1662.573759314346
 30
0.0
  0
VERTEX
  5
886
  8
PAGE_2
 10
1700.941545156499
 20
1662.717936883417
 30
0.0
  0
VERTEX
  5
887
  8
PAGE_2
 10
1701.075255341232
 20
1662.995472914505
 30
0.0
  0
VERTEX
  5
888
  8
PAGE_2
 10
1701.234302480717
 20
1663.257252801386
 30
0.0
  0
VERTEX
  5
889
  8
PAGE_2
 10
1701.417089773198
 20
1663.501679742304
 30
0.0
  0
VERTEX
  5
88A
  8
PAGE_2
 10
1701.622020416915
 20
1663.727156935501
 30
0.0
  0
VERTEX
  5
88B
  8
PAGE_2
 10
1701.847497610112
 20
1663.932087579218
 30
0.0
  0
VERTEX
  5
88C
  8
PAGE_2
 10
1702.09192455103
 20
1664.114874871699
 30
0.0
  0
VERTEX
  5
88D
  8
PAGE_2
 10
1702.353704437911
 20
1664.273922011184
 30
0.0
  0
VERTEX
  5
88E
  8
PAGE_2
 10
1702.490602735539
 20
1664.344044023005
 30
0.0
  0
VERTEX
  5
88F
  8
PAGE_2
 10
1702.631240468999
 20
1664.407632195917
 30
0.0
  0
VERTEX
  5
890
  8
PAGE_2
 10
1702.77541803807
 20
1664.464486929702
 30
0.0
  0
VERTEX
  5
891
  8
PAGE_2
 10
1702.922935842534
 20
1664.51440862414
 30
0.0
  0
VERTEX
  5
892
  8
PAGE_2
 10
1703.07359428217
 20
1664.557197679011
 30
0.0
  0
VERTEX
  5
893
  8
PAGE_2
 10
1703.227193756759
 20
1664.592654494094
 30
0.0
  0
VERTEX
  5
894
  8
PAGE_2
 10
1703.383534666081
 20
1664.620579469172
 30
0.0
  0
VERTEX
  5
895
  8
PAGE_2
 10
1703.542417409917
 20
1664.640773004023
 30
0.0
  0
VERTEX
  5
896
  8
PAGE_2
 10
1703.703642388046
 20
1664.653035498428
 30
0.0
  0
SEQEND
  5
897
  8
PAGE_2
  0
ENDSEC
  0
EOF
